<svg xmlns="http://www.w3.org/2000/svg">
<defs>
<font id="JTMarnie-Regular" horiz-adv-x="0" >
  <font-face 
    font-family="JT Marnie"
    font-weight="300"
    font-stretch="normal"
    units-per-em="2048"
    panose-1="0 0 4 0 0 0 0 0 0 0"
    ascent="1638"
    descent="-410"
    x-height="1042"
    cap-height="1434"
    bbox="-1126 -664 2544 2443.54"
    underline-thickness="0"
    underline-position="0"
    stemh="125"
    stemv="137"
    unicode-range="U+0020-F8FF"
  />
<missing-glyph horiz-adv-x="1468" 
d="M119 948c0 41 35 76 76 76c40 0 75 -35 75 -76c0 -44 -35 -78 -75 -78c-41 0 -76 34 -76 78zM700 813v-336c0 -11 -5 -16 -16 -16h-102c-9 0 -16 5 -19 16l-4 25c-29 -34 -63 -51 -102 -51c-41 0 -77 17 -110 51s-50 81 -50 141c0 61 16 109 48 144c32 34 68 51 108 51
c38 0 74 -16 108 -47l2 22c3 11 9 16 19 16h102c11 0 16 -5 16 -16zM1386 662v-185c0 -11 -6 -16 -18 -16h-100c-12 0 -18 5 -19 16v185c0 33 -17 49 -51 49c-41 0 -61 -25 -61 -76v-158c0 -11 -6 -16 -17 -16h-104c-11 0 -16 5 -17 16v185c0 33 -17 49 -51 49
c-39 0 -60 -25 -61 -76v-158c0 -11 -6 -16 -19 -16h-100c-12 0 -18 5 -18 16v336c0 11 6 16 18 16h100c9 0 16 -5 19 -16l4 -20c33 30 68 45 106 45c52 0 91 -25 117 -74c34 49 78 74 133 74c39 0 72 -16 99 -49s40 -75 40 -127zM102 322l-28 73c-5 8 -1 16 12 23
c27 13 41 35 41 65v330c0 11 5 16 16 16h103c11 0 16 -5 16 -16v-330c0 -42 -13 -81 -39 -116c-26 -36 -60 -55 -102 -58c-10 -1 -16 4 -19 13zM573 645c0 55 -26 82 -77 82c-52 0 -78 -27 -78 -82c0 -57 34 -84 78 -84c51 0 77 28 77 84zM461 94c-12 -5 -26 -8 -41 -8
c-47 0 -70 27 -70 80v162h-35c-3 0 -4 1 -4 2v14c0 3 1 4 4 4h35v76c0 3 1 4 2 4h19c3 0 4 -1 4 -4v-76h82c3 0 4 -1 4 -4v-14c0 -1 -1 -2 -4 -2h-82v-162c0 -39 16 -59 49 -60c13 0 24 2 33 7c3 3 4 2 4 -2l4 -11c0 -4 -1 -6 -4 -6zM1046 317c26 -25 39 -57 39 -95
c0 -39 -13 -71 -38 -97c-26 -26 -57 -39 -93 -39c-52 0 -91 24 -116 72v-154c0 -3 -1 -4 -2 -4h-19c-3 0 -4 1 -4 4v342c0 1 1 2 4 2h12c4 0 6 -1 7 -2l4 -55c22 42 60 63 114 63c35 0 66 -12 92 -37zM1397 223v-12c0 -1 -1 -2 -4 -2h-228c5 -60 50 -103 113 -103

<glyph glyph-name="f_f.liga" unicode="ff" horiz-adv-x="1282" 
d="M1079 1397c-127 0 -190 -70 -190 -211v-144h323c13 0 20 -7 21 -20v-82c0 -13 -7 -20 -21 -20h-323v-900c0 -13 -7 -20 -21 -20h-102c-13 0 -20 7 -21 20v900h-403v-900c0 -13 -7 -20 -20 -20h-103c-13 0 -20 7 -20 20v900h-131c-13 0 -20 7 -21 20v82c0 13 7 20 21 20
h131v136c0 223 103 334 309 333c105 0 209 -30 311 -90c49 60 127 90 232 90c65 0 128 -10 188 -30c15 -5 20 -14 14 -27l-24 -65c-4 -13 -14 -18 -29 -15c-37 15 -77 23 -121 23zM342 1042h403v136c0 53 6 102 19 145c-83 49 -161 74 -232 74c-127 0 -190 -70 -190 -211
v-144z" />
    <glyph glyph-name="f_f_i.liga" unicode="ffi" horiz-adv-x="1708" 
d="M889 1042h643c13 0 20 -7 20 -20v-1002c0 -13 -7 -20 -20 -20h-109c-13 0 -20 7 -20 20v900h-514v-900c0 -13 -7 -20 -21 -20h-102c-13 0 -20 7 -21 20v900h-403v-900c0 -13 -7 -20 -20 -20h-103c-13 0 -20 7 -20 20v900h-131c-13 0 -20 7 -21 20v82c0 13 7 20 21 20h131
v136c0 223 103 334 309 333c105 0 209 -30 311 -90c49 60 127 90 232 90c65 0 128 -10 188 -30c15 -5 20 -14 14 -27l-24 -65c-4 -13 -14 -18 -29 -15c-37 15 -77 23 -121 23c-127 0 -190 -70 -190 -211v-144zM1479 1294c-60 0 -109 47 -109 107c0 57 49 106 109 106
c57 0 104 -49 104 -106c0 -60 -47 -107 -104 -107zM342 1042h403v136c0 53 6 102 19 145c-83 49 -161 74 -232 74c-127 0 -190 -70 -190 -211v-144z" />
    <glyph glyph-name="f_j.liga" unicode="fj" horiz-adv-x="1161" 
d="M342 1042h641c13 0 20 -7 21 -20v-1061c0 -139 -47 -238 -140 -295c-48 -41 -98 -62 -151 -63c-23 0 -37 5 -41 16l-21 80c-4 15 6 25 29 29c27 4 55 17 82 39c63 31 94 101 94 208v945h-514v-900c0 -13 -7 -20 -20 -20h-103c-13 0 -20 7 -20 20v900h-131
c-13 0 -20 7 -21 20v82c0 13 7 20 21 20h131v136c0 223 102 334 305 333c65 0 127 -10 186 -30c17 -5 22 -14 17 -27l-25 -65c-5 -13 -15 -18 -29 -15c-38 15 -78 23 -121 23c-127 0 -190 -70 -190 -211v-144zM928 1507c60 0 108 -49 108 -106c0 -60 -48 -107 -108 -107
c-57 0 -105 47 -105 107c0 57 48 106 105 106z" />
    <glyph glyph-name="f_t.liga" unicode="ft" horiz-adv-x="1462" 
d="M1378 109l21 -68c4 -11 0 -19 -13 -25c-60 -26 -127 -39 -202 -39c-188 0 -289 124 -289 351v592h-553v-900c0 -13 -7 -20 -20 -20h-103c-13 0 -20 7 -20 20v900h-131c-13 0 -20 7 -21 20v82c0 13 7 20 21 20h131v136c0 223 102 334 305 333c65 0 127 -10 186 -30
c17 -5 22 -14 17 -27l-25 -65c-4 -15 -14 -20 -29 -15c-38 15 -78 23 -121 23c-127 0 -190 -70 -190 -211v-144h553v287c0 13 7 20 20 21h103c13 0 20 -7 20 -21v-287h320c13 0 20 -7 20 -20v-82c0 -13 -7 -20 -20 -20h-320v-598c0 -86 15 -144 45 -175s79 -47 146 -47
c37 0 78 8 123 23c15 5 24 1 26 -14z" />
    <glyph glyph-name="f_i.liga" unicode="fi" horiz-adv-x="1159" 
d="M342 1042h641c13 0 20 -7 21 -20v-1002c0 -13 -7 -20 -21 -20h-106c-13 0 -20 7 -21 20v900h-514v-900c0 -13 -7 -20 -20 -20h-103c-13 0 -20 7 -20 20v900h-131c-13 0 -20 7 -21 20v82c0 13 7 20 21 20h131v136c0 223 102 334 305 333c65 0 127 -10 186 -30
c17 -5 22 -14 17 -27l-25 -65c-4 -15 -14 -20 -29 -15c-38 15 -78 23 -121 23c-127 0 -190 -70 -190 -211v-144zM855 1476c43 42 108 42 150 0c21 -21 31 -46 31 -75c0 -60 -49 -107 -106 -107s-107 47 -107 107c0 29 11 54 32 75z" />
    <glyph glyph-name="f_l.liga" unicode="fl" horiz-adv-x="1011" 
d="M508 1511c115 0 230 -37 346 -110v-1381c0 -13 -7 -20 -20 -20h-107c-13 0 -20 7 -20 20v1334c-61 29 -120 43 -175 43c-127 0 -190 -70 -190 -211v-144h227c13 0 20 -7 21 -20v-82c0 -13 -7 -20 -21 -20h-227v-900c0 -13 -7 -20 -20 -20h-103c-13 0 -20 7 -20 20v900
h-131c-13 0 -20 7 -21 20v82c0 13 7 20 21 20h131v136c0 222 103 333 309 333z" />
    <glyph glyph-name=".notdef" horiz-adv-x="1468" 
d="M119 948c0 41 35 76 76 76c40 0 75 -35 75 -76c0 -44 -35 -78 -75 -78c-41 0 -76 34 -76 78zM700 813v-336c0 -11 -5 -16 -16 -16h-102c-9 0 -16 5 -19 16l-4 25c-29 -34 -63 -51 -102 -51c-41 0 -77 17 -110 51s-50 81 -50 141c0 61 16 109 48 144c32 34 68 51 108 51
c38 0 74 -16 108 -47l2 22c3 11 9 16 19 16h102c11 0 16 -5 16 -16zM1386 662v-185c0 -11 -6 -16 -18 -16h-100c-12 0 -18 5 -19 16v185c0 33 -17 49 -51 49c-41 0 -61 -25 -61 -76v-158c0 -11 -6 -16 -17 -16h-104c-11 0 -16 5 -17 16v185c0 33 -17 49 -51 49
c-39 0 -60 -25 -61 -76v-158c0 -11 -6 -16 -19 -16h-100c-12 0 -18 5 -18 16v336c0 11 6 16 18 16h100c9 0 16 -5 19 -16l4 -20c33 30 68 45 106 45c52 0 91 -25 117 -74c34 49 78 74 133 74c39 0 72 -16 99 -49s40 -75 40 -127zM102 322l-28 73c-5 8 -1 16 12 23
c27 13 41 35 41 65v330c0 11 5 16 16 16h103c11 0 16 -5 16 -16v-330c0 -42 -13 -81 -39 -116c-26 -36 -60 -55 -102 -58c-10 -1 -16 4 -19 13zM573 645c0 55 -26 82 -77 82c-52 0 -78 -27 -78 -82c0 -57 34 -84 78 -84c51 0 77 28 77 84zM461 94c-12 -5 -26 -8 -41 -8
c-47 0 -70 27 -70 80v162h-35c-3 0 -4 1 -4 2v14c0 3 1 4 4 4h35v76c0 3 1 4 2 4h19c3 0 4 -1 4 -4v-76h82c3 0 4 -1 4 -4v-14c0 -1 -1 -2 -4 -2h-82v-162c0 -39 16 -59 49 -60c13 0 24 2 33 7c3 3 4 2 4 -2l4 -11c0 -4 -1 -6 -4 -6zM1046 317c26 -25 39 -57 39 -95
c0 -39 -13 -71 -38 -97c-26 -26 -57 -39 -93 -39c-52 0 -91 24 -116 72v-154c0 -3 -1 -4 -2 -4h-19c-3 0 -4 1 -4 4v342c0 1 1 2 4 2h12c4 0 6 -1 7 -2l4 -55c22 42 60 63 114 63c35 0 66 -12 92 -37zM1397 223v-12c0 -1 -1 -2 -4 -2h-228c5 -60 50 -103 113 -103
c42 0 75 19 98 56h4l13 -10c1 -1 1 -3 0 -5c-27 -41 -66 -61 -117 -61c-38 0 -70 13 -95 39s-38 58 -38 96c0 37 12 68 37 94s55 39 92 39c34 0 63 -13 88 -38s37 -56 37 -93zM741 344l-112 -289c-13 -37 -35 -55 -64 -55c-17 0 -30 3 -39 10c-1 1 -2 3 -2 4l6 13
c0 1 2 2 5 2c9 -7 18 -10 26 -11c21 0 37 17 49 52l8 20l-108 254c-3 3 -2 4 2 4h18c3 0 4 -1 5 -2l94 -225l88 223c1 3 3 4 6 4h16c1 0 2 -1 2 -4zM1061 221c0 63 -50 111 -113 111c-60 0 -110 -42 -110 -105c0 -33 11 -61 33 -85c21 -24 47 -36 77 -36
c63 0 113 50 113 115zM1165 229h209c-3 60 -45 103 -102 103c-60 0 -102 -43 -107 -103z" />
    <glyph glyph-name="glyph1" 
 />
    <glyph glyph-name="glyph2" horiz-adv-x="681" 
 />
    <glyph glyph-name="space" unicode=" " horiz-adv-x="731" 
 />
    <glyph glyph-name="exclam" unicode="!" horiz-adv-x="581" 
d="M332 438h-90c-13 0 -20 7 -21 21l-16 989c0 13 7 20 20 20h123c13 0 20 -7 21 -20l-17 -989c0 -13 -7 -20 -20 -21zM372 16c-48 -48 -122 -48 -170 0c-24 23 -36 52 -36 86c0 33 12 61 36 85s52 36 85 36s61 -12 85 -35c24 -24 36 -53 36 -86c0 -34 -12 -63 -36 -86z" />
    <glyph glyph-name="quotedbl" unicode="&#x22;" horiz-adv-x="768" 
d="M225 924l-14 483c0 13 7 20 20 20h68c11 0 24 -11 20 -22l-32 -481c0 -13 -7 -20 -21 -21h-20c-11 -3 -21 6 -21 21zM471 924l-14 483c0 13 7 20 20 20h68c11 0 23 -11 20 -22l-33 -481c0 -13 -7 -20 -20 -21h-20c-11 -3 -21 6 -21 21z" />
    <glyph glyph-name="numbersign" unicode="#" horiz-adv-x="1595" 
d="M1196 1049h279c13 0 19 -7 16 -21l-16 -53c-3 -13 -10 -20 -23 -21h-278l-111 -440h307c13 0 19 -7 16 -20l-16 -54c-3 -13 -10 -20 -22 -20h-310l-100 -404c-3 -13 -11 -20 -25 -20h-53c-15 0 -20 7 -14 20l100 404h-442l-101 -404c-5 -13 -13 -20 -24 -20h-55
c-12 0 -17 7 -15 20l101 404h-287c-15 0 -22 7 -19 20l17 54c3 13 11 20 24 20h289l111 440h-318c-11 0 -21 10 -18 21l16 53c3 13 11 20 25 21h317l99 389c5 13 14 20 26 20h51c13 0 20 -9 17 -20l-98 -389h442l98 389c3 13 11 20 25 20h53c15 0 20 -7 14 -20zM528 514h443
l110 440h-442z" />
    <glyph glyph-name="dollar" unicode="$" horiz-adv-x="1226" 
d="M1110 393c0 -125 -40 -224 -119 -297s-188 -114 -327 -121v-151c0 -13 -7 -20 -21 -21h-53c-13 0 -20 7 -21 21v153c-176 12 -329 88 -458 228c-8 9 -9 19 -2 28l53 80c8 12 17 13 28 2c123 -133 264 -199 424 -198c105 0 189 25 251 74s93 117 93 204
c0 81 -27 139 -81 175c-55 35 -148 69 -279 100c-41 9 -70 16 -88 21s-47 13 -86 26c-39 12 -69 24 -90 36c-21 11 -46 27 -75 48c-59 40 -83 81 -106 148c-12 33 -18 70 -18 110c0 113 40 206 119 278c79 71 184 111 315 119v162c0 13 7 20 21 20h53c13 0 20 -7 21 -20
v-162c159 -9 299 -71 421 -184c8 -7 10 -17 7 -31l-45 -78c-7 -11 -16 -13 -29 -6c-123 109 -254 164 -395 164c-101 0 -183 -23 -245 -69c-62 -47 -93 -109 -93 -187c0 -68 34 -123 70 -154c17 -16 44 -31 79 -44c35 -14 63 -23 84 -28s52 -13 94 -22
c61 -13 111 -25 149 -35c37 -11 81 -27 131 -49s89 -47 116 -74c55 -55 102 -149 102 -266z" />
    <glyph glyph-name="percent" unicode="%" horiz-adv-x="1824" 
d="M539 -80h-123l872 1641h125zM420 719c-90 0 -158 38 -205 115c-47 76 -70 173 -70 290c0 123 25 220 74 291s117 107 203 107c85 0 151 -36 200 -107c48 -72 72 -170 72 -295s-24 -223 -72 -294c-49 -71 -116 -107 -202 -107zM422 846c55 0 95 25 122 76
c27 50 40 116 40 198c0 175 -60 275 -164 275c-56 0 -97 -26 -124 -77s-40 -117 -40 -198c0 -172 59 -274 166 -274zM1405 -37c-90 0 -158 38 -205 114c-47 75 -70 173 -70 292c0 123 25 220 74 291s116 106 201 106c86 0 154 -36 203 -107c49 -72 73 -170 73 -294
c0 -125 -24 -223 -73 -294c-49 -72 -117 -108 -203 -108zM1407 90c109 0 166 110 166 277c0 177 -63 272 -170 272c-112 0 -164 -109 -164 -274c0 -177 61 -275 168 -275z" />
    <glyph glyph-name="ampersand" unicode="&#x26;" horiz-adv-x="1431" 
d="M1096 299l204 -229c9 -13 9 -26 0 -39l-49 -49c-13 -17 -26 -16 -39 2l-188 215c-127 -147 -282 -221 -465 -222c-125 0 -227 33 -305 98s-117 151 -117 259c0 83 28 158 84 225s152 141 289 223c-67 75 -115 139 -146 192s-47 108 -47 167c0 89 33 163 100 223
c66 60 151 90 255 90c101 0 184 -29 247 -87s95 -135 95 -232c0 -91 -24 -156 -92 -219c-35 -32 -67 -58 -96 -78c-29 -21 -74 -49 -134 -84l326 -367c53 87 92 189 115 305c5 13 21 20 34 15l58 -15c17 -4 22 -16 16 -37c-33 -135 -81 -254 -145 -356zM672 1339
c-67 0 -120 -19 -161 -58s-62 -87 -62 -146c0 -31 8 -64 25 -97c16 -34 33 -62 50 -83c17 -22 47 -59 90 -111c104 61 176 112 215 151s58 85 58 140c0 61 -20 111 -59 148c-40 37 -92 56 -156 56zM567 96c147 0 274 63 381 189l-358 407c-115 -73 -196 -134 -243 -185
s-71 -110 -71 -175c0 -73 27 -130 80 -172c53 -43 124 -64 211 -64z" />
    <glyph glyph-name="quotesingle" unicode="'" horiz-adv-x="522" 
d="M225 924l-14 483c0 13 7 20 20 20h68c11 0 24 -11 20 -22l-32 -481c0 -13 -7 -20 -21 -21h-20c-11 -3 -21 6 -21 21z" />
    <glyph glyph-name="parenleft" unicode="(" horiz-adv-x="772" 
d="M627 -238c-115 89 -207 171 -276 248c-70 77 -128 172 -175 285s-70 240 -70 381c0 213 47 388 147 533c50 72 104 137 161 194s128 119 213 184c11 8 19 6 26 -6l41 -61c7 -9 5 -18 -6 -27c-74 -61 -131 -113 -172 -154c-41 -42 -85 -97 -134 -164
c-97 -136 -140 -295 -140 -499c0 -205 43 -363 140 -498c49 -68 94 -123 135 -164c41 -42 98 -94 171 -155c11 -8 13 -18 6 -29l-41 -61c-7 -13 -15 -15 -26 -7z" />
    <glyph glyph-name="parenright" unicode=")" horiz-adv-x="772" 
d="M145 -238c-11 -8 -19 -6 -26 7l-41 61c-7 11 -5 20 6 29c74 61 132 113 175 157c42 43 87 98 135 165c95 134 136 292 136 495c0 164 -41 316 -88 414c-24 49 -59 100 -104 154s-84 96 -117 127s-78 71 -137 122c-11 8 -13 17 -6 27l41 61c7 12 15 14 26 6
c85 -65 156 -127 213 -184s111 -122 161 -194c100 -145 147 -320 147 -533c0 -141 -23 -268 -70 -381s-105 -208 -174 -285c-70 -77 -162 -159 -277 -248z" />
    <glyph glyph-name="asterisk" unicode="*" horiz-adv-x="911" 
d="M457 1186l-121 -215c-7 -15 -18 -18 -33 -8l-78 61c-11 11 -11 21 0 31l158 159l-223 46c-17 3 -22 11 -15 26l33 105c5 17 15 21 29 12l215 -115l-39 228c-3 17 3 25 18 24h107c13 0 25 -13 20 -24l-39 -228l211 117c17 8 28 4 33 -12l35 -107c4 -12 -1 -21 -16 -26
l-224 -46l158 -159c12 -9 11 -20 -2 -31l-78 -59c-13 -11 -24 -9 -31 6z" />
    <glyph glyph-name="plus" unicode="+" horiz-adv-x="1222" 
d="M1092 711l2 -52c0 -13 -7 -20 -21 -20h-414v-416c0 -13 -7 -20 -20 -20h-53c-11 0 -21 12 -21 20v414h-413c-13 0 -20 7 -21 20v54c0 13 7 20 21 20h411v414c0 13 7 20 21 20h55c13 0 20 -7 20 -20v-414h414c13 0 19 -7 19 -20z" />
    <glyph glyph-name="comma" unicode="," horiz-adv-x="618" 
d="M195 -297c-9 -3 -16 0 -19 8l-16 37c-1 9 3 16 12 21c44 18 82 42 114 72c32 31 47 65 46 102c-1 30 -21 45 -58 45c-55 0 -94 51 -94 114c0 37 13 68 38 93s57 38 95 38c88 0 129 -77 129 -192c1 -156 -82 -269 -247 -338z" />
    <glyph glyph-name="hyphen" unicode="-" horiz-adv-x="927" 
d="M752 528l-576 -2c-13 0 -20 7 -20 21v67c0 13 7 20 20 21h576c13 0 20 -7 20 -21v-65c0 -13 -7 -20 -20 -21z" />
    <glyph glyph-name="period" unicode="." horiz-adv-x="632" 
d="M317 -20c-68 0 -122 54 -122 122c0 33 12 61 36 85c23 24 52 36 86 36c33 0 61 -12 85 -35c24 -24 36 -53 36 -86c0 -34 -12 -63 -36 -86c-24 -24 -52 -36 -85 -36z" />
    <glyph glyph-name="slash" unicode="/" horiz-adv-x="1019" 
d="M156 -35h-121l829 1565h121z" />
    <glyph glyph-name="zero" unicode="0" horiz-adv-x="1294" 
d="M645 -27c-169 0 -298 71 -387 214s-133 325 -133 548c0 231 47 414 141 549c93 135 221 203 382 203s288 -68 381 -204s140 -321 140 -556s-47 -419 -140 -553s-221 -201 -384 -201zM647 115c130 0 226 57 289 170s94 262 94 446c0 195 -34 346 -101 453
c-68 106 -163 159 -286 159c-130 0 -226 -57 -288 -171s-93 -263 -93 -447c0 -195 34 -346 101 -451c67 -106 161 -159 284 -159z" />
    <glyph glyph-name="one" unicode="1" horiz-adv-x="759" 
d="M489 1470h64c13 0 20 -7 20 -20v-1430c0 -13 -7 -20 -20 -20h-109c-13 0 -20 7 -20 20v1278l-289 -102c-13 -4 -23 0 -29 12l-30 101c-4 11 0 19 12 24l367 131c3 0 26 6 34 6z" />
    <glyph glyph-name="two" unicode="2" horiz-adv-x="1189" 
d="M305 131h756c15 0 23 -7 22 -22v-86c0 -15 -7 -23 -22 -23h-942c-17 0 -25 8 -25 23v73c0 13 5 25 15 35c45 44 109 106 192 185c82 79 148 142 199 191c50 49 105 102 164 161s107 108 145 149c82 91 123 180 123 266c0 83 -31 149 -94 197s-147 72 -252 72
c-155 0 -286 -69 -393 -207c-12 -15 -24 -16 -35 -2l-62 55c-8 8 -9 18 -2 31c74 90 149 156 224 197s163 61 266 61c142 0 259 -36 350 -107c91 -72 137 -174 137 -307c0 -74 -15 -139 -44 -195c-29 -57 -75 -117 -136 -180c-45 -47 -97 -98 -156 -155s-139 -135 -242 -232
c-103 -98 -166 -158 -188 -180z" />
    <glyph glyph-name="three" unicode="3" horiz-adv-x="1202" 
d="M825 766c175 -68 262 -187 262 -358c0 -130 -46 -234 -138 -313s-214 -118 -367 -118c-221 0 -388 83 -500 248c-8 9 -7 19 2 29l68 59c11 7 21 5 30 -4c100 -130 233 -195 400 -194c235 0 368 106 368 293c0 188 -134 292 -375 292h-59c-13 0 -20 7 -20 21v80
c0 13 7 20 20 20h64c101 0 181 24 240 73c58 49 87 115 87 198c0 164 -126 258 -334 258c-150 0 -269 -57 -356 -170c-9 -12 -18 -13 -27 -2l-63 59c-9 8 -11 17 -4 27c115 147 265 221 452 221c145 0 259 -35 343 -104c84 -70 126 -164 126 -283c0 -155 -73 -265 -219 -332
z" />
    <glyph glyph-name="four" unicode="4" horiz-adv-x="1243" 
d="M961 530h182c15 0 23 -7 22 -20v-82c0 -13 -7 -20 -20 -20h-184v-385c0 -13 -7 -20 -21 -21h-94c-13 0 -20 7 -21 21v385h-725c-15 0 -23 7 -22 20v66c0 13 5 25 14 34l733 893c11 15 24 23 41 23h74c13 0 20 -7 21 -21v-893zM825 1219l-561 -689h561v689z" />
    <glyph glyph-name="five" unicode="5" horiz-adv-x="1193" 
d="M573 918c145 0 268 -43 369 -128s152 -200 152 -344c0 -145 -51 -259 -154 -344s-236 -127 -399 -127c-187 0 -338 61 -453 183c-7 9 -6 18 2 26l57 70c12 15 23 15 33 0c90 -98 209 -147 357 -148c130 0 232 30 306 89s111 141 111 246s-36 189 -107 252
c-72 63 -169 95 -290 95c-64 0 -125 -9 -183 -27c-58 -19 -102 -40 -132 -65c-11 -8 -21 -9 -31 -2l-53 39c-9 7 -14 15 -15 25l107 665c0 13 7 20 20 21h699c13 0 20 -7 20 -21v-84c0 -13 -7 -20 -20 -20h-611l-73 -465c92 43 188 64 288 64z" />
    <glyph glyph-name="six" unicode="6" horiz-adv-x="1187" 
d="M598 965c139 0 256 -47 351 -141c94 -95 141 -213 141 -355c0 -141 -47 -258 -142 -352c-95 -95 -215 -142 -358 -142c-141 0 -258 45 -351 135c-94 89 -141 204 -141 343c0 197 47 380 141 549c93 169 220 308 379 417c15 9 33 14 52 15h143c21 0 30 -6 29 -19
c0 -5 -2 -9 -6 -10c-224 -104 -402 -289 -506 -516c82 51 171 76 268 76zM588 102c105 0 192 34 260 102c68 67 102 156 102 265s-34 198 -101 267c-67 68 -152 102 -253 102c-103 0 -187 -35 -254 -105c-67 -71 -101 -160 -104 -268v-10c0 -108 33 -194 99 -257
c66 -64 150 -96 251 -96z" />
    <glyph glyph-name="seven" unicode="7" horiz-adv-x="1185" 
d="M94 1444h993c13 0 20 -7 21 -21v-47c0 -11 -3 -22 -8 -33l-656 -1325c-7 -12 -16 -18 -28 -18h-99c-16 0 -23 14 -18 29l647 1290h-852c-13 0 -20 7 -20 20v84c0 13 7 20 20 21z" />
    <glyph glyph-name="eight" unicode="8" horiz-adv-x="1239" 
d="M860 770c167 -63 264 -192 264 -375c0 -129 -45 -231 -135 -306c-90 -76 -213 -114 -368 -114c-157 0 -281 38 -372 113s-136 177 -136 305c0 185 101 317 270 377c-139 60 -223 179 -223 332c0 115 42 208 126 279s196 106 335 106s249 -35 332 -105
c83 -71 124 -164 124 -280c0 -156 -81 -275 -217 -332zM377 1289c-57 -50 -86 -115 -86 -195c0 -81 29 -147 87 -200s139 -78 243 -77c104 0 185 26 242 79s85 119 85 198s-29 143 -87 194s-139 76 -242 76c-104 0 -185 -25 -242 -75zM347 182c63 -56 154 -84 272 -84
c117 0 208 28 272 85s96 129 96 216c0 86 -32 157 -96 212s-154 83 -270 83c-117 0 -208 -28 -272 -83c-65 -55 -97 -127 -97 -214s32 -159 95 -215z" />
    <glyph glyph-name="nine" unicode="9" horiz-adv-x="1187" 
d="M598 1458c141 0 258 -45 352 -134c93 -89 140 -204 140 -343c0 -197 -47 -380 -140 -549c-94 -169 -221 -309 -381 -418c-15 -9 -32 -14 -51 -14h-143c-21 0 -30 6 -29 18c0 5 2 9 6 11c224 104 402 289 506 516c-82 -51 -171 -76 -268 -76c-139 0 -256 47 -350 142
c-95 94 -142 212 -142 354c0 141 48 258 143 352s214 141 357 141zM592 596c103 0 187 35 254 106c67 70 101 159 104 267v10c0 108 -33 194 -99 257s-150 95 -251 95c-105 0 -192 -34 -260 -101c-68 -68 -102 -156 -102 -265s34 -198 101 -266c67 -69 152 -103 253 -103z
" />
    <glyph glyph-name="colon" unicode=":" horiz-adv-x="595" 
d="M299 756c-34 0 -63 12 -87 36c-24 23 -36 52 -36 85s12 61 36 85c24 23 53 35 87 35c33 0 61 -12 85 -35c24 -24 36 -52 36 -85s-12 -62 -36 -85c-24 -24 -52 -36 -85 -36zM299 98c-34 0 -63 12 -87 36s-36 53 -36 87c0 33 12 61 36 85s53 36 87 36c33 0 61 -12 85 -36
s36 -52 36 -85c0 -34 -12 -63 -36 -87s-52 -36 -85 -36z" />
    <glyph glyph-name="semicolon" unicode=";" horiz-adv-x="606" 
d="M384 521c-48 -48 -122 -48 -170 0c-24 24 -36 53 -36 87c0 33 12 61 36 85s52 36 85 36s61 -12 85 -36s36 -52 36 -85c0 -34 -12 -63 -36 -87zM190 -297c-9 -3 -15 0 -18 8l-16 37c-1 9 3 16 12 21c44 18 82 42 114 72c32 31 47 65 46 102c-1 30 -21 45 -58 45
c-55 0 -94 51 -94 114c0 37 13 68 38 93s57 38 95 38c88 0 129 -77 129 -192c0 -156 -83 -269 -248 -338z" />
    <glyph glyph-name="less" unicode="&#x3c;" horiz-adv-x="1148" 
d="M999 1122v-55c0 -15 -7 -25 -20 -29l-721 -315l721 -315c13 -4 20 -14 20 -29v-55c0 -13 -13 -20 -24 -15l-825 371c-11 5 -16 13 -17 22v46c0 8 6 15 17 20l825 371c11 5 24 -2 24 -17z" />
    <glyph glyph-name="equal" unicode="=" horiz-adv-x="1417" 
d="M1169 887l-921 -2c-13 0 -20 7 -21 20v53c0 13 7 20 21 21l921 2c13 0 20 -7 21 -20v-54c0 -13 -7 -20 -21 -20zM1169 465l-921 -2c-13 0 -20 7 -21 20v54c0 13 7 20 21 20l921 2c13 0 20 -7 21 -20v-54c0 -13 -7 -20 -21 -20z" />
    <glyph glyph-name="greater" unicode="&#x3e;" horiz-adv-x="1148" 
d="M174 1139l827 -371c9 -7 14 -13 15 -20v-46c0 -8 -5 -15 -15 -22l-827 -371c-15 -7 -23 -2 -22 15v55c0 13 6 23 18 29l723 315l-723 315c-12 5 -18 15 -18 29v55c0 13 11 22 22 17z" />
    <glyph glyph-name="question" unicode="?" horiz-adv-x="1167" 
d="M104 1298c108 149 262 223 463 224c143 0 258 -37 345 -111s130 -174 130 -301c0 -155 -66 -265 -198 -330c-12 -5 -35 -15 -69 -30c-35 -15 -57 -26 -67 -32c-11 -6 -25 -17 -43 -34c-37 -33 -44 -72 -44 -135v-90c0 -13 -7 -20 -21 -21h-88c-13 0 -20 7 -20 21v127
c0 81 21 141 62 180s107 78 198 115c49 21 88 48 115 81s40 82 40 146c0 191 -128 291 -336 291c-157 0 -281 -61 -372 -182c-11 -13 -21 -14 -31 -3l-59 60c-7 7 -9 15 -5 24zM638 16c-48 -48 -122 -48 -170 0c-24 23 -36 52 -36 86c0 33 12 61 36 85s52 36 85 36
s61 -12 85 -35c24 -24 36 -53 36 -86c0 -34 -12 -63 -36 -86z" />
    <glyph glyph-name="at" unicode="@" horiz-adv-x="1775" 
d="M889 1329c206 0 380 -70 521 -211s212 -315 212 -522c0 -149 -37 -270 -110 -365c-74 -95 -167 -134 -279 -116c-125 19 -196 100 -184 231c-74 -94 -165 -141 -273 -141c-91 0 -160 35 -205 105c-46 69 -59 161 -38 274c20 113 65 203 134 270s148 100 238 100
c107 0 183 -46 228 -137l20 115c1 9 7 14 18 14l64 -2c13 0 18 -6 14 -18l-102 -572c-13 -84 20 -148 96 -159c82 -15 153 18 213 101s90 187 90 312c0 183 -66 336 -197 461c-132 124 -286 186 -462 186c-175 0 -327 -62 -456 -186c-130 -124 -195 -281 -195 -471
c0 -189 63 -346 190 -473c127 -128 280 -191 461 -191c113 0 216 27 309 80c11 4 18 1 23 -10l14 -41c4 -9 1 -15 -8 -18c-109 -57 -223 -86 -342 -86c-199 0 -370 72 -513 215s-214 317 -214 522c0 202 70 375 211 518s315 215 522 215zM807 301c69 0 128 26 176 78
s80 120 96 205c33 175 -30 274 -161 274c-136 0 -241 -105 -277 -280c-33 -175 33 -277 166 -277z" />
    <glyph glyph-name="A" unicode="A" horiz-adv-x="1458" 
d="M807 1417l567 -1390c7 -18 1 -27 -18 -27h-111c-13 0 -21 5 -22 14l-160 389h-657l-170 -389c-4 -9 -12 -14 -23 -14h-115c-13 0 -21 12 -16 27l612 1390c4 9 12 14 23 15h67c11 0 18 -5 23 -15zM1016 520l-268 692l-291 -692h559z" />
    <glyph glyph-name="B" unicode="B" horiz-adv-x="1439" 
d="M1055 741c172 -52 276 -182 276 -370c0 -240 -173 -371 -473 -371h-643c-13 0 -20 7 -20 20v1393c0 13 7 20 20 21h549c305 0 475 -128 475 -371c0 -152 -61 -259 -184 -322zM776 1296h-432v-510h412c228 0 342 85 342 254c0 171 -107 256 -322 256zM344 137l516 -2
c213 0 322 99 322 260c0 164 -130 262 -357 262h-481v-520z" />
    <glyph glyph-name="C" unicode="C" horiz-adv-x="1472" 
d="M844 -27c-206 0 -378 71 -516 213s-207 319 -207 531c0 209 67 384 201 526c133 142 297 213 491 213c221 0 409 -74 563 -221c9 -7 9 -15 0 -25l-73 -73c-8 -8 -16 -8 -25 0c-113 119 -265 178 -455 178c-159 0 -291 -57 -398 -170s-161 -255 -161 -426
c0 -173 55 -317 164 -432s244 -172 403 -172c98 0 176 13 234 38c57 25 122 68 195 130c9 5 17 5 22 0l78 -76c11 -11 11 -20 2 -27c-154 -138 -327 -207 -518 -207z" />
    <glyph glyph-name="D" unicode="D" horiz-adv-x="1521" 
d="M215 1434h526c201 0 361 -65 480 -195s178 -304 178 -522c0 -223 -59 -398 -176 -525c-117 -128 -278 -192 -482 -192h-526c-13 0 -20 7 -20 20v1393c0 13 7 20 20 21zM344 139h397c161 0 287 51 376 152s134 241 134 422s-45 324 -135 427s-215 154 -375 154h-397v-1155
z" />
    <glyph glyph-name="E" unicode="E" horiz-adv-x="1335" 
d="M344 139h873c13 0 20 -7 20 -20v-99c0 -13 -7 -20 -20 -20h-1002c-13 0 -20 7 -20 20v1393c0 13 7 20 20 21h993c13 0 20 -7 21 -21v-98c0 -13 -7 -20 -21 -21h-864v-512h733c13 0 20 -7 21 -20v-78c0 -13 -7 -20 -21 -20h-733v-525z" />
    <glyph glyph-name="F" unicode="F" horiz-adv-x="1310" 
d="M215 1434h993c13 0 20 -7 21 -21v-98c0 -13 -7 -20 -21 -21h-864v-512h733c13 0 20 -7 21 -20v-78c0 -13 -7 -20 -21 -20h-733v-644c0 -13 -7 -20 -20 -20h-109c-13 0 -20 7 -20 20v1393c0 13 7 20 20 21z" />
    <glyph glyph-name="G" unicode="G" horiz-adv-x="1556" 
d="M831 715h562c13 0 20 -7 20 -21v-674c0 -13 -7 -20 -20 -20h-72c-12 0 -20 7 -23 20l-14 132c-116 -116 -271 -174 -465 -175c-202 0 -369 68 -500 205c-132 137 -198 313 -198 529c0 215 66 393 197 533s296 212 495 216c223 4 409 -68 559 -215c8 -8 8 -17 0 -26
l-74 -70c-5 -7 -13 -7 -22 0c-139 124 -290 183 -451 176c-167 -5 -303 -64 -408 -177c-106 -113 -159 -257 -159 -433c0 -179 54 -324 162 -436s250 -168 426 -168c188 0 346 70 434 198v287h-449c-15 0 -23 7 -22 20v78c0 13 7 20 22 21z" />
    <glyph glyph-name="H" unicode="H" horiz-adv-x="1497" 
d="M1174 1434h108c13 0 20 -7 21 -21v-1393c0 -13 -7 -20 -21 -20h-108c-13 0 -20 7 -21 20v644h-809v-644c0 -13 -7 -20 -20 -20h-109c-13 0 -20 7 -20 20v1393c0 13 7 20 20 21h109c13 0 20 -7 20 -21v-629h809v629c0 13 7 20 21 21z" />
    <glyph glyph-name="I" unicode="I" horiz-adv-x="538" 
d="M324 0h-109c-13 0 -20 7 -20 20v1393c0 13 7 20 20 21h109c13 0 20 -7 20 -21v-1393c0 -13 -7 -20 -20 -20z" />
    <glyph glyph-name="J" unicode="J" horiz-adv-x="1046" 
d="M440 -23c-154 0 -273 58 -358 173c-7 8 -6 16 2 24l66 68c9 15 19 15 30 -2c25 -25 45 -43 60 -56s38 -27 71 -40c33 -14 69 -21 109 -21c93 0 166 31 220 94s81 149 81 258v938c0 13 7 20 20 21h109c13 0 20 -7 20 -21v-942c0 -149 -40 -268 -120 -358
c-80 -91 -183 -136 -310 -136z" />
    <glyph glyph-name="K" unicode="K" horiz-adv-x="1366" 
d="M633 829l651 -798c13 -16 5 -31 -14 -31h-131c-9 0 -18 4 -27 12l-584 715l-184 -182v-525c0 -13 -7 -20 -20 -20h-109c-13 0 -20 7 -20 20v1393c0 13 7 20 20 21h109c13 0 20 -7 20 -21v-686l678 694c8 8 17 12 27 13h151c21 0 29 -20 12 -33z" />
    <glyph glyph-name="L" unicode="L" horiz-adv-x="1318" 
d="M344 139h873c13 0 20 -7 20 -20v-99c0 -13 -7 -20 -20 -20h-1002c-13 0 -20 7 -20 20v1393c0 13 7 20 20 21h109c13 0 20 -7 20 -21v-1274z" />
    <glyph glyph-name="M" unicode="M" horiz-adv-x="1738" 
d="M1434 1434h90c13 0 20 -7 20 -21v-1393c0 -13 -7 -20 -20 -20h-107c-13 0 -20 7 -20 20v1094l-463 -776c-5 -9 -13 -14 -23 -14h-75c-8 0 -15 5 -21 14l-471 780v-1098c0 -13 -7 -20 -20 -20h-109c-13 0 -20 7 -20 20v1393c0 13 7 20 20 21h88c11 0 18 -4 23 -13
l548 -903l539 903c4 8 11 12 21 13z" />
    <glyph glyph-name="N" unicode="N" horiz-adv-x="1624" 
d="M1303 1434h106c13 0 20 -7 21 -21v-1393c0 -13 -7 -20 -21 -20h-84c-11 0 -18 3 -22 10l-959 1151v-1141c0 -13 -7 -20 -20 -20h-109c-13 0 -20 7 -20 20v1393c0 13 7 20 20 21h82c11 0 18 -4 22 -11l963 -1151v1141c0 13 7 20 21 21z" />
    <glyph glyph-name="O" unicode="O" horiz-adv-x="1701" 
d="M1384 174c-132 -133 -309 -199 -532 -199s-400 66 -531 199c-132 133 -198 310 -198 533c0 224 66 404 199 539c132 135 309 202 530 202c223 0 400 -68 532 -203c131 -135 197 -315 197 -538s-66 -400 -197 -533zM428 275c105 -105 247 -158 424 -158s319 53 424 158
s158 249 158 432s-53 328 -158 437s-247 163 -424 163c-176 0 -317 -54 -423 -163s-159 -254 -159 -437s53 -327 158 -432z" />
    <glyph glyph-name="P" unicode="P" horiz-adv-x="1341" 
d="M215 1434h541c146 0 263 -38 351 -114s132 -177 132 -302c0 -129 -44 -234 -133 -315c-89 -82 -205 -123 -350 -123h-412v-560c0 -13 -7 -20 -20 -20h-109c-13 0 -20 7 -20 20v1393c0 13 7 20 20 21zM344 715h412c104 0 187 27 248 81s92 123 92 208
c0 84 -31 153 -93 208c-63 55 -145 82 -247 82h-412v-579z" />
    <glyph glyph-name="Q" unicode="Q" horiz-adv-x="1708" 
d="M1384 174l146 -154c7 -7 7 -15 0 -24l-76 -74c-8 -8 -16 -7 -24 2l-156 162c-117 -74 -258 -111 -422 -111c-223 0 -400 66 -531 199c-132 133 -198 310 -198 533c0 224 66 404 199 539c132 135 309 202 530 202c223 0 400 -68 532 -203c131 -135 197 -315 197 -538
c0 -221 -66 -399 -197 -533zM852 117c124 0 230 26 319 78l-215 223c-9 8 -9 17 0 26l76 72c8 11 16 11 25 0l225 -235c101 105 152 247 152 426c0 183 -53 328 -158 437s-247 163 -424 163c-176 0 -317 -54 -423 -163s-159 -254 -159 -437s53 -327 158 -432
s247 -158 424 -158z" />
    <glyph glyph-name="R" unicode="R" horiz-adv-x="1357" 
d="M938 606l293 -579c9 -18 4 -27 -17 -27h-114c-11 0 -18 5 -23 14l-284 568c-8 -1 -20 -2 -37 -2h-412v-560c0 -13 -7 -20 -20 -20h-109c-13 0 -20 7 -20 20v1393c0 13 7 20 20 21h541c146 0 263 -38 351 -114s132 -177 132 -302c0 -98 -27 -183 -80 -256
s-127 -125 -221 -156zM756 1294h-412v-579h412c104 0 187 27 248 81s92 123 92 208c0 84 -31 153 -93 208c-63 55 -145 82 -247 82z" />
    <glyph glyph-name="S" unicode="S" horiz-adv-x="1226" 
d="M629 -25c-203 0 -376 76 -518 228c-7 8 -7 17 -2 28l53 78c7 13 16 14 28 2c128 -131 253 -196 422 -196c107 0 192 24 256 73c63 48 95 116 95 205c0 79 -28 137 -83 174c-55 36 -149 70 -282 101c-37 8 -61 14 -74 17s-38 10 -75 21c-37 10 -64 20 -81 29
s-41 20 -70 35c-59 28 -80 63 -114 108c-34 44 -49 106 -49 175c0 119 44 214 133 287c89 72 205 108 350 108c173 0 329 -62 467 -186c9 -7 12 -16 7 -29l-45 -78c-7 -11 -16 -13 -29 -6c-127 109 -258 164 -395 164c-101 0 -183 -23 -246 -69c-63 -47 -94 -110 -94 -189
c0 -68 33 -121 67 -151c17 -15 42 -30 77 -43c35 -14 63 -24 86 -30c23 -7 56 -15 99 -24c61 -13 111 -25 148 -35c37 -11 80 -27 130 -49s89 -46 117 -73c56 -53 103 -146 103 -261c0 -129 -43 -230 -130 -303c-87 -74 -204 -111 -351 -111z" />
    <glyph glyph-name="T" unicode="T" horiz-adv-x="1390" 
d="M102 1434h1184c13 0 20 -7 21 -21v-100c0 -13 -7 -20 -21 -21h-518v-1272c0 -13 -7 -20 -20 -20h-107c-13 0 -20 7 -20 20v1272h-519c-13 0 -20 7 -20 21v100c0 13 7 20 20 21z" />
    <glyph glyph-name="U" unicode="U" horiz-adv-x="1478" 
d="M739 -23c-179 0 -319 60 -420 179c-102 119 -153 281 -153 487v770c0 13 7 20 20 21h107c13 0 20 -7 20 -21v-770c0 -165 37 -293 112 -383s180 -135 315 -135s239 45 313 135c73 90 110 218 110 383v770c0 13 7 20 21 21h108c13 0 20 -7 21 -21v-770
c0 -206 -51 -368 -154 -487s-243 -179 -420 -179z" />
    <glyph glyph-name="V" unicode="V" horiz-adv-x="1454" 
d="M1237 1434h115c19 0 25 -9 16 -27l-567 -1391c-4 -11 -12 -16 -25 -16h-67c-11 0 -19 5 -25 14l-602 1393c-5 13 3 27 16 27h117c11 0 19 -6 25 -19l501 -1190l469 1190c7 12 16 18 27 19z" />
    <glyph glyph-name="W" unicode="W" horiz-adv-x="2152" 
d="M1939 1434h107c18 0 24 -9 18 -27l-460 -1391c-3 -11 -10 -16 -23 -16h-88c-12 0 -20 5 -25 16l-393 1084l-393 -1084c-4 -11 -12 -16 -25 -16h-88c-12 0 -19 5 -22 16l-461 1391c-5 13 5 27 18 27h109c13 0 21 -6 23 -17l382 -1173l392 1102c7 12 15 18 24 18h82
c9 0 17 -6 23 -18l391 -1110l385 1181c4 11 12 16 24 17z" />
    <glyph glyph-name="X" unicode="X" horiz-adv-x="1566" 
d="M883 735l600 -704c11 -13 3 -31 -17 -31h-125c-12 0 -21 4 -26 12l-533 623l-532 -623c-4 -8 -13 -12 -27 -12h-125c-19 0 -25 16 -14 31l598 708l-561 664c-11 13 -5 31 14 31h123c9 0 18 -4 27 -13l497 -583l496 583c5 8 14 12 27 13h127c19 0 27 -18 14 -31z" />
    <glyph glyph-name="Y" unicode="Y" horiz-adv-x="1411" 
d="M1194 1434h123c19 0 25 -18 14 -31l-551 -729v-654c0 -13 -7 -20 -20 -20h-107c-13 0 -20 7 -20 20v658l-553 725c-13 13 -3 31 16 31h121c13 0 22 -5 27 -15l465 -614l458 614c5 9 14 14 27 15z" />
    <glyph glyph-name="Z" unicode="Z" horiz-adv-x="1492" 
d="M299 125h1079c13 0 20 -7 21 -21v-84c0 -13 -7 -20 -21 -20h-1263c-13 0 -20 7 -21 20v66c0 8 3 15 8 20l1076 1203h-1053c-13 0 -20 7 -21 20v84c0 13 7 20 21 21h1233c13 0 20 -7 20 -21v-67c0 -7 -3 -14 -8 -23z" />
    <glyph glyph-name="bracketleft" unicode="[" horiz-adv-x="694" 
d="M596 1466l-295 -2v-1728l293 2c15 0 23 -7 22 -21v-73c0 -13 -7 -20 -20 -21h-389c-13 0 -20 7 -21 21v1917c0 13 7 20 21 20h387c15 0 23 -7 22 -20v-74c0 -14 -7 -21 -20 -21z" />
    <glyph glyph-name="backslash" unicode="\" horiz-adv-x="1007" 
d="M973 -35h-107l-829 1565h108z" />
    <glyph glyph-name="bracketright" unicode="]" horiz-adv-x="694" 
d="M98 1581h389c13 0 20 -7 21 -20v-1917c0 -13 -8 -20 -23 -21h-387c-13 0 -20 7 -20 21v73c0 13 7 20 20 21l293 -2v1728l-293 2c-13 0 -20 7 -20 21v74c0 13 7 20 20 20z" />
    <glyph glyph-name="asciicircum" unicode="^" horiz-adv-x="1124" 
d="M604 1454l391 -825c4 -17 -1 -25 -16 -25h-55c-13 0 -23 6 -29 19l-334 723l-332 -723c-5 -12 -15 -18 -28 -19h-56c-15 0 -21 8 -16 25l387 825c5 9 13 14 23 14h43c11 0 18 -5 22 -14z" />
    <glyph glyph-name="underscore" unicode="_" horiz-adv-x="1533" 
d="M1296 -125l-1058 -2c-13 0 -20 7 -21 21v67c0 13 7 20 21 21h1058c13 0 20 -7 21 -21v-65c0 -13 -7 -20 -21 -21z" />
    <glyph glyph-name="a" unicode="a" horiz-adv-x="1353" 
d="M1092 1042h86c13 0 20 -7 20 -20v-1002c0 -13 -7 -20 -20 -20h-86c-9 0 -16 7 -21 20l-14 179c-96 -136 -251 -224 -434 -224c-151 0 -278 51 -380 154s-153 233 -153 392c0 158 51 289 153 392c101 103 224 154 369 154c91 0 176 -22 254 -65c78 -44 142 -103 193 -177
l12 197c3 13 10 20 21 20zM649 100c113 0 210 37 289 110s119 170 119 292c0 124 -40 228 -121 313s-180 127 -297 127c-112 0 -207 -40 -285 -120c-79 -80 -118 -181 -118 -302s40 -222 119 -301s177 -119 294 -119z" />
    <glyph glyph-name="b" unicode="b" horiz-adv-x="1361" 
d="M750 1067c145 0 268 -51 370 -154c101 -103 152 -234 152 -392c0 -159 -51 -289 -152 -392c-102 -103 -229 -154 -381 -154c-188 0 -346 91 -442 236l-14 -191c-3 -13 -10 -20 -21 -20h-84c-13 0 -20 7 -20 20v1446c0 13 7 20 20 21h107c13 0 20 -7 20 -21v-639
c49 74 113 133 191 176s163 64 254 64zM713 100c117 0 216 40 295 119s118 180 118 301s-39 222 -117 302c-79 80 -174 120 -286 120c-117 0 -216 -42 -297 -127s-121 -189 -121 -313c0 -121 40 -219 119 -292s176 -110 289 -110z" />
    <glyph glyph-name="c" unicode="c" horiz-adv-x="1087" 
d="M635 -25c-157 0 -288 53 -391 159c-104 106 -156 235 -156 388c0 151 52 280 156 386c103 106 232 159 387 159c146 0 272 -53 379 -160c9 -11 8 -21 -4 -30l-66 -52c-9 -8 -19 -7 -29 2c-82 77 -175 115 -278 115c-115 0 -211 -41 -290 -122s-118 -181 -118 -300
c0 -117 39 -217 118 -298s178 -122 298 -122c39 0 75 8 104 13c28 5 62 22 80 31c18 8 50 28 59 35c5 3 12 9 23 18l17 12c9 7 19 7 28 0l66 -51c11 -8 12 -18 4 -29c-105 -103 -234 -154 -387 -154z" />
    <glyph glyph-name="d" unicode="d" horiz-adv-x="1361" 
d="M1077 1487h107c13 0 20 -7 20 -21v-1446c0 -13 -7 -20 -20 -20h-84c-11 0 -18 7 -21 20l-14 191c-96 -145 -254 -236 -442 -236c-151 0 -278 51 -380 154s-153 233 -153 392c0 158 51 289 153 392c101 103 224 154 369 154c91 0 176 -21 254 -64s142 -102 191 -176v639
c0 13 7 20 20 21zM649 100c113 0 210 37 289 110s119 170 119 292c0 124 -40 228 -121 313s-180 127 -297 127c-112 0 -207 -40 -285 -120c-79 -80 -118 -181 -118 -302s40 -222 119 -301s177 -119 294 -119z" />
    <glyph glyph-name="e" unicode="e" horiz-adv-x="1208" 
d="M608 1067c146 0 268 -51 366 -153c97 -103 146 -233 146 -390v-37c-1 -12 -9 -18 -22 -18h-871c8 -112 50 -201 126 -268s172 -101 288 -101c153 0 276 67 371 201c9 11 19 11 28 2l58 -57c9 -9 9 -20 0 -33c-49 -74 -115 -132 -198 -174c-83 -43 -172 -64 -269 -64
c-155 0 -284 52 -387 155s-154 233 -154 388c0 154 49 284 147 390c97 106 221 159 371 159zM873 844c-70 65 -157 98 -260 98c-104 0 -192 -33 -263 -98c-72 -66 -114 -153 -125 -260h764c-8 108 -47 195 -116 260z" />
    <glyph glyph-name="f" unicode="f" horiz-adv-x="733" 
d="M532 1397c-127 0 -190 -70 -190 -211v-144h324c13 0 20 -7 20 -20v-82c0 -13 -7 -20 -20 -20h-324v-900c0 -13 -7 -20 -20 -20h-103c-13 0 -20 7 -20 20v900h-131c-13 0 -20 7 -21 20v82c0 13 7 20 21 20h131v136c0 223 102 334 305 333c65 0 127 -10 186 -30
c17 -5 22 -14 17 -27l-25 -65c-4 -15 -14 -20 -29 -15c-39 15 -79 23 -121 23z" />
    <glyph glyph-name="g" unicode="g" horiz-adv-x="1300" 
d="M1032 1044h92c13 0 20 -7 21 -20v-958c0 -147 -51 -262 -152 -345c-102 -83 -236 -124 -403 -124c-142 0 -277 39 -404 116c-9 4 -13 13 -10 27l33 76c7 13 17 16 31 8c100 -71 213 -106 340 -107c123 0 223 30 301 90c77 61 116 143 116 246v193
c-97 -129 -232 -193 -405 -193c-145 0 -265 48 -361 143c-97 95 -145 216 -145 363s48 269 145 365c96 95 213 143 351 143c172 0 325 -85 417 -221l13 178c3 13 9 20 20 20zM610 178c107 0 198 33 274 100c75 66 113 154 113 263c0 112 -39 207 -116 285
c-78 77 -171 116 -279 116c-104 0 -193 -36 -266 -108c-74 -73 -111 -164 -111 -275s37 -202 111 -273c73 -72 165 -108 274 -108z" />
    <glyph glyph-name="h" unicode="h" horiz-adv-x="1249" 
d="M696 1067c130 0 233 -42 308 -127s112 -208 112 -369v-551c0 -13 -7 -20 -20 -20h-109c-13 0 -20 7 -20 20v551c0 117 -28 209 -83 274s-131 97 -227 97c-193 0 -324 -132 -352 -379v-543c0 -13 -7 -20 -20 -20h-107c-13 0 -20 7 -20 20v1446c0 13 7 20 20 21h107
c13 0 20 -7 20 -21v-602c93 135 223 203 391 203z" />
    <glyph glyph-name="i" unicode="i" horiz-adv-x="458" 
d="M304 1325c-61 -68 -185 -17 -181 76c0 57 49 106 106 106c29 0 54 -10 75 -31s32 -46 32 -75c0 -30 -11 -55 -32 -76zM283 0h-107c-13 0 -20 7 -20 20v1002c0 13 7 20 20 20h107c13 0 20 -7 20 -20v-1002c0 -13 -7 -20 -20 -20z" />
    <glyph glyph-name="j" unicode="j" horiz-adv-x="460" 
d="M304 1325c-61 -68 -185 -17 -181 76c0 57 49 106 106 106c29 0 54 -10 75 -31s32 -46 32 -75c0 -30 -11 -55 -32 -76zM14 -397c-25 0 -38 5 -41 16l-22 80c-1 15 8 25 29 29c109 0 176 92 176 247v1047c0 13 7 20 20 20h107c13 0 20 -7 20 -20v-1061
c0 -104 -27 -190 -80 -258s-123 -101 -209 -100z" />
    <glyph glyph-name="k" unicode="k" horiz-adv-x="1140" 
d="M608 600l486 -575c8 -13 2 -25 -13 -25h-114c-13 0 -23 4 -29 12l-426 496l-207 -195v-293c0 -13 -7 -20 -20 -20h-107c-13 0 -20 7 -20 20v1446c0 13 7 20 20 21h107c13 0 20 -7 20 -21v-985l572 549c7 7 16 10 28 10h129c19 0 26 -13 13 -24z" />
    <glyph glyph-name="l" unicode="l" horiz-adv-x="462" 
d="M285 0h-107c-13 0 -20 7 -20 20v1446c0 13 7 20 20 21h107c13 0 20 -7 20 -21v-1446c0 -13 -7 -20 -20 -20z" />
    <glyph glyph-name="m" unicode="m" horiz-adv-x="2052" 
d="M1499 1067c131 0 234 -43 309 -128c74 -85 111 -208 111 -368v-551c0 -13 -7 -20 -21 -20h-106c-13 0 -20 7 -20 20v551c0 117 -28 209 -83 274s-131 97 -228 97c-194 0 -324 -132 -351 -379v-543c0 -13 -7 -20 -20 -20h-99c-13 0 -20 7 -20 20v551
c0 117 -28 209 -85 274s-133 97 -230 97c-194 0 -325 -132 -353 -379v-543c0 -13 -7 -20 -20 -20h-107c-13 0 -20 7 -20 20v1002c0 13 7 20 20 20h86c11 0 18 -7 21 -20l10 -178c93 149 227 223 403 223c189 0 314 -85 377 -256c91 171 233 256 426 256z" />
    <glyph glyph-name="n" unicode="n" horiz-adv-x="1255" 
d="M705 1067c130 0 232 -42 306 -127s111 -208 111 -369v-551c0 -13 -7 -20 -20 -20h-107c-13 0 -20 7 -20 20v551c0 117 -28 209 -83 274s-131 97 -228 97s-178 -32 -243 -97s-104 -159 -118 -282v-543c0 -13 -7 -20 -20 -20h-107c-13 0 -20 7 -20 20v1002c0 13 7 20 20 20
h86c11 0 18 -7 21 -20l10 -180c95 150 232 225 412 225z" />
    <glyph glyph-name="o" unicode="o" horiz-adv-x="1269" 
d="M635 -25c-157 0 -288 52 -391 157c-104 105 -156 235 -156 390c0 154 52 283 157 388c104 105 234 157 390 157c155 0 285 -52 390 -156c105 -105 157 -234 157 -389s-52 -285 -157 -390s-235 -157 -390 -157zM635 100c113 0 209 40 288 120c78 80 117 181 117 302
c0 120 -39 220 -117 300c-79 80 -175 120 -288 120c-115 0 -211 -39 -289 -118s-117 -180 -117 -302c0 -123 39 -224 117 -303s174 -119 289 -119z" />
    <glyph glyph-name="p" unicode="p" horiz-adv-x="1361" 
d="M743 1071c149 0 274 -51 376 -154s153 -234 153 -392c0 -159 -51 -290 -152 -393c-102 -103 -227 -155 -375 -155c-185 0 -341 90 -440 238v-565c0 -13 -7 -20 -20 -21h-107c-13 0 -20 7 -20 21v1372c0 13 7 20 20 20h84c11 0 18 -7 21 -20l14 -191
c48 74 111 133 190 176c78 43 163 64 256 64zM425 221c80 -79 177 -119 292 -119s212 40 291 119s118 180 118 303c0 121 -39 222 -117 301c-79 79 -175 119 -290 119c-116 0 -214 -40 -294 -119c-80 -80 -120 -181 -120 -302c0 -122 40 -223 120 -302z" />
    <glyph glyph-name="q" unicode="q" horiz-adv-x="1349" 
d="M1085 1042h86c13 0 20 -7 21 -20v-1374c0 -13 -7 -20 -21 -21h-106c-13 0 -20 7 -21 21v559c-96 -141 -250 -230 -434 -230c-147 0 -271 51 -370 152c-100 101 -150 231 -150 390c0 158 51 290 152 395s223 157 368 157c91 0 176 -22 254 -66c78 -45 141 -105 189 -180
l12 197c4 13 11 20 20 20zM639 102c113 0 209 38 288 115c78 77 117 176 117 297c0 123 -40 225 -119 307c-80 82 -177 123 -290 123c-112 0 -206 -40 -283 -121s-116 -182 -116 -305c0 -121 39 -221 116 -299s172 -117 287 -117z" />
    <glyph glyph-name="r" unicode="r" horiz-adv-x="796" 
d="M745 1061c18 -3 22 -12 13 -29l-60 -110c-4 -7 -10 -10 -18 -11c-5 0 -24 2 -43 2c-191 0 -303 -114 -336 -342v-551c0 -13 -7 -20 -20 -20h-103c-13 0 -20 7 -20 20l-2 1002c0 13 7 20 20 20h86c9 0 16 -7 21 -20l10 -184c69 134 185 208 346 223c37 5 72 5 106 0z" />
    <glyph glyph-name="s" unicode="s" horiz-adv-x="983" 
d="M494 -25c-93 0 -175 15 -247 46c-72 30 -126 70 -161 120c-9 11 -9 21 0 31l41 59c8 12 19 13 33 2c61 -89 171 -133 329 -133c175 0 271 68 271 191c0 59 -21 100 -64 124s-118 47 -223 68c-45 9 -81 18 -108 25s-60 18 -97 33c-38 15 -67 31 -87 50
c-41 36 -79 98 -79 177c0 91 36 164 108 218c71 54 166 81 284 81c142 0 267 -46 374 -139c12 -8 13 -18 4 -31l-41 -55c-8 -11 -19 -13 -32 -6c-82 71 -181 106 -297 106c-161 0 -260 -63 -260 -170c0 -41 8 -70 41 -93c16 -11 30 -21 41 -28c11 -8 31 -16 60 -23
c29 -8 49 -13 60 -15c10 -2 33 -7 70 -15c60 -12 110 -24 150 -37c39 -13 79 -31 119 -54c79 -45 116 -115 116 -216c0 -97 -35 -173 -106 -230s-170 -86 -299 -86z" />
    <glyph glyph-name="t" unicode="t" horiz-adv-x="770" 
d="M688 109l21 -68c4 -9 -1 -18 -15 -25c-57 -26 -123 -39 -198 -39c-195 0 -293 117 -293 351v592h-135c-13 0 -20 7 -21 20v82c0 13 7 20 21 20h135v287c0 13 7 20 20 21h105c13 0 20 -7 20 -21v-287h318c13 0 20 -7 20 -20v-82c0 -13 -7 -20 -20 -20h-318v-598
c0 -86 15 -144 44 -175s78 -47 145 -47c39 0 72 5 85 10c12 4 32 10 37 13c13 5 23 1 29 -14z" />
    <glyph glyph-name="u" unicode="u" horiz-adv-x="1249" 
d="M965 1042h108c13 0 20 -7 21 -20v-1002c0 -13 -7 -20 -21 -20h-86c-11 0 -17 7 -20 20l-13 160c-91 -137 -226 -205 -403 -205c-265 0 -418 171 -418 496v551c0 13 7 20 21 20h106c13 0 20 -7 21 -20v-551c0 -117 28 -208 84 -273s132 -98 229 -98c191 0 323 132 350 377
v545c0 13 7 20 21 20z" />
    <glyph glyph-name="v" unicode="v" horiz-adv-x="1077" 
d="M905 1042h107c18 0 23 -8 14 -24l-401 -1002c-1 -11 -8 -16 -21 -16h-98c-12 0 -19 5 -21 14l-436 1004c-5 11 2 24 17 24h106c12 0 21 -6 27 -18l354 -842l326 840c4 13 13 20 26 20z" />
    <glyph glyph-name="w" unicode="w" horiz-adv-x="1624" 
d="M1454 1042h98c15 0 22 -8 19 -24l-357 -1002c-3 -11 -9 -16 -20 -16h-86c-11 0 -18 5 -23 16l-276 799l-272 -799c-4 -11 -12 -16 -23 -16h-86c-11 0 -18 5 -22 16l-351 1002c-4 17 2 25 17 24h98c13 0 22 -6 27 -18l274 -834l272 822c4 12 13 18 27 18h80
c13 0 22 -6 27 -18l276 -826l274 838c5 12 14 18 27 18z" />
    <glyph glyph-name="x" unicode="x" horiz-adv-x="1116" 
d="M649 526l412 -495c11 -19 2 -31 -14 -31h-123c-8 0 -16 3 -23 10l-342 410l-344 -410c-4 -7 -11 -10 -22 -10h-123c-21 0 -28 16 -17 31l418 495l-405 486c-11 16 -3 30 16 30h123c8 0 15 -3 22 -10l332 -399l336 399c4 7 11 10 20 10h125c21 0 28 -19 17 -30z" />
    <glyph glyph-name="y" unicode="y" horiz-adv-x="1075" 
d="M899 1042h111c13 0 19 -11 14 -24l-455 -1170c-65 -167 -164 -250 -297 -249c-65 0 -121 16 -166 49c-9 8 -11 17 -6 26l31 68c7 11 16 13 29 8c29 -18 62 -27 100 -26c84 0 136 54 191 190l32 84l-434 1020c-5 11 3 24 14 24h111c12 0 21 -6 27 -18l352 -842l319 842
c5 12 14 18 27 18z" />
    <glyph glyph-name="z" unicode="z" horiz-adv-x="1044" 
d="M975 1022v-72c0 -7 -3 -13 -10 -20l-703 -799h688c13 0 20 -7 21 -20v-91c0 -13 -7 -20 -21 -20h-866c-13 0 -20 7 -21 20v68c0 9 4 16 11 21l700 802h-659c-13 0 -20 7 -21 21v90c0 13 7 20 21 20h839c13 0 20 -7 21 -20z" />
    <glyph glyph-name="braceleft" unicode="{" horiz-adv-x="651" 
d="M551 -299c18 -4 25 -12 22 -23v-59c0 -13 -13 -26 -26 -22c-153 13 -251 66 -295 157c-18 63 -24 128 -19 197c5 70 11 153 20 252c9 98 11 165 7 200c-3 42 -16 75 -41 100c-25 24 -68 45 -129 64c-13 3 -20 10 -20 21v71c0 11 7 18 20 21c120 36 165 79 170 162
c4 35 1 102 -8 201c-9 98 -16 181 -20 250c-5 68 3 135 22 200c36 84 140 143 293 158c13 3 26 -8 26 -19v-63c0 -11 -7 -18 -22 -23c-94 -18 -150 -53 -168 -106c-15 -30 -16 -129 -3 -298s16 -271 11 -306c-5 -103 -48 -174 -127 -213c78 -39 120 -111 127 -215
c5 -42 2 -145 -11 -310c-13 -166 -12 -263 3 -293c22 -51 78 -86 168 -104z" />
    <glyph glyph-name="bar" unicode="|" horiz-adv-x="583" 
d="M328 -410h-72c-13 0 -20 7 -20 21v2007c0 13 7 20 20 20h72c13 0 20 -7 20 -20v-2007c0 -13 -7 -20 -20 -21z" />
    <glyph glyph-name="braceright" unicode="}" horiz-adv-x="649" 
d="M559 680c13 -3 20 -10 21 -21v-71c0 -11 -7 -18 -21 -21c-61 -18 -104 -39 -129 -63c-25 -25 -38 -59 -41 -103c-4 -37 -1 -103 8 -200s15 -180 20 -249c5 -68 -2 -134 -20 -198c-44 -91 -142 -144 -295 -157c-13 -3 -26 9 -26 22v59c-3 11 5 18 22 23
c96 19 144 44 168 104c15 30 17 127 4 292s-17 268 -12 311c7 104 49 176 127 215c-79 41 -122 112 -127 213c-5 35 -1 138 12 307s11 268 -4 297c-17 52 -73 87 -168 106c-15 4 -23 12 -22 23v63c0 11 13 22 26 19c148 -11 256 -70 293 -158c18 -65 25 -132 21 -200
c-4 -69 -10 -152 -19 -249c-9 -98 -12 -165 -8 -200c3 -42 16 -75 41 -99s68 -46 129 -65z" />
    <glyph glyph-name="asciitilde" unicode="~" horiz-adv-x="1234" 
d="M270 496c-7 -11 -15 -14 -24 -11l-51 25c-11 5 -14 14 -11 25c53 115 128 172 224 172c53 0 123 -26 210 -79s151 -79 193 -79c63 0 113 34 152 102c8 11 16 14 24 11l51 -21c11 -5 14 -14 11 -25c-55 -127 -130 -190 -226 -190c-52 0 -122 27 -210 82s-153 82 -195 82
c-55 0 -104 -31 -148 -94z" />
    <glyph glyph-name="exclamdown" unicode="&#xa1;" horiz-adv-x="587" 
d="M208 1072c48 48 122 48 170 0s48 -122 0 -170s-122 -48 -170 0s-48 122 0 170zM248 649h90c13 0 20 -7 20 -20l17 -989c0 -13 -7 -20 -21 -21h-123c-13 0 -20 7 -20 21l16 989c0 13 7 20 21 20z" />
    <glyph glyph-name="cent" unicode="&#xa2;" horiz-adv-x="1087" 
d="M952 406l66 -54c11 -8 12 -17 4 -26c-105 -103 -234 -154 -387 -154c-18 0 -42 1 -72 4l-24 -168c-3 -13 -11 -19 -25 -16l-53 8c-13 0 -19 8 -17 23l27 172c-115 35 -207 100 -277 195c-71 95 -106 204 -106 327c0 151 52 280 156 386c103 106 232 159 387 159h4l24 163
c0 15 8 22 23 19l53 -8c13 -3 19 -10 17 -23l-23 -160c107 -18 200 -68 281 -151c8 -11 7 -20 -4 -29l-66 -51c-9 -9 -19 -9 -29 2c-79 75 -172 113 -278 113c-115 0 -211 -41 -290 -122s-118 -181 -118 -298s39 -217 118 -298s178 -122 298 -122c95 0 190 36 283 109
c9 7 19 7 28 0z" />
    <glyph glyph-name="sterling" unicode="&#xa3;" horiz-adv-x="1331" 
d="M766 1337c-208 0 -326 -122 -326 -362v-254l547 2c13 0 20 -7 21 -21v-53c0 -13 -7 -20 -21 -20l-547 -2v-510h697c13 0 20 -7 20 -21v-76c0 -13 -7 -20 -20 -20l-965 -2c-13 0 -20 7 -20 20v78c0 13 7 20 20 21h135v510h-135c-13 0 -20 7 -20 20v53c0 13 7 20 20 21h135
v264c0 157 40 277 121 358s188 121 322 121c180 0 325 -72 434 -215c7 -8 5 -17 -4 -26l-56 -52c-9 -9 -19 -8 -30 3c-91 107 -183 163 -328 163z" />
    <glyph glyph-name="currency" unicode="&#xa4;" horiz-adv-x="1513" 
d="M1182 336l116 -117c9 -9 9 -19 0 -29l-38 -36c-8 -8 -18 -8 -29 0l-115 116c-98 -79 -216 -119 -354 -118c-139 0 -260 41 -361 122l-120 -120c-11 -8 -21 -8 -31 0l-35 39c-11 8 -11 17 0 26l121 121c-85 100 -127 218 -127 355c0 136 42 255 125 356l-121 120
c-8 11 -8 21 0 31l39 35c8 11 18 11 29 0l120 -121c101 83 218 125 351 125c135 0 253 -43 354 -129l125 127c12 8 22 8 31 0l36 -39c8 -8 8 -18 0 -29l-127 -124c87 -107 131 -230 132 -371c0 -133 -40 -246 -121 -340zM762 274c113 0 210 37 291 111s121 172 121 293
c0 123 -41 226 -123 311s-181 127 -297 127c-113 0 -211 -40 -293 -119c-82 -80 -123 -181 -123 -302c0 -122 41 -223 123 -302s182 -119 301 -119z" />
    <glyph glyph-name="yen" unicode="&#xa5;" horiz-adv-x="1411" 
d="M1331 1403l-551 -729v-2h342c12 0 18 -7 19 -21l2 -45c0 -13 -7 -20 -21 -20h-342v-211h342c12 0 18 -7 19 -21l2 -45c0 -13 -7 -20 -21 -20h-342v-269c0 -13 -7 -20 -20 -20h-109c-13 0 -20 7 -20 20v269h-342c-13 0 -20 7 -21 20v43c0 13 7 20 21 21h342v211h-342
c-13 0 -20 7 -21 20v45c0 13 7 20 21 21h342v12l-551 721c-13 13 -3 31 16 31h137c9 0 17 -4 23 -13l451 -606l448 606c5 8 13 12 23 13h139c19 0 25 -18 14 -31z" />
    <glyph glyph-name="brokenbar" unicode="&#xa6;" horiz-adv-x="581" 
d="M328 766h-74c-13 0 -20 7 -21 20v613c0 13 7 20 21 20h74c13 0 20 -7 20 -20v-613c0 -13 -7 -20 -20 -20zM328 -186h-74c-13 0 -20 7 -21 20v617c0 13 7 20 21 20h74c13 0 20 -7 20 -20v-617c0 -13 -7 -20 -20 -20z" />
    <glyph glyph-name="section" unicode="&#xa7;" horiz-adv-x="1124" 
d="M557 -131c-186 0 -318 55 -395 166c-5 9 -6 19 -2 28l41 56c9 13 19 13 28 0c60 -94 165 -141 316 -142c175 0 270 72 270 197c0 57 -20 99 -60 124c-41 25 -112 50 -214 73c-44 9 -77 17 -100 23s-54 17 -93 32s-69 32 -89 50c-40 35 -79 98 -79 177
c0 112 55 192 166 240c-101 48 -152 120 -151 217c0 87 34 158 103 211s158 80 269 80c123 0 245 -46 367 -137c12 -5 13 -14 4 -27l-33 -57c-8 -9 -17 -11 -28 -4c-103 78 -205 117 -308 116c-153 0 -254 -68 -254 -180c0 -49 30 -87 52 -107c11 -11 31 -21 61 -31
c30 -11 51 -17 64 -20c12 -3 37 -8 75 -16c47 -9 84 -18 113 -25c29 -8 63 -20 103 -36c39 -17 70 -35 92 -54c43 -40 81 -108 81 -192c0 -107 -46 -186 -139 -238c83 -49 125 -123 125 -221c0 -94 -34 -168 -102 -222c-69 -54 -163 -81 -283 -81zM301 664
c0 -49 29 -92 54 -113c12 -11 33 -21 62 -31c29 -11 51 -17 64 -20s37 -8 72 -17c56 -11 105 -21 147 -32c86 30 129 89 129 176c0 59 -21 102 -62 129s-109 50 -204 67l-80 15c-112 -19 -182 -81 -182 -174z" />
    <glyph glyph-name="copyright" unicode="&#xa9;" horiz-adv-x="1300" 
d="M655 616c-139 0 -256 46 -349 139c-93 92 -140 206 -140 343s46 251 139 343s207 138 342 138c138 0 254 -48 347 -145s139 -215 139 -353c0 -137 -45 -248 -136 -335s-205 -130 -342 -130zM655 686c112 0 207 36 286 108c79 71 118 168 118 289c0 123 -40 225 -121 306
s-178 122 -291 122c-111 0 -206 -38 -286 -114c-81 -77 -121 -176 -121 -299s41 -223 122 -298c81 -76 178 -114 293 -114zM657 836c-78 0 -142 25 -191 75c-50 49 -75 112 -75 187s25 137 74 186s111 74 186 74c86 0 151 -36 195 -107c1 -5 0 -10 -4 -14l-56 -18
c-5 -1 -10 1 -14 8c-30 38 -70 57 -121 57c-49 0 -91 -18 -124 -53s-50 -80 -50 -135c0 -53 16 -97 49 -132s76 -53 131 -53c49 0 89 18 119 54c5 5 11 7 17 6l53 -21c5 -3 7 -7 4 -14c-35 -67 -99 -100 -193 -100z" />
    <glyph glyph-name="guillemotleft" unicode="&#xab;" horiz-adv-x="1048" 
d="M109 616l372 273c11 8 25 1 25 -12v-74c0 -12 -3 -22 -10 -29l-283 -209l281 -207c8 -7 12 -16 12 -28v-72c0 -13 -14 -22 -25 -14l-372 270c-8 5 -12 13 -13 23v57c0 9 4 17 13 22zM924 877v-74c0 -12 -4 -22 -13 -29l-282 -207l282 -209c8 -8 12 -17 13 -28v-72
c0 -13 -14 -22 -25 -14l-375 270c-8 7 -12 14 -12 23v57c0 8 4 15 12 22l375 273c11 8 25 1 25 -12z" />
    <glyph glyph-name="logicalnot" unicode="&#xac;" horiz-adv-x="1335" 
d="M1100 727l2 -487c0 -12 -7 -18 -21 -19l-51 -2c-13 0 -20 7 -20 21l-2 413l-848 -2c-13 0 -20 7 -21 21v53c0 13 7 20 21 20l866 3h2h51h2c13 -1 19 -8 19 -21z" />
    <glyph glyph-name="registered" unicode="&#xae;" horiz-adv-x="1300" 
d="M651 1579c137 0 251 -48 344 -145c92 -97 138 -216 138 -355c0 -137 -46 -248 -137 -334c-92 -86 -207 -129 -345 -129s-253 46 -346 139c-93 92 -139 206 -139 343s46 251 139 343s208 138 346 138zM361 801c80 -77 177 -115 290 -115s210 36 289 108
c79 71 119 167 119 287c0 123 -40 225 -121 307s-176 123 -287 123c-113 0 -210 -38 -290 -113c-81 -76 -121 -175 -121 -298s40 -223 121 -299zM752 1059l90 -176c5 -11 3 -16 -8 -17h-54c-7 0 -11 4 -14 11l-86 170h-2h-111v-168c0 -8 -3 -12 -10 -13h-53
c-7 0 -10 4 -10 13v442c0 7 3 10 10 10h174c96 0 162 -59 162 -143c0 -61 -29 -104 -88 -129zM678 1266h-111v-152h111c55 0 90 32 90 76c0 47 -33 76 -90 76z" />
    <glyph glyph-name="degree" unicode="&#xb0;" horiz-adv-x="903" 
d="M640 1087c-51 -51 -114 -77 -189 -77s-138 25 -189 76c-51 50 -76 113 -76 190s25 140 76 191c51 50 114 75 189 75c77 0 140 -25 191 -75c50 -51 75 -114 75 -191c0 -75 -26 -138 -77 -189zM451 1098c51 0 93 17 127 51s51 76 51 127s-17 93 -51 127
c-35 34 -77 51 -127 51c-51 0 -93 -17 -126 -50c-34 -33 -51 -76 -51 -128c0 -51 17 -93 52 -127c34 -34 76 -51 125 -51z" />
    <glyph glyph-name="plusminus" unicode="&#xb1;" horiz-adv-x="1255" 
d="M1106 723l2 -53c0 -13 -7 -20 -21 -21h-411v-299c0 -13 -7 -20 -21 -20h-53c-13 0 -20 6 -20 18v301h-416c-13 0 -20 7 -21 21v51c0 13 7 20 21 20h414v301c0 13 7 20 20 21h53c13 0 20 -7 21 -21v-299h413c13 0 19 -7 19 -20zM197 182l862 -2c13 0 20 -7 20 -20v-54
c0 -13 -7 -20 -20 -20l-862 2c-13 0 -20 7 -21 21v53c0 13 7 20 21 20z" />
    <glyph glyph-name="paragraph" unicode="&#xb6;" horiz-adv-x="1325" 
d="M1090 1358l2 -1575c0 -13 -7 -20 -21 -21h-53c-13 0 -20 7 -21 21l-2 1503l-354 -2v-1501c0 -13 -7 -20 -20 -21h-54c-13 0 -20 7 -20 21v778c-113 0 -210 40 -290 120s-120 177 -120 290c0 112 40 208 120 288c80 79 177 119 290 119h522c14 0 21 -7 21 -20z" />
    <glyph glyph-name="middot" unicode="&#xb7;" horiz-adv-x="632" 
d="M317 473c-34 0 -63 12 -86 36c-24 24 -36 53 -36 87c0 33 12 61 36 85c23 24 52 36 86 36c33 0 61 -12 85 -36s36 -52 36 -85c0 -34 -12 -63 -36 -87s-52 -36 -85 -36z" />
    <glyph glyph-name="guillemotright" unicode="&#xbb;" horiz-adv-x="1048" 
d="M147 889l373 -273c8 -5 12 -13 12 -22v-57c0 -9 -4 -17 -12 -23l-373 -270c-11 -8 -24 1 -24 14v72c0 11 4 20 12 28l281 209l-281 207c-8 7 -12 16 -12 29v74c0 13 13 20 24 12zM563 889l375 -273c8 -5 12 -13 12 -22v-57c0 -9 -4 -17 -12 -23l-375 -270
c-11 -8 -24 1 -24 14v72c0 11 5 20 14 28l281 207l-283 209c-8 8 -12 18 -12 29v74c0 13 13 20 24 12z" />
    <glyph glyph-name="onequarter" unicode="&#xbc;" horiz-adv-x="1736" 
d="M408 1534v-930c0 -19 -10 -29 -29 -29h-70c-19 0 -29 10 -28 29v811l-170 -59c-17 -8 -28 -3 -35 16l-23 66c-7 15 -1 26 17 32l247 89c11 3 18 4 21 4h41c16 0 29 -16 29 -29zM344 -35l830 1565h133l-830 -1565h-133zM1567 369h106c18 0 27 -9 27 -27v-53
c0 -18 -9 -27 -27 -27h-106v-237c0 -18 -9 -27 -27 -27h-61c-19 0 -29 9 -29 27v237h-457c-19 0 -29 9 -28 27v43c0 7 3 17 10 30l477 582c9 13 23 20 41 21h47c18 0 27 -10 27 -29v-567zM1450 762l-320 -393h320v393z" />
    <glyph glyph-name="onehalf" unicode="&#xbd;" horiz-adv-x="1851" 
d="M408 1534v-930c0 -19 -10 -29 -29 -29h-70c-19 0 -29 10 -28 29v811l-170 -59c-17 -8 -28 -3 -35 16l-23 66c-7 15 -1 26 17 32l247 89c11 3 18 4 21 4h41c16 0 29 -16 29 -29zM344 -35l830 1565h133l-830 -1565h-133zM1311 109h458c19 0 29 -10 29 -29v-55
c0 -16 -14 -29 -29 -29h-616c-16 0 -31 12 -31 29v49c0 13 6 24 17 32c15 13 38 35 68 65l76 76c21 21 37 37 48 46c130 121 217 208 262 260c51 57 76 111 76 160c0 104 -81 164 -209 164c-44 0 -84 -9 -120 -26s-61 -33 -75 -47c-15 -15 -32 -34 -53 -59
c-12 -13 -26 -14 -41 -2l-43 39c-9 11 -10 23 -2 37c52 61 103 106 154 133s110 41 178 41c100 0 180 -25 240 -76s90 -120 90 -206c0 -87 -40 -173 -121 -256c-108 -111 -194 -195 -258 -254c-18 -18 -37 -36 -58 -55s-35 -32 -40 -37z" />
    <glyph glyph-name="threequarters" unicode="&#xbe;" horiz-adv-x="1978" 
d="M723 856c0 -90 -31 -162 -94 -215s-146 -80 -250 -80c-150 0 -262 56 -336 168c-13 13 -13 26 2 37l45 39c13 12 27 11 41 -2c56 -83 139 -125 248 -125c145 0 225 63 225 178c0 116 -76 174 -229 174h-37c-16 0 -31 13 -31 29v51c0 19 10 29 31 29h39
c123 0 198 59 198 159c0 99 -72 156 -200 156c-86 0 -159 -35 -219 -104c-12 -12 -24 -13 -35 -4l-45 40c-12 12 -13 25 -4 39c85 97 186 145 305 146c98 0 176 -24 233 -73s86 -113 86 -193c0 -95 -42 -168 -125 -218c101 -47 152 -124 152 -231zM586 -35l829 1565h133
l-829 -1565h-133zM1808 369h107c18 0 27 -9 27 -27v-53c0 -18 -9 -27 -27 -27h-107v-237c0 -18 -9 -27 -26 -27h-62c-19 0 -29 9 -28 27v237h-457c-19 0 -29 9 -29 27v43c0 7 4 17 11 30l477 582c9 13 23 20 41 21h47c18 0 27 -10 26 -29v-567zM1692 762l-320 -393h320v393z
" />
    <glyph glyph-name="questiondown" unicode="&#xbf;" horiz-adv-x="1167" 
d="M612 866c-33 0 -61 12 -84 36c-24 24 -36 52 -36 85c0 34 12 63 36 87c23 24 51 36 84 36c34 0 63 -12 87 -36s36 -53 36 -87c0 -33 -12 -61 -36 -85s-53 -36 -87 -36zM600 -432c-143 0 -259 37 -346 110c-87 74 -131 175 -131 302c0 155 67 265 201 329
c12 5 35 16 69 31s56 25 67 32c10 6 24 17 43 34c36 32 44 72 44 135v90c0 13 7 20 20 20h88c13 0 20 -7 21 -20v-127c0 -81 -21 -141 -63 -180c-43 -40 -109 -78 -199 -115c-49 -21 -88 -48 -115 -81s-41 -82 -41 -146c0 -188 130 -291 338 -291c155 0 280 61 373 182
c11 13 21 14 30 2l60 -59c7 -7 8 -15 4 -25c-109 -149 -264 -223 -463 -223z" />
    <glyph glyph-name="Agrave" unicode="&#xc0;" horiz-adv-x="1458" 
d="M674 1587l-178 322c-8 16 6 35 22 35h98c12 0 20 -6 23 -17l143 -323c8 -19 -3 -31 -22 -31h-64c-11 0 -18 5 -22 14zM807 1417l567 -1390c7 -18 1 -27 -18 -27h-111c-13 0 -21 5 -22 14l-160 389h-657l-170 -389c-4 -9 -12 -14 -23 -14h-115c-13 0 -21 12 -16 27
l612 1390c4 9 12 14 23 15h67c11 0 18 -5 23 -15zM1016 520l-268 692l-291 -692h559z" />
    <glyph glyph-name="Aacute" unicode="&#xc1;" horiz-adv-x="1458" 
d="M807 1573h-66c-16 0 -27 11 -22 31l143 323c5 11 13 16 23 17h98c19 0 31 -16 23 -35l-179 -322c-3 -9 -9 -14 -20 -14zM807 1417l567 -1390c7 -18 1 -27 -18 -27h-111c-13 0 -21 5 -22 14l-160 389h-657l-170 -389c-4 -9 -12 -14 -23 -14h-115c-13 0 -21 12 -16 27
l612 1390c4 9 12 14 23 15h67c11 0 18 -5 23 -15zM1016 520l-268 692l-291 -692h559z" />
    <glyph glyph-name="Acircumflex" unicode="&#xc2;" horiz-adv-x="1458" 
d="M526 1579h-53c-16 0 -24 12 -16 29l231 336c7 9 15 14 25 14h63c13 0 22 -4 27 -12l233 -338c8 -13 0 -29 -16 -29h-53c-15 0 -28 6 -37 18l-185 230l-182 -230c-9 -12 -22 -18 -37 -18zM807 1417l567 -1390c7 -18 1 -27 -18 -27h-111c-13 0 -21 5 -22 14l-160 389h-657
l-170 -389c-4 -9 -12 -14 -23 -14h-115c-13 0 -21 12 -16 27l612 1390c4 9 12 14 23 15h67c11 0 18 -5 23 -15zM1016 520l-268 692l-291 -692h559z" />
    <glyph glyph-name="Atilde" unicode="&#xc3;" horiz-adv-x="1458" 
d="M498 1599l-43 23c-8 4 -11 12 -9 23c34 91 88 137 162 137c38 0 86 -17 144 -50c57 -34 98 -51 122 -51c38 0 70 23 97 68c7 15 15 19 26 12l43 -20c9 -4 13 -11 11 -21c-33 -100 -87 -150 -164 -149c-37 0 -84 18 -143 53s-100 53 -123 53c-35 0 -67 -22 -95 -67
c-7 -13 -16 -17 -28 -11zM807 1417l567 -1390c7 -18 1 -27 -18 -27h-111c-13 0 -21 5 -22 14l-160 389h-657l-170 -389c-4 -9 -12 -14 -23 -14h-115c-13 0 -21 12 -16 27l612 1390c4 9 12 14 23 15h67c11 0 18 -5 23 -15zM1016 520l-268 692l-291 -692h559z" />
    <glyph glyph-name="Adieresis" unicode="&#xc4;" horiz-adv-x="1458" 
d="M561 1587c-85 -2 -132 112 -69 166c38 39 101 39 138 0c18 -19 27 -42 27 -67c0 -55 -44 -99 -96 -99zM1001 1617c-57 -66 -169 -16 -165 69c0 52 44 96 96 96c84 3 133 -108 69 -165zM807 1417l567 -1390c7 -18 1 -27 -18 -27h-111c-13 0 -21 5 -22 14l-160 389h-657
l-170 -389c-4 -9 -12 -14 -23 -14h-115c-13 0 -21 12 -16 27l612 1390c4 9 12 14 23 15h67c11 0 18 -5 23 -15zM1016 520l-268 692l-291 -692h559z" />
    <glyph glyph-name="Aring" unicode="&#xc5;" horiz-adv-x="1458" 
d="M748 1542c-57 0 -105 19 -143 58c-39 38 -58 86 -58 143s19 106 58 145c38 39 86 58 143 58s105 -19 143 -58s57 -87 57 -143c0 -57 -19 -105 -58 -144s-86 -59 -142 -59zM748 1870c-73 0 -125 -54 -125 -125c0 -73 53 -127 125 -127c35 0 65 12 89 35c23 23 35 53 35 90
s-12 67 -35 91c-24 24 -54 36 -89 36zM807 1417l567 -1390c7 -18 1 -27 -18 -27h-111c-13 0 -21 5 -22 14l-160 389h-657l-170 -389c-4 -9 -12 -14 -23 -14h-115c-13 0 -21 12 -16 27l612 1390c4 9 12 14 23 15h67c11 0 18 -5 23 -15zM1016 520l-268 692l-291 -692h559z" />
    <glyph glyph-name="AE" unicode="&#xc6;" horiz-adv-x="1959" 
d="M967 139h874c13 0 20 -7 21 -20v-99c0 -13 -7 -20 -21 -20h-1001c-13 0 -20 7 -21 20v383h-395l-186 -389c-4 -9 -11 -14 -21 -14h-119c-13 0 -21 12 -16 27l672 1392c4 9 11 14 20 15h1057c13 0 20 -7 20 -21v-98c0 -13 -7 -20 -20 -21h-864v-512h735c13 0 20 -7 20 -20
v-78c0 -13 -7 -20 -20 -20h-735v-525zM819 1245l-340 -725h340v725z" />
    <glyph glyph-name="Ccedilla" unicode="&#xc7;" horiz-adv-x="1472" 
d="M823 1315c-159 0 -291 -57 -398 -170s-161 -255 -161 -426c0 -173 55 -317 164 -432s244 -172 403 -172c98 0 176 13 234 38c57 25 122 68 195 130c9 5 17 5 22 0l78 -76c11 -11 11 -20 2 -27c-154 -138 -327 -207 -518 -207h-13l-22 -67c108 -25 162 -79 162 -164
c0 -115 -98 -186 -297 -186c-13 0 -20 7 -21 20v41c0 12 7 19 21 21l18 2c24 0 25 -1 50 2c12 1 21 3 27 4c12 3 41 8 52 15s33 19 40 32s16 34 16 55c0 36 -15 60 -47 76c-17 8 -31 13 -42 16c-12 3 -30 7 -53 13c-13 4 -18 11 -14 20l31 107c-183 22 -333 102 -452 240
c-119 137 -179 303 -179 497c0 209 67 384 201 526c133 142 297 213 491 213c221 0 409 -74 563 -221c9 -7 9 -15 0 -25l-73 -73c-8 -8 -16 -8 -25 0c-113 119 -265 178 -455 178z" />
    <glyph glyph-name="Egrave" unicode="&#xc8;" horiz-adv-x="1335" 
d="M641 1587l-178 322c-8 16 6 35 22 35h99c12 0 19 -6 22 -17l144 -323c8 -19 -4 -31 -23 -31h-63c-11 0 -19 5 -23 14zM344 139h873c13 0 20 -7 20 -20v-99c0 -13 -7 -20 -20 -20h-1002c-13 0 -20 7 -20 20v1393c0 13 7 20 20 21h993c13 0 20 -7 21 -21v-98
c0 -13 -7 -20 -21 -21h-864v-512h733c13 0 20 -7 21 -20v-78c0 -13 -7 -20 -21 -20h-733v-525z" />
    <glyph glyph-name="Eacute" unicode="&#xc9;" horiz-adv-x="1335" 
d="M774 1573h-65c-16 0 -28 11 -23 31l143 323c5 11 13 16 23 17h98c19 0 31 -16 23 -35l-178 -322c-3 -9 -10 -14 -21 -14zM344 139h873c13 0 20 -7 20 -20v-99c0 -13 -7 -20 -20 -20h-1002c-13 0 -20 7 -20 20v1393c0 13 7 20 20 21h993c13 0 20 -7 21 -21v-98
c0 -13 -7 -20 -21 -21h-864v-512h733c13 0 20 -7 21 -20v-78c0 -13 -7 -20 -21 -20h-733v-525z" />
    <glyph glyph-name="Ecircumflex" unicode="&#xca;" horiz-adv-x="1335" 
d="M494 1579h-54c-16 0 -24 12 -16 29l231 336c7 9 15 14 25 14h63c13 0 22 -4 27 -12l234 -338c8 -13 -1 -29 -17 -29h-53c-15 0 -28 6 -37 18l-184 230l-183 -230c-9 -12 -21 -18 -36 -18zM344 139h873c13 0 20 -7 20 -20v-99c0 -13 -7 -20 -20 -20h-1002
c-13 0 -20 7 -20 20v1393c0 13 7 20 20 21h993c13 0 20 -7 21 -21v-98c0 -13 -7 -20 -21 -21h-864v-512h733c13 0 20 -7 21 -20v-78c0 -13 -7 -20 -21 -20h-733v-525z" />
    <glyph glyph-name="Edieresis" unicode="&#xcb;" horiz-adv-x="1335" 
d="M528 1587c-85 -2 -132 112 -69 166c56 65 172 12 166 -67c0 -55 -45 -99 -97 -99zM968 1617c-57 -66 -169 -16 -165 69c0 52 44 96 96 96c84 3 133 -108 69 -165zM344 139h873c13 0 20 -7 20 -20v-99c0 -13 -7 -20 -20 -20h-1002c-13 0 -20 7 -20 20v1393
c0 13 7 20 20 21h993c13 0 20 -7 21 -21v-98c0 -13 -7 -20 -21 -21h-864v-512h733c13 0 20 -7 21 -20v-78c0 -13 -7 -20 -21 -20h-733v-525z" />
    <glyph glyph-name="Igrave" unicode="&#xcc;" horiz-adv-x="538" 
d="M281 1573h-64c-11 0 -18 5 -22 14l-179 322c-8 16 7 35 23 35h98c12 0 20 -6 23 -17l143 -323c8 -19 -3 -31 -22 -31zM324 0h-109c-13 0 -20 7 -20 20v1393c0 13 7 20 20 21h109c13 0 20 -7 20 -21v-1393c0 -13 -7 -20 -20 -20z" />
    <glyph glyph-name="Iacute" unicode="&#xcd;" horiz-adv-x="538" 
d="M328 1573h-66c-16 0 -27 11 -22 31l143 323c5 11 13 16 23 17h98c19 0 30 -16 22 -35l-178 -322c-3 -9 -9 -14 -20 -14zM324 0h-109c-13 0 -20 7 -20 20v1393c0 13 7 20 20 21h109c13 0 20 -7 20 -21v-1393c0 -13 -7 -20 -20 -20z" />
    <glyph glyph-name="Icircumflex" unicode="&#xce;" horiz-adv-x="538" 
d="M324 1946l233 -338c8 -13 0 -29 -16 -29h-54c-15 0 -27 6 -36 18l-185 230l-182 -230c-9 -12 -22 -18 -37 -18h-53c-16 0 -25 12 -17 29l232 336c7 9 15 14 24 14h64c13 0 22 -4 27 -12zM215 1434h109c13 0 20 -7 20 -21v-1393c0 -13 -7 -20 -20 -20h-109
c-13 0 -20 7 -20 20v1393c0 13 7 20 20 21z" />
    <glyph glyph-name="Idieresis" unicode="&#xcf;" horiz-adv-x="538" 
d="M82 1587c-85 -2 -132 112 -69 166c38 39 101 39 138 0c18 -19 27 -42 27 -67c0 -55 -44 -99 -96 -99zM522 1617c-56 -66 -169 -16 -166 69c0 52 45 96 97 96c84 3 133 -108 69 -165zM324 0h-109c-13 0 -20 7 -20 20v1393c0 13 7 20 20 21h109c13 0 20 -7 20 -21v-1393
c0 -13 -7 -20 -20 -20z" />
    <glyph glyph-name="Eth" unicode="&#xd0;" horiz-adv-x="1521" 
d="M215 1434h526c201 0 361 -65 480 -195s178 -304 178 -522c0 -223 -59 -398 -176 -525c-117 -128 -278 -192 -482 -192h-526c-13 0 -20 7 -20 20v639h-172c-13 0 -20 7 -21 21v70c0 13 7 20 21 20h172v643c0 13 7 20 20 21zM344 139h397c161 0 287 51 376 152
s134 241 134 422s-45 324 -135 427s-215 154 -375 154h-397v-522h272c13 0 20 -7 21 -20v-72c0 -13 -7 -20 -21 -21h-272v-520z" />
    <glyph glyph-name="Ntilde" unicode="&#xd1;" horiz-adv-x="1624" 
d="M565 1599l-43 23c-8 4 -11 12 -8 23c34 91 88 137 162 137c38 0 86 -17 143 -50c57 -34 98 -51 123 -51c38 0 70 23 96 68c7 15 16 19 27 12l43 -20c9 -4 13 -11 10 -21c-33 -100 -87 -150 -164 -149c-37 0 -84 18 -143 53s-100 53 -123 53c-35 0 -67 -22 -94 -67
c-7 -13 -16 -17 -29 -11zM1303 1434h106c13 0 20 -7 21 -21v-1393c0 -13 -7 -20 -21 -20h-84c-11 0 -18 3 -22 10l-959 1151v-1141c0 -13 -7 -20 -20 -20h-109c-13 0 -20 7 -20 20v1393c0 13 7 20 20 21h82c11 0 18 -4 22 -11l963 -1151v1141c0 13 7 20 21 21z" />
    <glyph glyph-name="Ograve" unicode="&#xd2;" horiz-adv-x="1701" 
d="M864 1573h-63c-9 0 -17 5 -23 14l-178 322c-8 16 6 35 23 35h98c12 0 19 -6 22 -17l144 -323c8 -19 -3 -31 -23 -31zM1384 174c-132 -133 -309 -199 -532 -199s-400 66 -531 199c-132 133 -198 310 -198 533c0 224 66 404 199 539c132 135 309 202 530 202
c223 0 400 -68 532 -203c131 -135 197 -315 197 -538s-66 -400 -197 -533zM428 275c105 -105 247 -158 424 -158s319 53 424 158s158 249 158 432s-53 328 -158 437s-247 163 -424 163c-176 0 -317 -54 -423 -163s-159 -254 -159 -437s53 -327 158 -432z" />
    <glyph glyph-name="Oacute" unicode="&#xd3;" horiz-adv-x="1701" 
d="M911 1573h-65c-16 0 -28 11 -23 31l144 323c5 11 13 16 22 17h98c19 0 31 -16 23 -35l-178 -322c-3 -9 -10 -14 -21 -14zM1384 174c-132 -133 -309 -199 -532 -199s-400 66 -531 199c-132 133 -198 310 -198 533c0 224 66 404 199 539c132 135 309 202 530 202
c223 0 400 -68 532 -203c131 -135 197 -315 197 -538s-66 -400 -197 -533zM428 275c105 -105 247 -158 424 -158s319 53 424 158s158 249 158 432s-53 328 -158 437s-247 163 -424 163c-176 0 -317 -54 -423 -163s-159 -254 -159 -437s53 -327 158 -432z" />
    <glyph glyph-name="Ocircumflex" unicode="&#xd4;" horiz-adv-x="1701" 
d="M631 1579h-53c-16 0 -25 12 -17 29l232 336c7 9 15 14 24 14h64c13 0 22 -4 26 -12l234 -338c8 -13 0 -29 -17 -29h-53c-15 0 -28 6 -37 18l-184 230l-182 -230c-9 -12 -22 -18 -37 -18zM852 1448c223 0 400 -68 532 -203c131 -135 197 -315 197 -538s-66 -400 -197 -533
c-132 -133 -309 -199 -532 -199s-400 66 -531 199c-132 133 -198 310 -198 533c0 224 66 404 199 539c132 135 309 202 530 202zM428 275c105 -105 247 -158 424 -158s319 53 424 158s158 249 158 432s-53 328 -158 437s-247 163 -424 163c-176 0 -317 -54 -423 -163
s-159 -254 -159 -437s53 -327 158 -432z" />
    <glyph glyph-name="Otilde" unicode="&#xd5;" horiz-adv-x="1701" 
d="M631 1610c-7 -13 -16 -17 -29 -11l-43 23c-8 4 -11 12 -8 23c34 91 88 137 162 137c38 0 86 -17 143 -50c57 -34 98 -51 123 -51c38 0 70 23 96 68c7 15 16 19 27 12l43 -20c9 -4 13 -11 10 -21c-33 -100 -87 -150 -164 -149c-37 0 -84 18 -143 53s-100 53 -123 53
c-35 1 -67 -22 -94 -67zM1384 174c-132 -133 -309 -199 -532 -199s-400 66 -531 199c-132 133 -198 310 -198 533c0 224 66 404 199 539c132 135 309 202 530 202c223 0 400 -68 532 -203c131 -135 197 -315 197 -538s-66 -400 -197 -533zM428 275
c105 -105 247 -158 424 -158s319 53 424 158s158 249 158 432s-53 328 -158 437s-247 163 -424 163c-176 0 -317 -54 -423 -163s-159 -254 -159 -437s53 -327 158 -432z" />
    <glyph glyph-name="Odieresis" unicode="&#xd6;" horiz-adv-x="1701" 
d="M734 1616c-38 -39 -97 -39 -137 1c-20 20 -30 43 -30 69c0 51 44 96 99 96c52 0 96 -45 96 -96c0 -27 -9 -51 -28 -70zM1036 1587c-52 0 -96 44 -96 99c-6 81 108 131 166 67c39 -39 39 -96 0 -136c-19 -20 -43 -30 -70 -30zM1384 174c-132 -133 -309 -199 -532 -199
s-400 66 -531 199c-132 133 -198 310 -198 533c0 224 66 404 199 539c132 135 309 202 530 202c223 0 400 -68 532 -203c131 -135 197 -315 197 -538s-66 -400 -197 -533zM428 275c105 -105 247 -158 424 -158s319 53 424 158s158 249 158 432s-53 328 -158 437
s-247 163 -424 163c-176 0 -317 -54 -423 -163s-159 -254 -159 -437s53 -327 158 -432z" />
    <glyph glyph-name="multiply" unicode="&#xd7;" horiz-adv-x="1054" 
d="M594 684l309 -309c9 -7 9 -16 0 -29l-37 -37c-9 -9 -19 -9 -28 0l-310 309l-309 -311c-9 -8 -19 -7 -29 2l-36 37c-8 5 -9 24 -2 29l309 309l-309 309c-9 9 -9 19 0 29l36 37c9 9 20 9 31 0l307 -307l310 309c11 11 21 11 30 0l37 -37c9 -9 9 -20 0 -31z" />
    <glyph glyph-name="Oslash" unicode="&#xd8;" horiz-adv-x="1701" 
d="M1321 1493l-76 -141c107 -61 189 -148 248 -259s88 -240 88 -386c0 -223 -66 -400 -197 -533c-132 -133 -309 -199 -532 -199c-112 0 -215 18 -309 54l-54 -101h-110l76 144c-211 120 -332 344 -332 635c0 224 66 404 199 539c132 135 309 202 530 202
c112 0 213 -18 303 -53l53 98h113zM270 707c0 -236 84 -405 252 -506l565 1065c-71 27 -149 41 -235 41c-176 0 -317 -54 -423 -163s-159 -254 -159 -437zM852 117c177 0 319 53 424 158s158 249 158 432c0 235 -93 417 -256 516l-568 -1065c74 -27 155 -41 242 -41z" />
    <glyph glyph-name="Ugrave" unicode="&#xd9;" horiz-adv-x="1478" 
d="M752 1559h-64c-11 0 -18 5 -22 14l-179 321c-8 16 7 35 23 35h98c12 0 20 -5 23 -16l143 -324c8 -19 -3 -30 -22 -30zM739 -23c-179 0 -319 60 -420 179c-102 119 -153 281 -153 487v770c0 13 7 20 20 21h107c13 0 20 -7 20 -21v-770c0 -165 37 -293 112 -383
s180 -135 315 -135s239 45 313 135c73 90 110 218 110 383v770c0 13 7 20 21 21h108c13 0 20 -7 21 -21v-770c0 -206 -51 -368 -154 -487s-243 -179 -420 -179z" />
    <glyph glyph-name="Uacute" unicode="&#xda;" horiz-adv-x="1478" 
d="M799 1559h-66c-16 0 -27 14 -22 30l143 324c5 11 13 16 23 16h98c19 0 31 -15 22 -35l-178 -321c-3 -9 -9 -14 -20 -14zM739 -23c-179 0 -319 60 -420 179c-102 119 -153 281 -153 487v770c0 13 7 20 20 21h107c13 0 20 -7 20 -21v-770c0 -165 37 -293 112 -383
s180 -135 315 -135s239 45 313 135c73 90 110 218 110 383v770c0 13 7 20 21 21h108c13 0 20 -7 21 -21v-770c0 -206 -51 -368 -154 -487s-243 -179 -420 -179z" />
    <glyph glyph-name="Ucircumflex" unicode="&#xdb;" horiz-adv-x="1478" 
d="M518 1565h-53c-16 0 -25 12 -16 28l231 336c7 9 15 14 25 15h63c13 0 22 -4 27 -13l233 -338c8 -13 0 -28 -16 -28h-54c-15 0 -27 6 -36 18l-185 229l-182 -229c-9 -12 -22 -18 -37 -18zM1184 1434h108c13 0 20 -7 21 -21v-770c0 -206 -51 -368 -153 -487
c-103 -119 -243 -179 -421 -179c-179 0 -319 60 -420 179c-102 119 -153 281 -153 487v770c0 13 7 20 20 21h107c13 0 20 -7 20 -21v-770c0 -165 37 -293 112 -383s180 -135 315 -135s239 45 313 135c73 90 110 218 110 383v770c0 13 7 20 21 21z" />
    <glyph glyph-name="Udieresis" unicode="&#xdc;" horiz-adv-x="1478" 
d="M553 1573c-55 0 -98 43 -98 98c-6 81 112 130 167 69c61 -55 12 -173 -69 -167zM993 1602c-56 -63 -169 -16 -166 69c0 55 45 96 97 96c55 0 98 -44 98 -96c0 -27 -10 -50 -29 -69zM739 -23c-179 0 -319 60 -420 179c-102 119 -153 281 -153 487v770c0 13 7 20 20 21h107
c13 0 20 -7 20 -21v-770c0 -165 37 -293 112 -383s180 -135 315 -135s239 45 313 135c73 90 110 218 110 383v770c0 13 7 20 21 21h108c13 0 20 -7 21 -21v-770c0 -206 -51 -368 -154 -487s-243 -179 -420 -179z" />
    <glyph glyph-name="Yacute" unicode="&#xdd;" horiz-adv-x="1411" 
d="M768 1573h-66c-16 0 -27 11 -22 31l143 323c5 11 13 16 23 17h98c19 0 31 -16 23 -35l-179 -322c-3 -9 -9 -14 -20 -14zM1194 1434h123c19 0 25 -18 14 -31l-551 -729v-654c0 -13 -7 -20 -20 -20h-107c-13 0 -20 7 -20 20v658l-553 725c-13 13 -3 31 16 31h121
c13 0 22 -5 27 -15l465 -614l458 614c5 9 14 14 27 15z" />
    <glyph glyph-name="Thorn" unicode="&#xde;" horiz-adv-x="1341" 
d="M346 1135h410c146 0 263 -38 351 -114s132 -177 132 -302c0 -126 -44 -227 -133 -304s-205 -116 -350 -116h-410v-279c0 -13 -7 -20 -20 -20h-111c-13 0 -20 7 -20 20v1393c0 13 7 20 20 21h111c13 0 20 -7 20 -21v-278zM346 430h410c104 0 187 27 248 81s92 124 92 210
c0 85 -31 154 -92 208c-62 54 -145 81 -248 81h-410v-580z" />
    <glyph glyph-name="germandbls" unicode="&#xdf;" horiz-adv-x="1329" 
d="M870 -25c-159 0 -291 59 -348 152c-7 7 -7 15 -2 25l45 65c8 11 16 12 25 4c67 -85 157 -127 270 -127c165 0 248 64 248 191c0 68 -22 117 -81 150c-29 16 -56 28 -79 36s-57 18 -102 31c-37 9 -67 19 -91 28s-51 22 -80 39c-59 34 -87 87 -87 160
c-2 147 142 183 251 222c75 27 136 82 136 171c0 73 -32 127 -95 164c-64 37 -142 55 -235 55c-107 0 -183 -28 -230 -83c-47 -56 -71 -152 -71 -287v-951c0 -13 -7 -20 -20 -20h-109c-13 0 -20 7 -20 20v965c0 329 147 494 440 494c130 0 242 -30 335 -90
c93 -61 140 -151 140 -271s-61 -205 -136 -244c-37 -20 -74 -37 -111 -50c-74 -28 -136 -57 -136 -101c0 -38 57 -73 170 -105c12 -4 21 -7 27 -8c84 -24 139 -45 211 -94c71 -49 110 -129 110 -229c0 -94 -34 -169 -101 -226c-68 -57 -159 -86 -274 -86z" />
    <glyph glyph-name="agrave" unicode="&#xe0;" horiz-adv-x="1353" 
d="M596 1212l-178 322c-8 16 6 35 22 35h99c12 0 19 -6 22 -17l144 -323c8 -19 -4 -31 -23 -31h-64c-11 0 -18 5 -22 14zM1092 1042h86c13 0 20 -7 20 -20v-1002c0 -13 -7 -20 -20 -20h-86c-9 0 -16 7 -21 20l-14 179c-96 -136 -251 -224 -434 -224c-151 0 -278 51 -380 154
s-153 233 -153 392c0 158 51 289 153 392c101 103 224 154 369 154c91 0 176 -22 254 -65c78 -44 142 -103 193 -177l12 197c3 13 10 20 21 20zM649 100c113 0 210 37 289 110s119 170 119 292c0 124 -40 228 -121 313s-180 127 -297 127c-112 0 -207 -40 -285 -120
c-79 -80 -118 -181 -118 -302s40 -222 119 -301s177 -119 294 -119z" />
    <glyph glyph-name="aacute" unicode="&#xe1;" horiz-adv-x="1353" 
d="M729 1198h-65c-16 0 -28 15 -23 31l143 323c5 11 13 16 23 17h98c19 0 31 -16 23 -35l-178 -322c-3 -9 -10 -14 -21 -14zM1092 1042h86c13 0 20 -7 20 -20v-1002c0 -13 -7 -20 -20 -20h-86c-9 0 -16 7 -21 20l-14 179c-96 -136 -251 -224 -434 -224
c-151 0 -278 51 -380 154s-153 233 -153 392c0 158 51 289 153 392c101 103 224 154 369 154c91 0 176 -22 254 -65c78 -44 142 -103 193 -177l12 197c3 13 10 20 21 20zM649 100c113 0 210 37 289 110s119 170 119 292c0 124 -40 228 -121 313s-180 127 -297 127
c-112 0 -207 -40 -285 -120c-79 -80 -118 -181 -118 -302s40 -222 119 -301s177 -119 294 -119z" />
    <glyph glyph-name="acircumflex" unicode="&#xe2;" horiz-adv-x="1353" 
d="M449 1204h-54c-16 0 -24 13 -16 29l231 336c7 9 15 14 25 14h63c13 0 22 -4 27 -12l233 -338c8 -13 0 -29 -16 -29h-53c-15 0 -28 6 -37 19l-184 229l-183 -229c-9 -12 -21 -18 -36 -19zM1092 1042h86c13 0 20 -7 20 -20v-1002c0 -13 -7 -20 -20 -20h-86
c-9 0 -16 7 -21 20l-14 179c-96 -136 -251 -224 -434 -224c-151 0 -278 51 -380 154s-153 233 -153 392c0 158 51 289 153 392c101 103 224 154 369 154c91 0 176 -22 254 -65c78 -44 142 -103 193 -177l12 197c3 13 10 20 21 20zM649 100c113 0 210 37 289 110
s119 170 119 292c0 124 -40 228 -121 313s-180 127 -297 127c-112 0 -207 -40 -285 -120c-79 -80 -118 -181 -118 -302s40 -222 119 -301s177 -119 294 -119z" />
    <glyph glyph-name="atilde" unicode="&#xe3;" horiz-adv-x="1353" 
d="M420 1225l-43 22c-8 4 -11 12 -8 23c34 91 88 137 161 137c38 0 86 -17 144 -50c57 -33 98 -50 123 -50c38 0 70 22 96 67c7 15 16 19 27 12l43 -20c9 -4 13 -11 10 -20c-33 -100 -87 -150 -164 -150c-37 0 -84 18 -143 54c-59 35 -100 53 -123 53c-35 0 -67 -23 -94 -68
c-7 -13 -16 -17 -29 -10zM1092 1042h86c13 0 20 -7 20 -20v-1002c0 -13 -7 -20 -20 -20h-86c-9 0 -16 7 -21 20l-14 179c-96 -136 -251 -224 -434 -224c-151 0 -278 51 -380 154s-153 233 -153 392c0 158 51 289 153 392c101 103 224 154 369 154c91 0 176 -22 254 -65
c78 -44 142 -103 193 -177l12 197c3 13 10 20 21 20zM649 100c113 0 210 37 289 110s119 170 119 292c0 124 -40 228 -121 313s-180 127 -297 127c-112 0 -207 -40 -285 -120c-79 -80 -118 -181 -118 -302s40 -222 119 -301s177 -119 294 -119z" />
    <glyph glyph-name="adieresis" unicode="&#xe4;" horiz-adv-x="1353" 
d="M483 1212c-55 0 -98 44 -98 99c-6 81 112 130 167 69c62 -54 12 -174 -69 -168zM923 1241c-57 -64 -169 -15 -165 70c0 55 44 96 96 96c55 0 98 -44 98 -96c0 -27 -10 -51 -29 -70zM1092 1042h86c13 0 20 -7 20 -20v-1002c0 -13 -7 -20 -20 -20h-86c-9 0 -16 7 -21 20
l-14 179c-96 -136 -251 -224 -434 -224c-151 0 -278 51 -380 154s-153 233 -153 392c0 158 51 289 153 392c101 103 224 154 369 154c91 0 176 -22 254 -65c78 -44 142 -103 193 -177l12 197c3 13 10 20 21 20zM649 100c113 0 210 37 289 110s119 170 119 292
c0 124 -40 228 -121 313s-180 127 -297 127c-112 0 -207 -40 -285 -120c-79 -80 -118 -181 -118 -302s40 -222 119 -301s177 -119 294 -119z" />
    <glyph glyph-name="aring" unicode="&#xe5;" horiz-adv-x="1353" 
d="M670 1167c-57 0 -105 19 -143 58c-39 38 -58 86 -58 143s19 106 58 145c38 39 86 58 143 58s105 -19 143 -58s57 -87 57 -143c0 -59 -19 -107 -58 -145c-39 -39 -86 -58 -142 -58zM670 1495c-73 0 -125 -54 -125 -125c0 -73 53 -127 125 -127c35 0 65 12 89 35
s36 53 36 90s-12 67 -36 91s-54 36 -89 36zM1092 1042h86c13 0 20 -7 20 -20v-1002c0 -13 -7 -20 -20 -20h-86c-9 0 -16 7 -21 20l-14 179c-96 -136 -251 -224 -434 -224c-151 0 -278 51 -380 154s-153 233 -153 392c0 158 51 289 153 392c101 103 224 154 369 154
c91 0 176 -22 254 -65c78 -44 142 -103 193 -177l12 197c3 13 10 20 21 20zM649 100c113 0 210 37 289 110s119 170 119 292c0 124 -40 228 -121 313s-180 127 -297 127c-112 0 -207 -40 -285 -120c-79 -80 -118 -181 -118 -302s40 -222 119 -301s177 -119 294 -119z" />
    <glyph glyph-name="ae" unicode="&#xe6;" horiz-adv-x="2224" 
d="M1624 1067c146 0 268 -51 366 -153c97 -103 146 -233 146 -390v-37c-1 -12 -9 -18 -22 -18h-871c8 -112 50 -201 126 -268s172 -101 288 -101c153 0 276 67 371 201c9 11 19 11 28 2l58 -57c9 -9 9 -20 0 -33c-49 -74 -115 -132 -198 -174c-83 -43 -172 -64 -269 -64
c-191 0 -353 87 -449 230v-185c0 -13 -7 -20 -20 -20h-86c-9 0 -16 7 -21 20l-14 179c-96 -136 -251 -224 -434 -224c-151 0 -278 51 -380 154s-153 233 -153 392c0 158 51 289 153 392c101 103 224 154 369 154c91 0 176 -22 254 -65c78 -44 142 -103 193 -177l12 197
c3 13 10 20 21 20h86c13 0 20 -7 20 -20v-184c93 141 246 229 426 229zM649 100c113 0 210 37 289 110s119 170 119 292c0 124 -40 228 -121 313s-180 127 -297 127c-112 0 -207 -40 -285 -120c-79 -80 -118 -181 -118 -302s40 -222 119 -301s177 -119 294 -119zM1889 844
c-70 65 -157 98 -260 98c-104 0 -192 -33 -264 -98c-72 -66 -113 -153 -124 -260h764c-8 108 -47 195 -116 260z" />
    <glyph glyph-name="ccedilla" unicode="&#xe7;" horiz-adv-x="1087" 
d="M1022 129c-105 -103 -234 -154 -385 -154l-23 -67c108 -25 162 -79 162 -164c0 -115 -97 -186 -297 -186c-13 0 -20 7 -20 20v41c0 12 7 19 20 21h19c24 3 24 1 49 4c12 1 21 3 28 4c12 3 40 8 52 15c11 7 33 19 40 32s15 34 15 55c0 36 -15 60 -47 76
c-33 16 -49 17 -94 29c-13 4 -18 11 -15 20l31 105c-138 18 -251 78 -338 180s-131 223 -131 362c0 151 52 280 156 386c103 106 232 159 387 159c146 0 272 -53 379 -160c9 -11 8 -21 -4 -30l-66 -52c-9 -8 -19 -7 -29 2c-82 77 -175 115 -278 115
c-115 0 -211 -41 -290 -122s-118 -181 -118 -300c0 -117 39 -217 118 -298s178 -122 298 -122c39 0 75 8 104 13c28 5 62 22 80 31c18 8 50 28 59 35c5 3 12 9 23 18l17 12c9 7 19 7 28 0l66 -51c11 -9 12 -18 4 -29z" />
    <glyph glyph-name="egrave" unicode="&#xe8;" horiz-adv-x="1208" 
d="M539 1212l-179 322c-8 16 7 35 23 35h98c12 0 20 -6 23 -17l143 -323c8 -19 -3 -31 -22 -31h-64c-11 0 -18 5 -22 14zM608 1067c146 0 268 -51 366 -153c97 -103 146 -233 146 -390v-37c-1 -12 -9 -18 -22 -18h-871c8 -112 50 -201 126 -268s172 -101 288 -101
c153 0 276 67 371 201c9 11 19 11 28 2l58 -57c9 -9 9 -20 0 -33c-49 -74 -115 -132 -198 -174c-83 -43 -172 -64 -269 -64c-155 0 -284 52 -387 155s-154 233 -154 388c0 154 49 284 147 390c97 106 221 159 371 159zM873 844c-70 65 -157 98 -260 98
c-104 0 -192 -33 -263 -98c-72 -66 -114 -153 -125 -260h764c-8 108 -47 195 -116 260z" />
    <glyph glyph-name="eacute" unicode="&#xe9;" horiz-adv-x="1208" 
d="M672 1198h-66c-16 0 -27 15 -22 31l143 323c5 11 13 16 23 17h98c19 0 31 -16 22 -35l-178 -322c-3 -9 -9 -14 -20 -14zM608 1067c146 0 268 -51 366 -153c97 -103 146 -233 146 -390v-37c-1 -12 -9 -18 -22 -18h-871c8 -112 50 -201 126 -268s172 -101 288 -101
c153 0 276 67 371 201c9 11 19 11 28 2l58 -57c9 -9 9 -20 0 -33c-49 -74 -115 -132 -198 -174c-83 -43 -172 -64 -269 -64c-155 0 -284 52 -387 155s-154 233 -154 388c0 154 49 284 147 390c97 106 221 159 371 159zM873 844c-70 65 -157 98 -260 98
c-104 0 -192 -33 -263 -98c-72 -66 -114 -153 -125 -260h764c-8 108 -47 195 -116 260z" />
    <glyph glyph-name="ecircumflex" unicode="&#xea;" horiz-adv-x="1208" 
d="M391 1204h-53c-16 0 -25 13 -16 29l231 336c7 9 15 14 25 14h63c13 0 22 -4 27 -12l233 -338c8 -13 0 -29 -16 -29h-54c-15 0 -27 6 -36 19l-185 229l-182 -229c-9 -12 -22 -18 -37 -19zM608 1067c146 0 268 -51 366 -153c97 -103 146 -233 146 -390v-37
c-1 -12 -9 -18 -22 -18h-871c8 -112 50 -201 126 -268s172 -101 288 -101c153 0 276 67 371 201c9 11 19 11 28 2l58 -57c9 -9 9 -20 0 -33c-49 -74 -115 -132 -198 -174c-83 -43 -172 -64 -269 -64c-155 0 -284 52 -387 155s-154 233 -154 388c0 154 49 284 147 390
c97 106 221 159 371 159zM873 844c-70 65 -157 98 -260 98c-104 0 -192 -33 -263 -98c-72 -66 -114 -153 -125 -260h764c-8 108 -47 195 -116 260z" />
    <glyph glyph-name="edieresis" unicode="&#xeb;" horiz-adv-x="1208" 
d="M426 1212c-55 0 -98 44 -98 99c-6 81 112 130 167 69c61 -54 12 -174 -69 -168zM866 1241c-56 -64 -169 -15 -166 70c0 55 45 96 97 96c55 0 98 -44 98 -96c0 -27 -10 -51 -29 -70zM608 1067c146 0 268 -51 366 -153c97 -103 146 -233 146 -390v-37
c-1 -12 -9 -18 -22 -18h-871c8 -112 50 -201 126 -268s172 -101 288 -101c153 0 276 67 371 201c9 11 19 11 28 2l58 -57c9 -9 9 -20 0 -33c-49 -74 -115 -132 -198 -174c-83 -43 -172 -64 -269 -64c-155 0 -284 52 -387 155s-154 233 -154 388c0 154 49 284 147 390
c97 106 221 159 371 159zM873 844c-70 65 -157 98 -260 98c-104 0 -192 -33 -263 -98c-72 -66 -114 -153 -125 -260h764c-8 108 -47 195 -116 260z" />
    <glyph glyph-name="igrave" unicode="&#xec;" horiz-adv-x="460" 
d="M244 1198h-64c-11 0 -18 5 -22 14l-178 322c-8 16 6 35 22 35h98c12 0 20 -6 23 -17l143 -323c8 -19 -3 -31 -22 -31zM285 0h-109c-13 0 -20 7 -20 20v1002c0 13 7 20 20 20h109c13 0 20 -7 20 -20v-1002c0 -13 -7 -20 -20 -20z" />
    <glyph glyph-name="iacute" unicode="&#xed;" horiz-adv-x="460" 
d="M291 1198h-66c-16 0 -27 15 -22 31l143 323c5 11 13 16 23 17h98c19 0 31 -16 22 -35l-178 -322c-3 -9 -9 -14 -20 -14zM285 0h-109c-13 0 -20 7 -20 20v1002c0 13 7 20 20 20h109c13 0 20 -7 20 -20v-1002c0 -13 -7 -20 -20 -20z" />
    <glyph glyph-name="icircumflex" unicode="&#xee;" horiz-adv-x="460" 
d="M287 1571l233 -338c8 -13 0 -29 -16 -29h-53c-15 0 -28 6 -37 19l-185 229l-182 -229c-9 -12 -22 -18 -37 -19h-53c-16 0 -25 13 -16 29l231 336c7 9 15 14 25 14h63c13 0 22 -4 27 -12zM176 1042h109c13 0 20 -7 20 -20v-1002c0 -13 -7 -20 -20 -20h-109
c-13 0 -20 7 -20 20v1002c0 13 7 20 20 20z" />
    <glyph glyph-name="idieresis" unicode="&#xef;" horiz-adv-x="460" 
d="M45 1212c-55 0 -98 44 -98 99c-6 81 113 130 167 69c61 -54 12 -174 -69 -168zM485 1241c-56 -64 -169 -15 -166 70c0 55 45 96 97 96c55 0 98 -44 98 -96c0 -27 -10 -51 -29 -70zM285 0h-109c-13 0 -20 7 -20 20v1002c0 13 7 20 20 20h109c13 0 20 -7 20 -20v-1002
c0 -13 -7 -20 -20 -20z" />
    <glyph glyph-name="eth" unicode="&#xf0;" horiz-adv-x="1269" 
d="M797 1401l303 -592c55 -89 82 -188 82 -297c0 -154 -52 -282 -156 -384s-234 -153 -389 -153c-157 0 -288 52 -392 156c-105 104 -157 234 -157 390c0 155 52 285 156 390c103 104 233 156 389 156c81 0 156 -16 225 -47l-166 323l-203 -114c-13 -5 -22 -3 -26 8l-21 37
c-7 11 -4 19 9 26l204 115l-71 141c-7 12 -4 22 8 29l67 37c12 8 22 5 29 -8l72 -141l225 124c12 4 21 1 27 -8l20 -35c5 -12 2 -21 -10 -26zM637 100c113 0 209 39 288 116c78 77 117 176 117 296c0 123 -39 225 -118 307s-176 123 -291 123c-113 0 -209 -40 -288 -120
s-118 -181 -118 -302s40 -222 119 -301s176 -119 291 -119z" />
    <glyph glyph-name="ntilde" unicode="&#xf1;" horiz-adv-x="1255" 
d="M385 1225l-43 22c-8 4 -11 12 -8 23c34 91 88 137 162 137c38 0 86 -17 143 -50s98 -50 123 -50c38 0 70 22 96 67c7 15 16 19 27 12l43 -20c9 -4 13 -11 10 -20c-33 -100 -87 -150 -164 -150c-37 0 -84 18 -143 54c-59 35 -100 53 -123 53c-35 0 -67 -23 -94 -68
c-7 -13 -16 -17 -29 -10zM705 1067c130 0 232 -42 306 -127s111 -208 111 -369v-551c0 -13 -7 -20 -20 -20h-107c-13 0 -20 7 -20 20v551c0 117 -28 209 -83 274s-131 97 -228 97s-178 -32 -243 -97s-104 -159 -118 -282v-543c0 -13 -7 -20 -20 -20h-107c-13 0 -20 7 -20 20
v1002c0 13 7 20 20 20h86c11 0 18 -7 21 -20l10 -180c95 150 232 225 412 225z" />
    <glyph glyph-name="ograve" unicode="&#xf2;" horiz-adv-x="1269" 
d="M647 1198h-63c-9 0 -17 5 -23 14l-178 322c-8 16 6 35 23 35h98c12 0 19 -6 22 -17l144 -323c8 -19 -3 -31 -23 -31zM635 -25c-157 0 -288 52 -391 157c-104 105 -156 235 -156 390c0 154 52 283 157 388c104 105 234 157 390 157c155 0 285 -52 390 -156
c105 -105 157 -234 157 -389s-52 -285 -157 -390s-235 -157 -390 -157zM635 100c113 0 209 40 288 120c78 80 117 181 117 302c0 120 -39 220 -117 300c-79 80 -175 120 -288 120c-115 0 -211 -39 -289 -118s-117 -180 -117 -302c0 -123 39 -224 117 -303s174 -119 289 -119
z" />
    <glyph glyph-name="oacute" unicode="&#xf3;" horiz-adv-x="1269" 
d="M694 1198h-65c-16 0 -28 15 -23 31l144 323c5 11 13 16 22 17h98c19 0 31 -16 23 -35l-178 -322c-3 -9 -10 -14 -21 -14zM635 -25c-157 0 -288 52 -391 157c-104 105 -156 235 -156 390c0 154 52 283 157 388c104 105 234 157 390 157c155 0 285 -52 390 -156
c105 -105 157 -234 157 -389s-52 -285 -157 -390s-235 -157 -390 -157zM635 100c113 0 209 40 288 120c78 80 117 181 117 302c0 120 -39 220 -117 300c-79 80 -175 120 -288 120c-115 0 -211 -39 -289 -118s-117 -180 -117 -302c0 -123 39 -224 117 -303s174 -119 289 -119
z" />
    <glyph glyph-name="ocircumflex" unicode="&#xf4;" horiz-adv-x="1269" 
d="M414 1204h-54c-16 0 -24 13 -16 29l231 336c7 9 15 14 25 14h64c13 0 22 -4 26 -12l234 -338c8 -13 0 -29 -17 -29h-53c-15 0 -28 6 -37 19l-184 229l-182 -229c-9 -12 -22 -18 -37 -19zM245 910c104 105 234 157 390 157c155 0 285 -52 390 -156
c105 -105 157 -234 157 -389s-52 -285 -157 -390s-235 -157 -390 -157c-157 0 -288 52 -391 157c-104 105 -156 235 -156 390c0 154 52 283 157 388zM635 100c113 0 209 40 288 120c78 80 117 181 117 302c0 120 -39 220 -117 300c-79 80 -175 120 -288 120
c-115 0 -211 -39 -289 -118s-117 -180 -117 -302c0 -123 39 -224 117 -303s174 -119 289 -119z" />
    <glyph glyph-name="otilde" unicode="&#xf5;" horiz-adv-x="1269" 
d="M414 1235c-7 -13 -16 -17 -29 -10l-43 22c-8 4 -11 12 -8 23c34 91 88 137 162 137c38 0 86 -17 143 -50s98 -50 123 -50c38 0 70 22 96 67c7 15 16 19 27 12l43 -20c9 -4 13 -11 10 -20c-33 -100 -87 -150 -164 -150c-37 0 -84 18 -143 54c-59 35 -100 53 -123 53
c-35 0 -67 -23 -94 -68zM635 -25c-157 0 -288 52 -391 157c-104 105 -156 235 -156 390c0 154 52 283 157 388c104 105 234 157 390 157c155 0 285 -52 390 -156c105 -105 157 -234 157 -389s-52 -285 -157 -390s-235 -157 -390 -157zM635 100c113 0 209 40 288 120
c78 80 117 181 117 302c0 120 -39 220 -117 300c-79 80 -175 120 -288 120c-115 0 -211 -39 -289 -118s-117 -180 -117 -302c0 -123 39 -224 117 -303s174 -119 289 -119z" />
    <glyph glyph-name="odieresis" unicode="&#xf6;" horiz-adv-x="1269" 
d="M516 1241c-39 -39 -96 -39 -136 0c-20 19 -30 43 -30 70c0 52 44 96 99 96c81 6 131 -108 67 -166zM819 1212c-81 -6 -130 114 -68 168c53 61 173 12 167 -69c0 -55 -44 -99 -99 -99zM635 -25c-157 0 -288 52 -391 157c-104 105 -156 235 -156 390c0 154 52 283 157 388
c104 105 234 157 390 157c155 0 285 -52 390 -156c105 -105 157 -234 157 -389s-52 -285 -157 -390s-235 -157 -390 -157zM635 100c113 0 209 40 288 120c78 80 117 181 117 302c0 120 -39 220 -117 300c-79 80 -175 120 -288 120c-115 0 -211 -39 -289 -118
s-117 -180 -117 -302c0 -123 39 -224 117 -303s174 -119 289 -119z" />
    <glyph glyph-name="divide" unicode="&#xf7;" horiz-adv-x="1230" 
d="M612 940c-34 0 -64 13 -90 39s-39 57 -39 92s13 66 38 92s56 39 92 39c35 0 66 -13 92 -39c25 -26 38 -57 38 -92s-13 -66 -39 -92s-57 -39 -92 -39zM1073 649h-921c-13 0 -20 7 -21 21v51c0 13 7 20 21 20l921 2c12 0 18 -7 19 -20l2 -53c0 -13 -7 -20 -21 -21zM705 231
c-26 -25 -57 -38 -92 -38c-36 0 -67 13 -92 38s-38 55 -38 91c0 35 13 66 38 92s56 39 92 39c35 0 66 -13 92 -39c25 -26 38 -57 38 -92c0 -36 -13 -66 -38 -91z" />
    <glyph glyph-name="oslash" unicode="&#xf8;" horiz-adv-x="1269" 
d="M1104 1298l-168 -315c153 -99 246 -266 246 -461c0 -155 -52 -285 -157 -390s-235 -157 -390 -157c-73 0 -144 13 -213 39l-150 -280h-110l172 325c-153 99 -246 267 -246 463c0 154 52 283 157 388c104 105 234 157 390 157c73 0 144 -13 213 -39l143 270h113zM229 522
c0 -150 56 -265 168 -346l389 737c-49 19 -100 29 -151 29c-115 0 -211 -40 -289 -119s-117 -180 -117 -301zM635 100c113 0 209 40 288 120c78 80 117 181 117 302c0 146 -55 261 -166 344l-391 -737c49 -19 100 -29 152 -29z" />
    <glyph glyph-name="ugrave" unicode="&#xf9;" horiz-adv-x="1249" 
d="M541 1212l-179 322c-8 16 7 35 23 35h98c12 0 20 -6 23 -17l143 -323c8 -19 -3 -31 -22 -31h-64c-9 0 -17 5 -22 14zM965 1042h108c13 0 20 -7 21 -20v-1002c0 -13 -7 -20 -21 -20h-86c-11 0 -17 7 -20 20l-13 160c-91 -137 -226 -205 -403 -205
c-265 0 -418 171 -418 496v551c0 13 7 20 21 20h106c13 0 20 -7 21 -20v-551c0 -117 28 -208 84 -273s132 -98 229 -98c191 0 323 132 350 377v545c0 13 7 20 21 20z" />
    <glyph glyph-name="uacute" unicode="&#xfa;" horiz-adv-x="1249" 
d="M674 1198h-66c-16 0 -27 15 -22 31l143 323c5 11 13 16 23 17h98c19 0 31 -16 22 -35l-178 -322c-3 -9 -9 -14 -20 -14zM965 1042h108c13 0 20 -7 21 -20v-1002c0 -13 -7 -20 -21 -20h-86c-11 0 -17 7 -20 20l-13 160c-91 -137 -226 -205 -403 -205
c-265 0 -418 171 -418 496v551c0 13 7 20 21 20h106c13 0 20 -7 21 -20v-551c0 -117 28 -208 84 -273s132 -98 229 -98c191 0 323 132 350 377v545c0 13 7 20 21 20z" />
    <glyph glyph-name="ucircumflex" unicode="&#xfb;" horiz-adv-x="1249" 
d="M393 1204h-53c-16 0 -25 13 -16 29l231 336c7 9 15 14 25 14h63c13 0 22 -4 27 -12l233 -338c8 -13 0 -29 -16 -29h-53c-15 0 -28 6 -37 19l-185 229l-182 -229c-9 -12 -22 -18 -37 -19zM965 1042h108c13 0 20 -7 21 -20v-1002c0 -13 -7 -20 -21 -20h-86
c-11 0 -17 7 -20 20l-13 160c-91 -137 -226 -205 -403 -205c-265 0 -418 171 -418 496v551c0 13 7 20 21 20h106c13 0 20 -7 21 -20v-551c0 -117 28 -208 84 -273s132 -98 229 -98c191 0 323 132 350 377v545c0 13 7 20 21 20z" />
    <glyph glyph-name="udieresis" unicode="&#xfc;" horiz-adv-x="1249" 
d="M496 1241c-54 -64 -169 -15 -166 70c0 52 43 96 98 96c81 6 131 -108 68 -166zM799 1212c-82 -6 -132 114 -69 168c55 61 173 12 167 -69c0 -55 -43 -99 -98 -99zM965 1042h108c13 0 20 -7 21 -20v-1002c0 -13 -7 -20 -21 -20h-86c-11 0 -17 7 -20 20l-13 160
c-91 -137 -226 -205 -403 -205c-265 0 -418 171 -418 496v551c0 13 7 20 21 20h106c13 0 20 -7 21 -20v-551c0 -117 28 -208 84 -273s132 -98 229 -98c191 0 323 132 350 377v545c0 13 7 20 21 20z" />
    <glyph glyph-name="yacute" unicode="&#xfd;" horiz-adv-x="1075" 
d="M600 1198h-65c-16 0 -28 15 -23 31l143 323c5 11 13 16 23 17h98c19 0 31 -16 23 -35l-178 -322c-3 -9 -10 -14 -21 -14zM899 1042h111c13 0 19 -11 14 -24l-455 -1170c-65 -167 -164 -250 -297 -249c-65 0 -121 16 -166 49c-9 8 -11 17 -6 26l31 68c7 11 16 13 29 8
c29 -18 62 -27 100 -26c84 0 136 54 191 190l32 84l-434 1020c-5 11 3 24 14 24h111c12 0 21 -6 27 -18l352 -842l319 842c5 12 14 18 27 18z" />
    <glyph glyph-name="thorn" unicode="&#xfe;" horiz-adv-x="1361" 
d="M743 1071c149 0 274 -51 376 -154s153 -234 153 -392c0 -159 -51 -290 -152 -393c-102 -103 -227 -155 -375 -155c-185 0 -341 90 -440 238v-621c0 -13 -7 -20 -20 -20h-107c-13 0 -20 7 -20 20v1872c0 13 7 20 20 21h107c13 0 20 -7 20 -21v-622c99 141 258 227 438 227
zM425 221c80 -79 177 -119 292 -119s212 40 291 119s118 180 118 303c0 121 -39 222 -117 301c-79 79 -175 119 -290 119c-116 0 -214 -40 -294 -119c-80 -80 -120 -181 -120 -302c0 -122 40 -223 120 -302z" />
    <glyph glyph-name="ydieresis" unicode="&#xff;" horiz-adv-x="1075" 
d="M422 1241c-55 -64 -169 -15 -166 70c0 52 43 96 98 96c52 0 97 -41 97 -96c0 -27 -10 -51 -29 -70zM725 1212c-81 -6 -130 114 -68 168c53 61 172 12 166 -69c0 -55 -43 -99 -98 -99zM899 1042h111c13 0 19 -11 14 -24l-455 -1170c-65 -167 -164 -250 -297 -249
c-65 0 -121 16 -166 49c-9 8 -11 17 -6 26l31 68c7 11 16 13 29 8c29 -18 62 -27 100 -26c84 0 136 54 191 190l32 84l-434 1020c-5 11 3 24 14 24h111c12 0 21 -6 27 -18l352 -842l319 842c5 12 14 18 27 18z" />
    <glyph glyph-name="Amacron" unicode="&#x100;" horiz-adv-x="1458" 
d="M1067 1661l-639 -2c-13 0 -20 7 -20 20v72c0 13 7 20 20 21l639 2c12 0 18 -7 18 -21l2 -72c0 -13 -7 -20 -20 -20zM807 1417l567 -1390c7 -18 1 -27 -18 -27h-111c-13 0 -21 5 -22 14l-160 389h-657l-170 -389c-4 -9 -12 -14 -23 -14h-115c-13 0 -21 12 -16 27l612 1390
c4 9 12 14 23 15h67c11 0 18 -5 23 -15zM1016 520l-268 692l-291 -692h559z" />
    <glyph glyph-name="amacron" unicode="&#x101;" horiz-adv-x="1353" 
d="M989 1286l-639 -2c-13 0 -20 7 -20 21v71c0 13 7 20 20 21l639 2c12 0 18 -7 19 -21l2 -71c0 -13 -7 -20 -21 -21zM1092 1042h86c13 0 20 -7 20 -20v-1002c0 -13 -7 -20 -20 -20h-86c-9 0 -16 7 -21 20l-14 179c-96 -136 -251 -224 -434 -224c-151 0 -278 51 -380 154
s-153 233 -153 392c0 158 51 289 153 392c101 103 224 154 369 154c91 0 176 -22 254 -65c78 -44 142 -103 193 -177l12 197c3 13 10 20 21 20zM649 100c113 0 210 37 289 110s119 170 119 292c0 124 -40 228 -121 313s-180 127 -297 127c-112 0 -207 -40 -285 -120
c-79 -80 -118 -181 -118 -302s40 -222 119 -301s177 -119 294 -119z" />
    <glyph glyph-name="Abreve" unicode="&#x102;" horiz-adv-x="1458" 
d="M748 1583c-79 0 -147 26 -204 79s-88 116 -95 189c0 19 8 29 24 29h66c13 0 20 -6 20 -18c3 -48 22 -90 57 -125c35 -36 79 -54 132 -54s97 18 132 54c35 35 53 77 54 125c3 12 10 18 22 18h64c19 0 27 -10 24 -31c-5 -74 -36 -137 -93 -188c-57 -52 -125 -78 -203 -78z
M807 1417l567 -1390c7 -18 1 -27 -18 -27h-111c-13 0 -21 5 -22 14l-160 389h-657l-170 -389c-4 -9 -12 -14 -23 -14h-115c-13 0 -21 12 -16 27l612 1390c4 9 12 14 23 15h67c11 0 18 -5 23 -15zM1016 520l-268 692l-291 -692h559z" />
    <glyph glyph-name="abreve" unicode="&#x103;" horiz-adv-x="1353" 
d="M670 1208c-79 0 -147 26 -204 79s-88 116 -95 190c0 19 8 29 24 28h66c13 0 20 -6 20 -18c3 -48 22 -90 57 -125s79 -53 132 -53s97 18 132 53s53 77 54 125c3 12 10 18 23 18h63c19 0 28 -10 25 -30c-5 -74 -37 -137 -94 -189s-125 -78 -203 -78zM1092 1042h86
c13 0 20 -7 20 -20v-1002c0 -13 -7 -20 -20 -20h-86c-9 0 -16 7 -21 20l-14 179c-96 -136 -251 -224 -434 -224c-151 0 -278 51 -380 154s-153 233 -153 392c0 158 51 289 153 392c101 103 224 154 369 154c91 0 176 -22 254 -65c78 -44 142 -103 193 -177l12 197
c3 13 10 20 21 20zM649 100c113 0 210 37 289 110s119 170 119 292c0 124 -40 228 -121 313s-180 127 -297 127c-112 0 -207 -40 -285 -120c-79 -80 -118 -181 -118 -302s40 -222 119 -301s177 -119 294 -119z" />
    <glyph glyph-name="Aogonek" unicode="&#x104;" horiz-adv-x="1458" 
d="M1475 -326l16 -47c3 -9 0 -16 -8 -20c-91 -39 -172 -44 -241 -13c-70 31 -105 82 -105 154c0 47 24 95 73 144c48 50 75 86 80 108h-45c-13 0 -21 5 -22 14l-160 389h-657l-170 -389c-4 -9 -12 -14 -23 -14h-115c-13 0 -21 12 -16 27l612 1390c4 9 12 14 23 15h67
c11 0 18 -5 23 -15l567 -1390c3 -5 3 -12 0 -21c-5 -44 -31 -89 -76 -136c-46 -46 -69 -84 -69 -114c0 -37 19 -64 57 -82c38 -17 93 -14 166 9c9 5 17 2 23 -9zM1016 520l-268 692l-291 -692h559z" />
    <glyph glyph-name="aogonek" unicode="&#x105;" horiz-adv-x="1353" 
d="M1298 -332l17 -47c3 -9 0 -16 -8 -20c-91 -39 -172 -44 -241 -14c-70 31 -105 82 -105 155c0 37 12 70 35 99s47 57 73 84s42 52 47 75h-24c-9 0 -16 7 -21 20l-14 179c-96 -136 -251 -224 -434 -224c-151 0 -278 51 -380 154s-153 233 -153 392c0 158 51 289 153 392
c101 103 224 154 369 154c91 0 176 -22 254 -65c78 -44 142 -103 193 -177l12 197c3 13 10 20 21 20h86c13 0 20 -7 20 -20v-1002c0 -63 -36 -122 -72 -152c-37 -30 -73 -74 -73 -118c0 -37 19 -64 57 -82c38 -17 93 -15 166 8c9 5 17 3 22 -8zM649 100
c113 0 210 37 289 110s119 170 119 292c0 124 -40 228 -121 313s-180 127 -297 127c-112 0 -207 -40 -285 -120c-79 -80 -118 -181 -118 -302s40 -222 119 -301s177 -119 294 -119z" />
    <glyph glyph-name="Cacute" unicode="&#x106;" horiz-adv-x="1472" 
d="M866 1587h-65c-16 0 -28 15 -23 31l144 324c5 11 13 16 22 16h98c19 0 31 -16 23 -35l-178 -321c-3 -9 -10 -14 -21 -15zM844 -27c-206 0 -378 71 -516 213s-207 319 -207 531c0 209 67 384 201 526c133 142 297 213 491 213c221 0 409 -74 563 -221c9 -7 9 -15 0 -25
l-73 -73c-8 -8 -16 -8 -25 0c-113 119 -265 178 -455 178c-159 0 -291 -57 -398 -170s-161 -255 -161 -426c0 -173 55 -317 164 -432s244 -172 403 -172c98 0 176 13 234 38c57 25 122 68 195 130c9 5 17 5 22 0l78 -76c11 -11 11 -20 2 -27c-154 -138 -327 -207 -518 -207z
" />
    <glyph glyph-name="cacute" unicode="&#x107;" horiz-adv-x="1087" 
d="M655 1198h-65c-16 0 -28 15 -23 31l144 323c5 11 13 16 22 17h98c19 0 31 -16 23 -35l-178 -322c-3 -9 -10 -14 -21 -14zM635 -25c-157 0 -288 53 -391 159c-104 106 -156 235 -156 388c0 151 52 280 156 386c103 106 232 159 387 159c146 0 272 -53 379 -160
c9 -11 8 -21 -4 -30l-66 -52c-9 -8 -19 -7 -29 2c-82 77 -175 115 -278 115c-115 0 -211 -41 -290 -122s-118 -181 -118 -300c0 -117 39 -217 118 -298s178 -122 298 -122c39 0 75 8 104 13c28 5 62 22 80 31c18 8 50 28 59 35c5 3 12 9 23 18l17 12c9 7 19 7 28 0l66 -51
c11 -8 12 -18 4 -29c-105 -103 -234 -154 -387 -154z" />
    <glyph glyph-name="Cdotaccent" unicode="&#x10a;" horiz-adv-x="1472" 
d="M807 1602c-55 0 -98 43 -98 98c-6 81 112 130 167 69c61 -55 12 -173 -69 -167zM844 -27c-206 0 -378 71 -516 213s-207 319 -207 531c0 209 67 384 201 526c133 142 297 213 491 213c221 0 409 -74 563 -221c9 -7 9 -15 0 -25l-73 -73c-8 -8 -16 -8 -25 0
c-113 119 -265 178 -455 178c-159 0 -291 -57 -398 -170s-161 -255 -161 -426c0 -173 55 -317 164 -432s244 -172 403 -172c98 0 176 13 234 38c57 25 122 68 195 130c9 5 17 5 22 0l78 -76c11 -11 11 -20 2 -27c-154 -138 -327 -207 -518 -207z" />
    <glyph glyph-name="cdotaccent" unicode="&#x10b;" horiz-adv-x="1087" 
d="M664 1241c-54 -64 -169 -15 -166 70c0 52 43 96 98 96c81 6 131 -108 68 -166zM635 -25c-157 0 -288 53 -391 159c-104 106 -156 235 -156 388c0 151 52 280 156 386c103 106 232 159 387 159c146 0 272 -53 379 -160c9 -11 8 -21 -4 -30l-66 -52c-9 -8 -19 -7 -29 2
c-82 77 -175 115 -278 115c-115 0 -211 -41 -290 -122s-118 -181 -118 -300c0 -117 39 -217 118 -298s178 -122 298 -122c39 0 75 8 104 13c28 5 62 22 80 31c18 8 50 28 59 35c5 3 12 9 23 18l17 12c9 7 19 7 28 0l66 -51c11 -8 12 -18 4 -29
c-105 -103 -234 -154 -387 -154z" />
    <glyph glyph-name="Ccaron" unicode="&#x10c;" horiz-adv-x="1472" 
d="M748 1608l-232 338c-8 13 0 26 16 26h54c17 0 29 -6 37 -18l182 -230l186 232c8 11 20 16 35 16h53c16 0 25 -13 17 -26l-234 -338c-4 -9 -12 -14 -24 -15h-64c-11 1 -19 6 -26 15zM823 1315c-159 0 -291 -57 -398 -170s-161 -255 -161 -426c0 -173 55 -317 164 -432
s244 -172 403 -172c98 0 176 13 234 38c57 25 122 68 195 130c9 5 17 5 22 0l78 -76c11 -11 11 -20 2 -27c-154 -138 -327 -207 -518 -207c-206 0 -378 71 -516 213s-207 319 -207 531c0 209 67 384 201 526c133 142 297 213 491 213c221 0 409 -74 563 -221
c9 -7 9 -15 0 -25l-73 -73c-8 -8 -16 -8 -25 0c-113 119 -265 178 -455 178z" />
    <glyph glyph-name="ccaron" unicode="&#x10d;" horiz-adv-x="1087" 
d="M537 1219l-232 337c-8 13 0 27 17 27h53c17 0 29 -6 37 -18l182 -230l186 232c8 11 20 16 35 16h53c16 0 25 -12 17 -27l-234 -337c-5 -9 -13 -14 -24 -15h-64c-11 1 -19 6 -26 15zM952 209l66 -51c11 -8 12 -18 4 -29c-105 -103 -234 -154 -387 -154
c-157 0 -288 53 -391 159c-104 106 -156 235 -156 388c0 151 52 280 156 386c103 106 232 159 387 159c146 0 272 -53 379 -160c9 -11 8 -21 -4 -30l-66 -52c-9 -8 -19 -7 -29 2c-82 77 -175 115 -278 115c-115 0 -211 -41 -290 -122s-118 -181 -118 -300
c0 -117 39 -217 118 -298s178 -122 298 -122c39 0 75 8 104 13c28 5 62 22 80 31c18 8 50 28 59 35c5 3 12 9 23 18l17 12c9 7 19 7 28 0z" />
    <glyph glyph-name="Dcaron" unicode="&#x10e;" horiz-adv-x="1521" 
d="M614 1593l-231 338c-8 13 0 27 16 27h54c17 0 29 -6 36 -19l183 -229l186 232c8 11 20 16 35 16h53c16 0 25 -12 17 -27l-234 -338c-5 -9 -13 -14 -24 -14h-64c-11 0 -20 5 -27 14zM215 1434h526c201 0 361 -65 480 -195s178 -304 178 -522c0 -223 -59 -398 -176 -525
c-117 -128 -278 -192 -482 -192h-526c-13 0 -20 7 -20 20v1393c0 13 7 20 20 21zM344 139h397c161 0 287 51 376 152s134 241 134 422s-45 324 -135 427s-215 154 -375 154h-397v-1155z" />
    <glyph glyph-name="dcaron" unicode="&#x10f;" horiz-adv-x="1363" 
d="M1077 1487h107c13 0 20 -7 20 -21v-1446c0 -13 -7 -20 -20 -20h-84c-11 0 -18 7 -21 20l-14 191c-96 -145 -254 -236 -442 -236c-151 0 -278 51 -380 154s-153 233 -153 392c0 158 51 289 153 392c101 103 224 154 369 154c91 0 176 -21 254 -64s142 -102 191 -176v639
c0 13 7 20 20 21zM1462 1440h109c19 0 33 -16 24 -35l-180 -322c-3 -9 -9 -14 -20 -14h-76c-19 0 -30 11 -25 31l144 323c5 11 13 16 24 17zM649 100c113 0 210 37 289 110s119 170 119 292c0 124 -40 228 -121 313s-180 127 -297 127c-112 0 -207 -40 -285 -120
c-79 -80 -118 -181 -118 -302s40 -222 119 -301s177 -119 294 -119z" />
    <glyph glyph-name="Dcroat" unicode="&#x110;" horiz-adv-x="1521" 
d="M215 1434h526c201 0 361 -65 480 -195s178 -304 178 -522c0 -223 -59 -398 -176 -525c-117 -128 -278 -192 -482 -192h-526c-13 0 -20 7 -20 20v639h-172c-13 0 -20 7 -21 21v70c0 13 7 20 21 20h172v643c0 13 7 20 20 21zM344 139h397c161 0 287 51 376 152
s134 241 134 422s-45 324 -135 427s-215 154 -375 154h-397v-522h272c13 0 20 -7 21 -20v-72c0 -13 -7 -20 -21 -21h-272v-520z" />
    <glyph glyph-name="dslash" unicode="&#x111;" horiz-adv-x="1361" 
d="M1204 1317h156c13 0 20 -7 20 -21v-71c0 -13 -7 -20 -20 -21h-156v-1184c0 -13 -7 -20 -20 -20h-84c-11 0 -18 7 -21 20l-14 191c-96 -145 -254 -236 -442 -236c-151 0 -278 51 -380 154s-153 233 -153 392c0 158 51 289 153 392c101 103 224 154 369 154
c91 0 176 -21 254 -64s142 -102 191 -176v377h-291c-13 0 -20 7 -21 21v69c0 13 7 20 21 21h291v151c0 13 7 20 20 21h107c13 0 20 -7 20 -21v-149zM649 100c113 0 210 37 289 110s119 170 119 292c0 124 -40 228 -121 313s-180 127 -297 127c-112 0 -207 -40 -285 -120
c-79 -80 -118 -181 -118 -302s40 -222 119 -301s177 -119 294 -119z" />
    <glyph glyph-name="Emacron" unicode="&#x112;" horiz-adv-x="1335" 
d="M1034 1661l-639 -2c-13 0 -20 7 -20 20v72c0 13 7 20 20 21l639 2c12 0 18 -7 19 -21l2 -72c0 -13 -7 -20 -21 -20zM344 139h873c13 0 20 -7 20 -20v-99c0 -13 -7 -20 -20 -20h-1002c-13 0 -20 7 -20 20v1393c0 13 7 20 20 21h993c13 0 20 -7 21 -21v-98
c0 -13 -7 -20 -21 -21h-864v-512h733c13 0 20 -7 21 -20v-78c0 -13 -7 -20 -21 -20h-733v-525z" />
    <glyph glyph-name="emacron" unicode="&#x113;" horiz-adv-x="1208" 
d="M932 1286l-639 -2c-13 0 -20 7 -21 21v71c0 13 7 20 21 21l639 2c12 0 18 -7 18 -21l2 -71c0 -13 -7 -20 -20 -21zM608 1067c146 0 268 -51 366 -153c97 -103 146 -233 146 -390v-37c-1 -12 -9 -18 -22 -18h-871c8 -112 50 -201 126 -268s172 -101 288 -101
c153 0 276 67 371 201c9 11 19 11 28 2l58 -57c9 -9 9 -20 0 -33c-49 -74 -115 -132 -198 -174c-83 -43 -172 -64 -269 -64c-155 0 -284 52 -387 155s-154 233 -154 388c0 154 49 284 147 390c97 106 221 159 371 159zM873 844c-70 65 -157 98 -260 98
c-104 0 -192 -33 -263 -98c-72 -66 -114 -153 -125 -260h764c-8 108 -47 195 -116 260z" />
    <glyph glyph-name="Edotaccent" unicode="&#x116;" horiz-adv-x="1335" 
d="M783 1616c-38 -39 -97 -39 -137 1c-20 20 -30 43 -30 69c0 51 44 96 99 96c52 0 96 -45 96 -96c0 -27 -9 -51 -28 -70zM344 139h873c13 0 20 -7 20 -20v-99c0 -13 -7 -20 -20 -20h-1002c-13 0 -20 7 -20 20v1393c0 13 7 20 20 21h993c13 0 20 -7 21 -21v-98
c0 -13 -7 -20 -21 -21h-864v-512h733c13 0 20 -7 21 -20v-78c0 -13 -7 -20 -21 -20h-733v-525z" />
    <glyph glyph-name="edotaccent" unicode="&#x117;" horiz-adv-x="1208" 
d="M680 1241c-55 -64 -169 -15 -166 70c0 52 43 96 98 96c52 0 97 -41 97 -96c0 -27 -10 -51 -29 -70zM608 1067c146 0 268 -51 366 -153c97 -103 146 -233 146 -390v-37c-1 -12 -9 -18 -22 -18h-871c8 -112 50 -201 126 -268s172 -101 288 -101c153 0 276 67 371 201
c9 11 19 11 28 2l58 -57c9 -9 9 -20 0 -33c-49 -74 -115 -132 -198 -174c-83 -43 -172 -64 -269 -64c-155 0 -284 52 -387 155s-154 233 -154 388c0 154 49 284 147 390c97 106 221 159 371 159zM873 844c-70 65 -157 98 -260 98c-104 0 -192 -33 -263 -98
c-72 -66 -114 -153 -125 -260h764c-8 108 -47 195 -116 260z" />
    <glyph glyph-name="Eogonek" unicode="&#x118;" horiz-adv-x="1335" 
d="M1337 -332l17 -47c3 -9 0 -16 -8 -20c-91 -39 -172 -44 -242 -14c-70 31 -105 82 -105 155c-6 109 145 186 156 258h-940c-13 0 -20 7 -20 20v1393c0 13 7 20 20 21h993c13 0 20 -7 21 -21v-98c0 -13 -7 -20 -21 -21h-864v-512h733c13 0 20 -7 21 -20v-78
c0 -13 -7 -20 -21 -20h-733v-525h873c13 0 20 -7 20 -20v-99c0 -39 -12 -75 -37 -106s-49 -60 -72 -86c-24 -26 -36 -52 -36 -78c0 -37 19 -64 57 -82c38 -17 93 -15 166 8c9 5 17 3 22 -8z" />
    <glyph glyph-name="eogonek" unicode="&#x119;" horiz-adv-x="1208" 
d="M1204 -125l17 -47c3 -9 0 -16 -9 -21c-91 -39 -172 -44 -241 -13c-70 31 -105 82 -105 155c0 29 8 57 25 86c-79 -39 -166 -59 -260 -60c-155 0 -284 52 -387 155s-154 233 -154 388c0 154 49 284 147 390c97 106 221 159 371 159c146 0 268 -51 366 -153
c97 -103 146 -233 146 -390v-37c-1 -12 -9 -18 -22 -18h-871c8 -112 50 -201 126 -268s172 -101 288 -101c153 0 276 67 371 201c9 11 19 11 28 2l58 -57c7 -7 9 -14 6 -23c-3 -63 -38 -117 -73 -148c-36 -32 -73 -77 -73 -118c0 -37 19 -64 58 -82c38 -18 93 -15 166 8
c9 5 17 3 22 -8zM873 844c-70 65 -157 98 -260 98c-104 0 -192 -33 -263 -98c-72 -66 -114 -153 -125 -260h764c-8 108 -47 195 -116 260z" />
    <glyph glyph-name="Ecaron" unicode="&#x11a;" horiz-adv-x="1335" 
d="M655 1593l-231 338c-8 13 0 27 16 27h54c17 0 29 -6 36 -19l183 -229l186 232c8 11 20 16 35 16h53c16 0 25 -12 17 -27l-234 -338c-5 -9 -14 -14 -25 -14h-63c-11 0 -20 5 -27 14zM344 139h873c13 0 20 -7 20 -20v-99c0 -13 -7 -20 -20 -20h-1002c-13 0 -20 7 -20 20
v1393c0 13 7 20 20 21h993c13 0 20 -7 21 -21v-98c0 -13 -7 -20 -21 -21h-864v-512h733c13 0 20 -7 21 -20v-78c0 -13 -7 -20 -21 -20h-733v-525z" />
    <glyph glyph-name="ecaron" unicode="&#x11b;" horiz-adv-x="1208" 
d="M553 1219l-231 337c-8 13 0 27 16 27h53c17 0 29 -6 37 -18l182 -230l187 232c8 11 19 16 34 16h54c16 0 24 -12 16 -27l-233 -337c-5 -9 -14 -14 -25 -15h-63c-11 1 -20 6 -27 15zM608 1067c146 0 268 -51 366 -153c97 -103 146 -233 146 -390v-37
c-1 -12 -9 -18 -22 -18h-871c8 -112 50 -201 126 -268s172 -101 288 -101c153 0 276 67 371 201c9 11 19 11 28 2l58 -57c9 -9 9 -20 0 -33c-49 -74 -115 -132 -198 -174c-83 -43 -172 -64 -269 -64c-155 0 -284 52 -387 155s-154 233 -154 388c0 154 49 284 147 390
c97 106 221 159 371 159zM873 844c-70 65 -157 98 -260 98c-104 0 -192 -33 -263 -98c-72 -66 -114 -153 -125 -260h764c-8 108 -47 195 -116 260z" />
    <glyph glyph-name="Gbreve" unicode="&#x11e;" horiz-adv-x="1556" 
d="M825 1597c-79 0 -147 26 -203 79c-57 53 -89 116 -96 190c0 19 8 29 25 28h65c13 0 20 -6 21 -18c3 -48 21 -90 56 -125s79 -53 132 -53s98 18 133 53s53 77 54 125c3 12 10 18 22 18h64c19 0 27 -10 24 -30c-5 -74 -37 -137 -94 -189s-125 -78 -203 -78zM831 715h562
c13 0 20 -7 20 -21v-674c0 -13 -7 -20 -20 -20h-72c-12 0 -20 7 -23 20l-14 132c-116 -116 -271 -174 -465 -175c-202 0 -369 68 -500 205c-132 137 -198 313 -198 529c0 215 66 393 197 533s296 212 495 216c223 4 409 -68 559 -215c8 -8 8 -17 0 -26l-74 -70
c-5 -7 -13 -7 -22 0c-139 124 -290 183 -451 176c-167 -5 -303 -64 -408 -177c-106 -113 -159 -257 -159 -433c0 -179 54 -324 162 -436s250 -168 426 -168c188 0 346 70 434 198v287h-449c-15 0 -23 7 -22 20v78c0 13 7 20 22 21z" />
    <glyph glyph-name="gbreve" unicode="&#x11f;" horiz-adv-x="1300" 
d="M641 1208c-79 0 -147 26 -204 79s-88 116 -95 190c0 19 8 29 25 28h65c13 0 20 -6 21 -18c3 -48 21 -90 56 -125s79 -53 132 -53s97 18 132 53s53 77 54 125c3 12 10 18 23 18h63c19 0 28 -10 25 -30c-5 -74 -37 -137 -94 -189s-125 -78 -203 -78zM1032 1044h92
c13 0 20 -7 21 -20v-958c0 -147 -51 -262 -152 -345c-102 -83 -236 -124 -403 -124c-142 0 -277 39 -404 116c-9 4 -13 13 -10 27l33 76c7 13 17 16 31 8c100 -71 213 -106 340 -107c123 0 223 30 301 90c77 61 116 143 116 246v193c-97 -129 -232 -193 -405 -193
c-145 0 -265 48 -361 143c-97 95 -145 216 -145 363s48 269 145 365c96 95 213 143 351 143c172 0 325 -85 417 -221l13 178c3 13 9 20 20 20zM610 178c107 0 198 33 274 100c75 66 113 154 113 263c0 112 -39 207 -116 285c-78 77 -171 116 -279 116
c-104 0 -193 -36 -266 -108c-74 -73 -111 -164 -111 -275s37 -202 111 -273c73 -72 165 -108 274 -108z" />
    <glyph glyph-name="Gdotaccent" unicode="&#x120;" horiz-adv-x="1556" 
d="M893 1631c-55 -63 -169 -16 -166 69c0 52 43 96 98 96c52 0 97 -41 97 -96c0 -27 -10 -50 -29 -69zM831 715h562c13 0 20 -7 20 -21v-674c0 -13 -7 -20 -20 -20h-72c-12 0 -20 7 -23 20l-14 132c-116 -116 -271 -174 -465 -175c-202 0 -369 68 -500 205
c-132 137 -198 313 -198 529c0 215 66 393 197 533s296 212 495 216c223 4 409 -68 559 -215c8 -8 8 -17 0 -26l-74 -70c-5 -7 -13 -7 -22 0c-139 124 -290 183 -451 176c-167 -5 -303 -64 -408 -177c-106 -113 -159 -257 -159 -433c0 -179 54 -324 162 -436
s250 -168 426 -168c188 0 346 70 434 198v287h-449c-15 0 -23 7 -22 20v78c0 13 7 20 22 21z" />
    <glyph glyph-name="gdotaccent" unicode="&#x121;" horiz-adv-x="1300" 
d="M709 1241c-54 -64 -169 -15 -166 70c0 52 43 96 98 96c81 6 131 -108 68 -166zM1032 1044h92c13 0 20 -7 21 -20v-958c0 -147 -51 -262 -152 -345c-102 -83 -236 -124 -403 -124c-142 0 -277 39 -404 116c-9 4 -13 13 -10 27l33 76c7 13 17 16 31 8
c100 -71 213 -106 340 -107c123 0 223 30 301 90c77 61 116 143 116 246v193c-97 -129 -232 -193 -405 -193c-145 0 -265 48 -361 143c-97 95 -145 216 -145 363s48 269 145 365c96 95 213 143 351 143c172 0 325 -85 417 -221l13 178c3 13 9 20 20 20zM610 178
c107 0 198 33 274 100c75 66 113 154 113 263c0 112 -39 207 -116 285c-78 77 -171 116 -279 116c-104 0 -193 -36 -266 -108c-74 -73 -111 -164 -111 -275s37 -202 111 -273c73 -72 165 -108 274 -108z" />
    <glyph glyph-name="uni0122" unicode="&#x122;" horiz-adv-x="1556" 
d="M831 715h562c13 0 20 -7 20 -21v-674c0 -13 -7 -20 -20 -20h-72c-12 0 -20 7 -23 20l-14 132c-116 -116 -271 -174 -465 -175c-202 0 -369 68 -500 205c-132 137 -198 313 -198 529c0 215 66 393 197 533s296 212 495 216c223 4 409 -68 559 -215c8 -8 8 -17 0 -26
l-74 -70c-5 -7 -13 -7 -22 0c-139 124 -290 183 -451 176c-167 -5 -303 -64 -408 -177c-106 -113 -159 -257 -159 -433c0 -179 54 -324 162 -436s250 -168 426 -168c188 0 346 70 434 198v287h-449c-15 0 -23 7 -22 20v78c0 13 7 20 22 21zM834 -156c83 0 125 -62 124 -186
c0 -142 -78 -247 -235 -315c-8 0 -13 3 -16 8l-15 35c-1 9 2 16 10 20c39 15 75 38 107 68c31 30 46 61 45 92c-1 33 -19 49 -53 49c-55 0 -90 45 -90 109c0 33 12 61 37 84c25 24 53 36 86 36z" />
    <glyph glyph-name="uni0123" unicode="&#x123;" horiz-adv-x="1300" 
d="M629 1182c-84 0 -125 75 -125 184c0 149 79 257 237 324c11 3 16 0 17 -7l16 -36c1 -9 -3 -16 -12 -21c-42 -18 -78 -42 -109 -71s-46 -61 -45 -95c1 -30 20 -45 56 -45c55 0 90 -49 90 -106c0 -35 -12 -65 -36 -90s-54 -37 -89 -37zM1032 1044h92c13 0 20 -7 21 -20
v-958c0 -147 -51 -262 -152 -345c-102 -83 -236 -124 -403 -124c-142 0 -277 39 -404 116c-9 4 -13 13 -10 27l33 76c7 13 17 16 31 8c100 -71 213 -106 340 -107c123 0 223 30 301 90c77 61 116 143 116 246v193c-97 -129 -232 -193 -405 -193c-145 0 -265 48 -361 143
c-97 95 -145 216 -145 363s48 269 145 365c96 95 213 143 351 143c172 0 325 -85 417 -221l13 178c3 13 9 20 20 20zM610 178c107 0 198 33 274 100c75 66 113 154 113 263c0 112 -39 207 -116 285c-78 77 -171 116 -279 116c-104 0 -193 -36 -266 -108
c-74 -73 -111 -164 -111 -275s37 -202 111 -273c73 -72 165 -108 274 -108z" />
    <glyph glyph-name="Hbar" unicode="&#x126;" horiz-adv-x="1497" 
d="M1174 1434h108c13 0 20 -7 21 -21v-1393c0 -13 -7 -20 -21 -20h-108c-13 0 -20 7 -21 20v644h-809v-644c0 -13 -7 -20 -20 -20h-109c-13 0 -20 7 -20 20v1393c0 13 7 20 20 21h109c13 0 20 -7 20 -21v-246h809v246c0 13 7 20 21 21zM344 1055v-271h809v273z" />
    <glyph glyph-name="hbar" unicode="&#x127;" horiz-adv-x="1249" 
d="M696 1067c130 0 233 -42 308 -127s112 -208 112 -369v-551c0 -13 -7 -20 -20 -20h-109c-13 0 -20 7 -20 20v551c0 117 -28 209 -83 274s-131 97 -227 97c-193 0 -324 -132 -352 -379v-543c0 -13 -7 -20 -20 -20h-107c-13 0 -20 7 -20 20v1174h-154c-13 0 -20 7 -20 20v70
c0 13 7 20 20 21h154v161c0 13 7 20 20 21h107c13 0 20 -7 20 -21v-159h293c13 0 20 -7 20 -21v-72c0 -13 -7 -20 -20 -20h-293v-330c93 135 223 203 391 203z" />
    <glyph glyph-name="Itilde" unicode="&#x128;" horiz-adv-x="538" 
d="M47 1610c-7 -13 -16 -17 -29 -11l-43 23c-8 4 -11 12 -8 23c34 91 88 137 162 137c38 0 86 -17 143 -50c57 -34 98 -51 123 -51c38 0 70 23 97 68c7 15 15 19 26 12l43 -20c9 -4 13 -11 10 -21c-33 -100 -87 -150 -163 -149c-37 0 -84 18 -143 53s-101 53 -124 53
c-35 1 -67 -22 -94 -67zM324 0h-109c-13 0 -20 7 -20 20v1393c0 13 7 20 20 21h109c13 0 20 -7 20 -21v-1393c0 -13 -7 -20 -20 -20z" />
    <glyph glyph-name="itilde" unicode="&#x129;" horiz-adv-x="460" 
d="M10 1235c-7 -13 -16 -17 -28 -10l-43 22c-8 4 -11 12 -9 23c34 91 88 137 162 137c38 0 86 -17 144 -50c57 -33 98 -50 122 -50c38 0 70 22 97 67c7 15 15 19 26 12l43 -20c9 -4 13 -11 11 -20c-33 -100 -87 -150 -164 -150c-37 0 -84 18 -143 54c-59 35 -101 53 -124 53
c-35 0 -67 -23 -94 -68zM285 0h-109c-13 0 -20 7 -20 20v1002c0 13 7 20 20 20h109c13 0 20 -7 20 -20v-1002c0 -13 -7 -20 -20 -20z" />
    <glyph glyph-name="Imacron" unicode="&#x12a;" horiz-adv-x="538" 
d="M588 1661l-639 -2c-13 0 -20 7 -21 20v72c0 13 7 20 21 21l639 2c12 0 18 -7 18 -21l2 -72c0 -13 -7 -20 -20 -20zM324 0h-109c-13 0 -20 7 -20 20v1393c0 13 7 20 20 21h109c13 0 20 -7 20 -21v-1393c0 -13 -7 -20 -20 -20z" />
    <glyph glyph-name="imacron" unicode="&#x12b;" horiz-adv-x="460" 
d="M551 1286l-639 -2c-13 0 -20 7 -21 21v71c0 13 7 20 21 21l639 2c12 0 18 -7 18 -21l2 -71c0 -13 -7 -20 -20 -21zM285 0h-109c-13 0 -20 7 -20 20v1002c0 13 7 20 20 20h109c13 0 20 -7 20 -20v-1002c0 -13 -7 -20 -20 -20z" />
    <glyph glyph-name="Iogonek" unicode="&#x12e;" horiz-adv-x="538" 
d="M444 -332l17 -47c3 -9 0 -16 -8 -20c-91 -39 -172 -44 -242 -14c-70 31 -105 82 -105 155c-7 109 144 186 156 258h-47c-13 0 -20 7 -20 20v1393c0 13 7 20 20 21h109c13 0 20 -7 20 -21v-1393c0 -39 -12 -75 -37 -106s-49 -60 -72 -86c-24 -26 -36 -52 -36 -78
c0 -37 19 -64 57 -82c38 -17 93 -15 166 8c9 5 17 3 22 -8z" />
    <glyph glyph-name="iogonek" unicode="&#x12f;" horiz-adv-x="460" 
d="M299 1241c-39 -39 -96 -39 -136 0c-20 19 -30 43 -30 70c0 52 43 96 98 96c52 0 97 -41 97 -96c0 -27 -10 -51 -29 -70zM406 -332l16 -47c3 -9 0 -16 -8 -20c-91 -39 -172 -44 -241 -14c-70 31 -105 82 -105 155c0 37 12 70 35 99s47 57 73 84s42 52 47 75h-47
c-13 0 -20 7 -20 20v1002c0 13 7 20 20 20h109c13 0 20 -7 20 -20v-1002c0 -63 -36 -122 -72 -152c-37 -30 -73 -74 -73 -118c0 -37 19 -64 57 -82c38 -17 93 -15 166 8c9 5 17 3 23 -8z" />
    <glyph glyph-name="Idot" unicode="&#x130;" horiz-adv-x="538" 
d="M336 1616c-39 -39 -97 -39 -136 1c-20 20 -30 43 -30 69c0 51 43 96 98 96c52 0 97 -45 97 -96c0 -27 -10 -51 -29 -70zM324 0h-109c-13 0 -20 7 -20 20v1393c0 13 7 20 20 21h109c13 0 20 -7 20 -21v-1393c0 -13 -7 -20 -20 -20z" />
    <glyph glyph-name="dotlessi" unicode="&#x131;" horiz-adv-x="460" 
d="M285 0h-109c-13 0 -20 7 -20 20v1002c0 13 7 20 20 20h109c13 0 20 -7 20 -20v-1002c0 -13 -7 -20 -20 -20z" />
    <glyph glyph-name="uni0136" unicode="&#x136;" horiz-adv-x="1366" 
d="M633 829l651 -798c13 -16 5 -31 -14 -31h-131c-9 0 -18 4 -27 12l-584 715l-184 -182v-525c0 -13 -7 -20 -20 -20h-109c-13 0 -20 7 -20 20v1393c0 13 7 20 20 21h109c13 0 20 -7 20 -21v-686l678 694c8 8 17 12 27 13h151c21 0 29 -20 12 -33zM678 -156
c83 0 125 -62 125 -186c0 -142 -79 -247 -236 -315c-8 0 -13 3 -16 8l-14 35c-1 9 2 16 10 20c39 15 75 38 106 68s46 61 45 92c-1 33 -19 49 -53 49c-55 0 -90 45 -90 109c0 33 12 61 37 84c25 24 53 36 86 36z" />
    <glyph glyph-name="uni0137" unicode="&#x137;" horiz-adv-x="1140" 
d="M608 600l486 -575c8 -13 2 -25 -13 -25h-114c-13 0 -23 4 -29 12l-426 496l-207 -195v-293c0 -13 -7 -20 -20 -20h-107c-13 0 -20 7 -20 20v1446c0 13 7 20 20 21h107c13 0 20 -7 20 -21v-985l572 549c7 7 16 10 28 10h129c19 0 26 -13 13 -24zM578 -156
c83 0 125 -62 124 -186c0 -142 -78 -247 -235 -315c-8 0 -13 3 -16 8l-15 35c-1 9 2 16 10 20c39 15 75 38 107 68c31 30 46 61 45 92c-1 33 -19 49 -53 49c-55 0 -90 45 -90 109c0 33 12 61 37 84c25 24 53 36 86 36z" />
    <glyph glyph-name="Lacute" unicode="&#x139;" horiz-adv-x="1318" 
d="M319 1573h-65c-16 0 -28 11 -23 31l144 323c5 11 13 16 22 17h99c19 0 30 -16 22 -35l-178 -322c-3 -9 -10 -14 -21 -14zM344 139h873c13 0 20 -7 20 -20v-99c0 -13 -7 -20 -20 -20h-1002c-13 0 -20 7 -20 20v1393c0 13 7 20 20 21h109c13 0 20 -7 20 -21v-1274z" />
    <glyph glyph-name="lacute" unicode="&#x13a;" horiz-adv-x="462" 
d="M289 1587h-66c-16 0 -27 15 -22 31l143 324c5 11 13 16 23 16h98c19 0 31 -16 22 -35l-178 -321c-3 -9 -9 -14 -20 -15zM285 0h-107c-13 0 -20 7 -20 20v1446c0 13 7 20 20 21h107c13 0 20 -7 20 -21v-1446c0 -13 -7 -20 -20 -20z" />
    <glyph glyph-name="uni013B" unicode="&#x13b;" horiz-adv-x="1318" 
d="M344 139h873c13 0 20 -7 20 -20v-99c0 -13 -7 -20 -20 -20h-1002c-13 0 -20 7 -20 20v1393c0 13 7 20 20 21h109c13 0 20 -7 20 -21v-1274zM705 -156c83 0 125 -62 124 -186c0 -142 -78 -247 -235 -315c-8 0 -13 3 -16 8l-15 35c-1 9 2 16 10 20c39 15 75 38 107 68
c31 30 46 61 45 92c-1 33 -19 49 -53 49c-55 0 -90 45 -90 109c0 33 12 61 37 84c25 24 53 36 86 36z" />
    <glyph glyph-name="uni013C" unicode="&#x13c;" horiz-adv-x="462" 
d="M285 0h-107c-13 0 -20 7 -20 20v1446c0 13 7 20 20 21h107c13 0 20 -7 20 -21v-1446c0 -13 -7 -20 -20 -20zM129 -657c-8 0 -13 3 -16 8l-15 35c-1 9 2 16 11 20c39 15 75 38 106 68s46 61 45 92c-1 33 -19 49 -53 49c-55 0 -90 45 -90 109c0 33 12 61 37 84
c24 24 53 36 86 36c83 0 125 -62 125 -186c0 -142 -79 -247 -236 -315z" />
    <glyph glyph-name="Lcaron" unicode="&#x13d;" horiz-adv-x="1318" 
d="M641 1069h-78c-16 0 -27 11 -22 31l143 323c5 11 13 16 23 17h110c19 0 31 -16 23 -35l-178 -322c-3 -9 -10 -14 -21 -14zM344 139h873c13 0 20 -7 20 -20v-99c0 -13 -7 -20 -20 -20h-1002c-13 0 -20 7 -20 20v1393c0 13 7 20 20 21h109c13 0 20 -7 20 -21v-1274z" />
    <glyph glyph-name="lcaron" unicode="&#x13e;" horiz-adv-x="462" 
d="M285 0h-107c-13 0 -20 7 -20 20v1446c0 13 7 20 20 21h107c13 0 20 -7 20 -21v-1446c0 -13 -7 -20 -20 -20zM502 1116h-76c-16 0 -31 15 -23 31l144 323c3 11 10 16 22 17h111c16 0 31 -17 22 -33l-178 -324c-5 -9 -13 -14 -22 -14z" />
    <glyph glyph-name="Lslash" unicode="&#x141;" horiz-adv-x="1318" 
d="M344 139h873c13 0 20 -7 20 -20v-99c0 -13 -7 -20 -20 -20h-1002c-13 0 -20 7 -20 20v547l-162 -118v116l162 117v731c0 13 7 20 20 21h109c13 0 20 -7 20 -21v-620l260 188v-115l-260 -190v-537z" />
    <glyph glyph-name="lslash" unicode="&#x142;" horiz-adv-x="462" 
d="M305 635l209 151v-114l-209 -154v-498c0 -13 -7 -20 -20 -20h-107c-13 0 -20 7 -20 20v392l-215 -158v117l215 155v940c0 13 7 20 20 21h107c13 0 20 -7 20 -21v-831z" />
    <glyph glyph-name="Nacute" unicode="&#x143;" horiz-adv-x="1624" 
d="M874 1573h-65c-16 0 -28 11 -23 31l144 323c5 11 13 16 22 17h99c19 0 30 -16 22 -35l-178 -322c-3 -9 -10 -14 -21 -14zM1303 1434h106c13 0 20 -7 21 -21v-1393c0 -13 -7 -20 -21 -20h-84c-11 0 -18 3 -22 10l-959 1151v-1141c0 -13 -7 -20 -20 -20h-109
c-13 0 -20 7 -20 20v1393c0 13 7 20 20 21h82c11 0 18 -4 22 -11l963 -1151v1141c0 13 7 20 21 21z" />
    <glyph glyph-name="nacute" unicode="&#x144;" horiz-adv-x="1255" 
d="M694 1198h-65c-16 0 -28 15 -23 31l144 323c5 11 13 16 22 17h98c19 0 31 -16 23 -35l-178 -322c-3 -9 -10 -14 -21 -14zM705 1067c130 0 232 -42 306 -127s111 -208 111 -369v-551c0 -13 -7 -20 -20 -20h-107c-13 0 -20 7 -20 20v551c0 117 -28 209 -83 274
s-131 97 -228 97s-178 -32 -243 -97s-104 -159 -118 -282v-543c0 -13 -7 -20 -20 -20h-107c-13 0 -20 7 -20 20v1002c0 13 7 20 20 20h86c11 0 18 -7 21 -20l10 -180c95 150 232 225 412 225z" />
    <glyph glyph-name="uni0145" unicode="&#x145;" horiz-adv-x="1624" 
d="M1303 1434h106c13 0 20 -7 21 -21v-1393c0 -13 -7 -20 -21 -20h-84c-11 0 -18 3 -22 10l-959 1151v-1141c0 -13 -7 -20 -20 -20h-109c-13 0 -20 7 -20 20v1393c0 13 7 20 20 21h82c11 0 18 -4 22 -11l963 -1151v1141c0 13 7 20 21 21zM823 -156c83 0 125 -62 125 -186
c0 -142 -78 -247 -235 -315c-8 0 -14 3 -17 8l-14 35c-1 9 2 16 10 20c39 15 75 38 107 68c31 30 46 61 45 92c-1 33 -19 49 -53 49c-55 0 -91 45 -91 109c0 33 12 61 37 84c25 24 53 36 86 36z" />
    <glyph glyph-name="uni0146" unicode="&#x146;" horiz-adv-x="1255" 
d="M705 1067c130 0 232 -42 306 -127s111 -208 111 -369v-551c0 -13 -7 -20 -20 -20h-107c-13 0 -20 7 -20 20v551c0 117 -28 209 -83 274s-131 97 -228 97s-178 -32 -243 -97s-104 -159 -118 -282v-543c0 -13 -7 -20 -20 -20h-107c-13 0 -20 7 -20 20v1002c0 13 7 20 20 20
h86c11 0 18 -7 21 -20l10 -180c95 150 232 225 412 225zM641 -156c83 0 125 -62 125 -186c0 -142 -79 -247 -236 -315c-8 0 -13 3 -16 8l-14 35c-1 9 2 16 10 20c39 15 75 38 107 68c31 30 46 61 45 92c-1 33 -19 49 -54 49c-55 0 -90 45 -90 109c0 33 12 61 37 84
c25 24 53 36 86 36z" />
    <glyph glyph-name="Ncaron" unicode="&#x147;" horiz-adv-x="1624" 
d="M756 1593l-232 338c-8 13 0 27 17 27h53c17 0 29 -6 37 -19l182 -229l186 232c8 11 20 16 35 16h53c16 0 25 -12 17 -27l-234 -338c-4 -9 -12 -14 -24 -14h-64c-11 0 -19 5 -26 14zM1303 1434h106c13 0 20 -7 21 -21v-1393c0 -13 -7 -20 -21 -20h-84c-11 0 -18 3 -22 10
l-959 1151v-1141c0 -13 -7 -20 -20 -20h-109c-13 0 -20 7 -20 20v1393c0 13 7 20 20 21h82c11 0 18 -4 22 -11l963 -1151v1141c0 13 7 20 21 21z" />
    <glyph glyph-name="ncaron" unicode="&#x148;" horiz-adv-x="1255" 
d="M575 1219l-231 337c-8 13 0 27 16 27h54c17 0 29 -6 37 -18l182 -230l186 232c8 11 20 16 35 16h53c16 0 25 -12 17 -27l-234 -337c-4 -9 -12 -14 -24 -15h-64c-11 1 -20 6 -27 15zM705 1067c130 0 232 -42 306 -127s111 -208 111 -369v-551c0 -13 -7 -20 -20 -20h-107
c-13 0 -20 7 -20 20v551c0 117 -28 209 -83 274s-131 97 -228 97s-178 -32 -243 -97s-104 -159 -118 -282v-543c0 -13 -7 -20 -20 -20h-107c-13 0 -20 7 -20 20v1002c0 13 7 20 20 20h86c11 0 18 -7 21 -20l10 -180c95 150 232 225 412 225z" />
    <glyph glyph-name="Eng" unicode="&#x14a;" horiz-adv-x="1624" 
d="M1303 1434h106c13 0 20 -7 21 -21v-1399c0 -105 -25 -199 -74 -281c-49 -81 -116 -135 -199 -161c-12 -1 -20 3 -24 12l-35 82c-7 11 -3 20 12 29c107 52 172 171 172 323v29l-938 1118v-1145c0 -13 -7 -20 -20 -20h-109c-13 0 -20 7 -20 20v1393c0 13 7 20 20 21h74
c11 0 18 -4 22 -11l971 -1151v1141c0 13 7 20 21 21z" />
    <glyph glyph-name="eng" unicode="&#x14b;" horiz-adv-x="1255" 
d="M705 1067c130 0 232 -42 306 -127s111 -208 111 -369v-557c0 -105 -24 -199 -73 -281c-49 -81 -116 -135 -199 -161c-12 -1 -20 3 -25 12l-34 82c-4 11 0 20 12 29c115 61 172 169 172 323v553c0 117 -28 209 -83 274s-131 97 -228 97s-178 -32 -243 -97
s-104 -159 -118 -282v-543c0 -13 -7 -20 -20 -20h-107c-13 0 -20 7 -20 20v1002c0 13 7 20 20 20h86c9 0 16 -7 21 -20l10 -180c95 150 232 225 412 225z" />
    <glyph glyph-name="Omacron" unicode="&#x14c;" horiz-adv-x="1701" 
d="M1171 1661l-639 -2c-13 0 -20 7 -20 20v72c0 13 7 20 20 21l639 2c12 0 18 -7 19 -21l2 -72c0 -13 -7 -20 -21 -20zM1384 174c-132 -133 -309 -199 -532 -199s-400 66 -531 199c-132 133 -198 310 -198 533c0 224 66 404 199 539c132 135 309 202 530 202
c223 0 400 -68 532 -203c131 -135 197 -315 197 -538s-66 -400 -197 -533zM428 275c105 -105 247 -158 424 -158s319 53 424 158s158 249 158 432s-53 328 -158 437s-247 163 -424 163c-176 0 -317 -54 -423 -163s-159 -254 -159 -437s53 -327 158 -432z" />
    <glyph glyph-name="omacron" unicode="&#x14d;" horiz-adv-x="1269" 
d="M954 1286l-639 -2c-13 0 -20 7 -20 21v71c0 13 7 20 20 21l639 2c12 0 18 -7 19 -21l2 -71c0 -13 -7 -20 -21 -21zM635 -25c-157 0 -288 52 -391 157c-104 105 -156 235 -156 390c0 154 52 283 157 388c104 105 234 157 390 157c155 0 285 -52 390 -156
c105 -105 157 -234 157 -389s-52 -285 -157 -390s-235 -157 -390 -157zM635 100c113 0 209 40 288 120c78 80 117 181 117 302c0 120 -39 220 -117 300c-79 80 -175 120 -288 120c-115 0 -211 -39 -289 -118s-117 -180 -117 -302c0 -123 39 -224 117 -303s174 -119 289 -119
z" />
    <glyph glyph-name="Ohungarumlaut" unicode="&#x150;" horiz-adv-x="1701" 
d="M748 1573h-78c-16 0 -28 11 -23 31l144 323c5 11 13 16 22 17h111c19 0 30 -16 22 -35l-178 -322c-4 -9 -11 -14 -20 -14zM1059 1573h-78c-16 0 -30 14 -25 31l144 323c5 11 13 16 24 17h111c19 0 31 -16 22 -35l-178 -322c-4 -9 -11 -14 -20 -14zM1384 174
c-132 -133 -309 -199 -532 -199s-400 66 -531 199c-132 133 -198 310 -198 533c0 224 66 404 199 539c132 135 309 202 530 202c223 0 400 -68 532 -203c131 -135 197 -315 197 -538s-66 -400 -197 -533zM428 275c105 -105 247 -158 424 -158s319 53 424 158
s158 249 158 432s-53 328 -158 437s-247 163 -424 163c-176 0 -317 -54 -423 -163s-159 -254 -159 -437s53 -327 158 -432z" />
    <glyph glyph-name="ohungarumlaut" unicode="&#x151;" horiz-adv-x="1269" 
d="M530 1198h-77c-16 0 -28 15 -23 31l143 323c5 11 13 16 23 17h111c19 0 30 -16 22 -35l-178 -322c-4 -9 -11 -14 -21 -14zM842 1198h-78c-16 0 -30 15 -25 31l144 323c5 11 13 16 24 17h111c19 0 31 -16 22 -35l-178 -322c-4 -9 -11 -14 -20 -14zM635 -25
c-157 0 -288 52 -391 157c-104 105 -156 235 -156 390c0 154 52 283 157 388c104 105 234 157 390 157c155 0 285 -52 390 -156c105 -105 157 -234 157 -389s-52 -285 -157 -390s-235 -157 -390 -157zM635 100c113 0 209 40 288 120c78 80 117 181 117 302
c0 120 -39 220 -117 300c-79 80 -175 120 -288 120c-115 0 -211 -39 -289 -118s-117 -180 -117 -302c0 -123 39 -224 117 -303s174 -119 289 -119z" />
    <glyph glyph-name="OE" unicode="&#x152;" horiz-adv-x="2641" 
d="M1651 139h872c13 0 20 -7 21 -20v-99c0 -13 -7 -20 -21 -20h-999c-13 0 -20 7 -21 20v322c-57 -116 -142 -206 -255 -270c-113 -65 -245 -97 -396 -97c-223 0 -400 66 -531 199c-132 133 -198 310 -198 533c0 224 66 404 199 539c132 135 309 202 530 202
c151 0 283 -33 396 -98c113 -66 198 -158 255 -277v340c0 13 7 20 21 21h991c13 0 20 -7 20 -21v-98c0 -13 -7 -20 -20 -21h-864v-512h733c13 0 20 -7 20 -20v-78c0 -13 -7 -20 -20 -20h-733v-525zM852 119c177 0 318 52 423 157c105 104 157 248 157 431s-52 328 -157 436
s-246 162 -423 162c-176 0 -317 -54 -422 -162s-158 -253 -158 -436s52 -327 156 -431c104 -105 245 -157 424 -157z" />
    <glyph glyph-name="oe" unicode="&#x153;" horiz-adv-x="2201" 
d="M1602 1067c146 0 268 -51 366 -153c97 -103 146 -233 146 -390v-37c-3 -12 -10 -18 -23 -18h-870c8 -112 50 -201 126 -268c75 -67 171 -101 287 -101c153 0 276 67 371 201c9 11 19 11 29 2l57 -57c9 -9 9 -20 0 -33c-49 -74 -115 -132 -198 -174
c-83 -43 -172 -64 -269 -64c-112 0 -212 28 -299 83s-151 130 -192 225c-42 -94 -107 -169 -195 -224c-89 -56 -189 -84 -301 -84c-157 0 -288 52 -392 156c-105 104 -157 234 -157 390c0 155 52 285 156 390c103 104 232 156 387 156c112 0 212 -29 301 -86
s154 -134 196 -229c41 95 103 172 187 229c83 57 179 86 287 86zM637 100c113 0 209 39 287 116c77 77 116 176 116 296c0 123 -39 225 -117 307c-79 82 -175 123 -290 123c-113 0 -209 -39 -287 -118s-117 -181 -117 -304c0 -121 39 -222 117 -301s175 -119 291 -119z
M1866 844c-70 65 -157 98 -260 98c-104 0 -192 -33 -263 -98c-72 -66 -113 -153 -124 -260h763c-8 108 -47 195 -116 260z" />
    <glyph glyph-name="Racute" unicode="&#x154;" horiz-adv-x="1357" 
d="M731 1573h-65c-16 0 -28 11 -23 31l143 323c5 11 13 16 23 17h98c19 0 31 -16 23 -35l-178 -322c-3 -9 -10 -14 -21 -14zM938 606l293 -579c9 -18 4 -27 -17 -27h-114c-11 0 -18 5 -23 14l-284 568c-8 -1 -20 -2 -37 -2h-412v-560c0 -13 -7 -20 -20 -20h-109
c-13 0 -20 7 -20 20v1393c0 13 7 20 20 21h541c146 0 263 -38 351 -114s132 -177 132 -302c0 -98 -27 -183 -80 -256s-127 -125 -221 -156zM756 1294h-412v-579h412c104 0 187 27 248 81s92 123 92 208c0 84 -31 153 -93 208c-63 55 -145 82 -247 82z" />
    <glyph glyph-name="racute" unicode="&#x155;" horiz-adv-x="796" 
d="M457 1198h-66c-16 0 -27 15 -22 31l143 323c5 11 13 16 23 17h98c19 0 31 -16 22 -35l-178 -322c-3 -9 -9 -14 -20 -14zM745 1061c18 -3 22 -12 13 -29l-60 -110c-4 -7 -10 -10 -18 -11c-5 0 -24 2 -43 2c-191 0 -303 -114 -336 -342v-551c0 -13 -7 -20 -20 -20h-103
c-13 0 -20 7 -20 20l-2 1002c0 13 7 20 20 20h86c9 0 16 -7 21 -20l10 -184c69 134 185 208 346 223c37 5 72 5 106 0z" />
    <glyph glyph-name="uni0156" unicode="&#x156;" horiz-adv-x="1357" 
d="M938 606l293 -579c9 -18 4 -27 -17 -27h-114c-11 0 -18 5 -23 14l-284 568c-8 -1 -20 -2 -37 -2h-412v-560c0 -13 -7 -20 -20 -20h-109c-13 0 -20 7 -20 20v1393c0 13 7 20 20 21h541c146 0 263 -38 351 -114s132 -177 132 -302c0 -98 -27 -183 -80 -256
s-127 -125 -221 -156zM756 1294h-412v-579h412c104 0 187 27 248 81s92 123 92 208c0 84 -31 153 -93 208c-63 55 -145 82 -247 82zM694 -156c83 0 125 -62 125 -186c0 -142 -78 -247 -235 -315c-8 0 -14 3 -17 8l-14 35c-1 9 2 16 10 20c39 15 75 38 107 68
c31 30 46 61 45 92c-1 33 -19 49 -53 49c-55 0 -91 45 -91 109c0 33 12 61 37 84c25 24 53 36 86 36z" />
    <glyph glyph-name="uni0157" unicode="&#x157;" horiz-adv-x="796" 
d="M745 1061c18 -3 22 -12 13 -29l-60 -110c-4 -7 -10 -10 -18 -11c-5 0 -24 2 -43 2c-191 0 -303 -114 -336 -342v-551c0 -13 -7 -20 -20 -20h-103c-13 0 -20 7 -20 20l-2 1002c0 13 7 20 20 20h86c9 0 16 -7 21 -20l10 -184c69 134 185 208 346 223c37 5 72 5 106 0z
M238 -156c83 0 125 -62 124 -186c0 -142 -78 -247 -235 -315c-8 0 -13 3 -16 8l-15 35c-1 9 2 16 10 20c39 15 75 38 107 68c31 30 46 61 45 92c-1 33 -19 49 -53 49c-55 0 -90 45 -90 109c0 33 12 61 37 84c25 24 53 36 86 36z" />
    <glyph glyph-name="Rcaron" unicode="&#x158;" horiz-adv-x="1357" 
d="M612 1593l-231 338c-8 13 0 27 16 27h54c17 0 29 -6 36 -19l183 -229l186 232c8 11 20 16 35 16h53c16 0 25 -12 17 -27l-234 -338c-4 -9 -12 -14 -25 -14h-63c-11 0 -20 5 -27 14zM938 606l293 -579c9 -18 4 -27 -17 -27h-114c-11 0 -18 5 -23 14l-284 568
c-8 -1 -20 -2 -37 -2h-412v-560c0 -13 -7 -20 -20 -20h-109c-13 0 -20 7 -20 20v1393c0 13 7 20 20 21h541c146 0 263 -38 351 -114s132 -177 132 -302c0 -98 -27 -183 -80 -256s-127 -125 -221 -156zM756 1294h-412v-579h412c104 0 187 27 248 81s92 123 92 208
c0 84 -31 153 -93 208c-63 55 -145 82 -247 82z" />
    <glyph glyph-name="rcaron" unicode="&#x159;" horiz-adv-x="796" 
d="M428 1204h-63c-11 0 -20 5 -27 15l-232 337c-8 13 1 27 17 27h53c17 0 29 -6 37 -18l182 -230l187 232c8 11 19 16 34 16h54c16 0 24 -12 16 -27l-233 -337c-4 -9 -12 -14 -25 -15zM745 1061c18 -3 22 -12 13 -29l-60 -110c-4 -7 -10 -10 -18 -11c-5 0 -24 2 -43 2
c-191 0 -303 -114 -336 -342v-551c0 -13 -7 -20 -20 -20h-103c-13 0 -20 7 -20 20l-2 1002c0 13 7 20 20 20h86c9 0 16 -7 21 -20l10 -184c69 134 185 208 346 223c37 5 72 5 106 0z" />
    <glyph glyph-name="Sacute" unicode="&#x15a;" horiz-adv-x="1226" 
d="M678 1573h-66c-16 0 -27 11 -22 31l143 323c5 11 13 16 23 17h98c19 0 31 -16 23 -35l-179 -322c-3 -9 -9 -14 -20 -14zM629 -25c-203 0 -376 76 -518 228c-7 8 -7 17 -2 28l53 78c7 13 16 14 28 2c128 -131 253 -196 422 -196c107 0 192 24 256 73c63 48 95 116 95 205
c0 79 -28 137 -83 174c-55 36 -149 70 -282 101c-37 8 -61 14 -74 17s-38 10 -75 21c-37 10 -64 20 -81 29s-41 20 -70 35c-59 28 -80 63 -114 108c-34 44 -49 106 -49 175c0 119 44 214 133 287c89 72 205 108 350 108c173 0 329 -62 467 -186c9 -7 12 -16 7 -29l-45 -78
c-7 -11 -16 -13 -29 -6c-127 109 -258 164 -395 164c-101 0 -183 -23 -246 -69c-63 -47 -94 -110 -94 -189c0 -68 33 -121 67 -151c17 -15 42 -30 77 -43c35 -14 63 -24 86 -30c23 -7 56 -15 99 -24c61 -13 111 -25 148 -35c37 -11 80 -27 130 -49s89 -46 117 -73
c56 -53 103 -146 103 -261c0 -129 -43 -230 -130 -303c-87 -74 -204 -111 -351 -111z" />
    <glyph glyph-name="sacute" unicode="&#x15b;" horiz-adv-x="983" 
d="M549 1198h-66c-16 0 -27 15 -22 31l143 323c5 11 13 16 23 17h98c19 0 31 -16 23 -35l-179 -322c-3 -9 -9 -14 -20 -14zM494 -25c-93 0 -175 15 -247 46c-72 30 -126 70 -161 120c-9 11 -9 21 0 31l41 59c8 12 19 13 33 2c61 -89 171 -133 329 -133c175 0 271 68 271 191
c0 59 -21 100 -64 124s-118 47 -223 68c-45 9 -81 18 -108 25s-60 18 -97 33c-38 15 -67 31 -87 50c-41 36 -79 98 -79 177c0 91 36 164 108 218c71 54 166 81 284 81c142 0 267 -46 374 -139c12 -8 13 -18 4 -31l-41 -55c-8 -11 -19 -13 -32 -6c-82 71 -181 106 -297 106
c-161 0 -260 -63 -260 -170c0 -41 8 -70 41 -93c16 -11 30 -21 41 -28c11 -8 31 -16 60 -23c29 -8 49 -13 60 -15c10 -2 33 -7 70 -15c60 -12 110 -24 150 -37c39 -13 79 -31 119 -54c79 -45 116 -115 116 -216c0 -97 -35 -173 -106 -230s-170 -86 -299 -86z" />
    <glyph glyph-name="Scedilla" unicode="&#x15e;" horiz-adv-x="1226" 
d="M1110 389c0 -124 -41 -223 -123 -296c-82 -74 -194 -113 -336 -118l-22 -69c108 -25 162 -79 162 -164c0 -115 -98 -186 -297 -186c-13 0 -20 7 -21 20v41c0 12 7 19 21 21l18 2c24 0 25 -1 50 2c12 1 21 3 27 4c12 3 41 8 52 15s33 19 40 32s15 34 15 55
c0 36 -14 60 -46 76c-17 8 -31 13 -42 16c-12 3 -30 7 -53 13c-13 4 -18 11 -14 20l30 104c-179 12 -332 87 -460 226c-7 8 -7 17 -2 28l53 78c7 13 16 14 28 2c128 -131 253 -196 422 -196c107 0 192 24 256 73c63 48 95 116 95 205c0 79 -28 137 -83 174
c-55 36 -149 70 -282 101c-37 8 -61 14 -74 17s-38 10 -75 21c-37 10 -64 20 -81 29s-41 20 -70 35c-59 28 -80 63 -114 108c-34 44 -49 106 -49 175c0 119 44 214 133 287c89 72 205 108 350 108c173 0 329 -62 467 -186c9 -7 12 -16 7 -29l-45 -78c-7 -11 -16 -13 -29 -6
c-127 109 -258 164 -395 164c-101 0 -183 -23 -246 -69c-63 -47 -94 -110 -94 -189c0 -68 33 -121 67 -151c17 -15 42 -30 77 -43c35 -14 63 -24 86 -30c23 -7 56 -15 99 -24c61 -13 111 -25 148 -35c37 -11 80 -27 130 -49s89 -46 117 -73c56 -53 103 -146 103 -261z" />
    <glyph glyph-name="scedilla" unicode="&#x15f;" horiz-adv-x="983" 
d="M899 291c0 -93 -33 -167 -99 -224c-67 -57 -160 -87 -280 -92l-22 -69c108 -25 162 -79 161 -164c0 -115 -97 -186 -297 -186c-13 0 -20 7 -20 20v41c0 12 7 19 20 21l19 2c24 0 25 -1 50 2c12 1 21 3 27 4c12 3 41 8 52 15s33 19 40 32s15 34 15 55c0 36 -14 60 -46 76
c-17 8 -31 13 -42 16c-12 3 -30 7 -53 13c-13 4 -18 11 -14 20l30 104c-167 12 -285 67 -354 164c-9 11 -9 21 0 31l41 59c8 12 19 13 33 2c61 -89 171 -133 329 -133c175 0 271 68 271 191c0 59 -21 100 -64 124s-118 47 -223 68c-45 9 -81 18 -108 25s-60 18 -97 33
c-38 15 -67 31 -87 50c-41 36 -79 98 -79 177c0 91 36 164 108 218c71 54 166 81 284 81c142 0 267 -46 374 -139c12 -8 13 -18 4 -31l-41 -55c-8 -11 -19 -13 -32 -6c-82 71 -181 106 -297 106c-161 0 -260 -63 -260 -170c0 -41 8 -70 41 -93c16 -11 30 -21 41 -28
c11 -8 31 -16 60 -23c29 -8 49 -13 60 -15c10 -2 33 -7 70 -15c60 -12 110 -24 150 -37c39 -13 79 -31 119 -54c79 -45 116 -115 116 -216z" />
    <glyph glyph-name="Scaron" unicode="&#x160;" horiz-adv-x="1226" 
d="M559 1593l-231 338c-8 13 0 27 16 27h53c17 0 29 -6 37 -19l182 -229l187 232c8 11 20 16 35 16h53c16 0 24 -12 16 -27l-233 -338c-4 -9 -12 -14 -25 -14h-63c-11 0 -20 5 -27 14zM612 807c61 -13 111 -25 148 -35c37 -11 80 -27 130 -49s89 -46 117 -73
c56 -53 103 -146 103 -261c0 -129 -43 -230 -130 -303c-87 -74 -204 -111 -351 -111c-203 0 -376 76 -518 228c-7 8 -7 17 -2 28l53 78c7 13 16 14 28 2c128 -131 253 -196 422 -196c107 0 192 24 256 73c63 48 95 116 95 205c0 79 -28 137 -83 174c-55 36 -149 70 -282 101
c-37 8 -61 14 -74 17s-38 10 -75 21c-37 10 -64 20 -81 29s-41 20 -70 35c-59 28 -80 63 -114 108c-34 44 -49 106 -49 175c0 119 44 214 133 287c89 72 205 108 350 108c173 0 329 -62 467 -186c9 -7 12 -16 7 -29l-45 -78c-7 -11 -16 -13 -29 -6
c-127 109 -258 164 -395 164c-101 0 -183 -23 -246 -69c-63 -47 -94 -110 -94 -189c0 -68 33 -121 67 -151c17 -15 42 -30 77 -43c35 -14 63 -24 86 -30c22 -7 55 -15 99 -24z" />
    <glyph glyph-name="scaron" unicode="&#x161;" horiz-adv-x="983" 
d="M430 1219l-231 337c-8 13 0 27 16 27h53c17 0 29 -6 37 -18l182 -230l187 232c8 11 20 16 35 16h53c16 0 24 -12 16 -27l-233 -337c-5 -9 -14 -14 -25 -15h-63c-11 1 -20 6 -27 15zM514 598c60 -12 110 -24 150 -37c39 -13 79 -31 119 -54c79 -45 116 -115 116 -216
c0 -97 -35 -173 -106 -230s-171 -86 -299 -86c-93 0 -175 15 -247 46c-72 30 -126 70 -161 120c-9 11 -9 21 0 31l41 59c8 12 19 13 33 2c61 -89 171 -133 329 -133c175 0 271 68 271 191c0 59 -21 100 -64 124s-118 47 -223 68c-45 9 -81 18 -108 25s-60 18 -97 33
c-38 15 -67 31 -87 50c-41 36 -79 98 -79 177c0 91 36 164 108 218c71 54 166 81 284 81c142 0 267 -46 374 -139c12 -8 13 -18 4 -31l-41 -55c-8 -11 -19 -13 -32 -6c-82 71 -181 106 -297 106c-161 0 -260 -63 -260 -170c0 -41 8 -70 41 -93c16 -11 30 -21 41 -28
c11 -8 31 -16 60 -23c29 -8 49 -13 60 -15c10 -2 33 -7 70 -15z" />
    <glyph glyph-name="uni0162" unicode="&#x162;" horiz-adv-x="1390" 
d="M102 1434h1184c13 0 20 -7 21 -21v-100c0 -13 -7 -20 -21 -21h-518v-1272c0 -13 -7 -20 -20 -20h-13l-28 -86c108 -25 162 -79 161 -164c0 -115 -97 -186 -297 -186c-13 0 -20 7 -20 20v41c0 12 7 19 20 21l19 2c24 0 25 -1 49 2c12 1 21 3 28 4c12 3 41 8 52 15
s33 19 40 32s15 34 15 55c0 36 -14 60 -47 76c-17 8 -31 13 -42 16s-29 8 -52 13c-13 4 -18 11 -15 20l35 119h-12c-13 0 -20 7 -20 20v1272h-519c-13 0 -20 7 -20 21v100c0 13 7 20 20 21z" />
    <glyph glyph-name="uni0163" unicode="&#x163;" horiz-adv-x="770" 
d="M688 109l21 -68c4 -9 -1 -18 -15 -25c-51 -22 -106 -34 -166 -36l-22 -72c108 -25 162 -79 162 -164c0 -115 -98 -186 -297 -186c-13 0 -20 7 -21 20v41c0 12 7 19 21 21h18c24 3 25 1 50 4c12 1 21 3 27 4c12 3 41 8 52 15s33 19 40 32s15 34 15 55c0 36 -14 60 -46 76
c-17 8 -31 13 -42 16c-12 3 -30 7 -53 13c-13 4 -18 11 -14 20l31 105c-164 21 -246 137 -246 348v592h-135c-13 0 -20 7 -21 20v82c0 13 7 20 21 20h135v287c0 13 7 20 20 21h105c13 0 20 -7 20 -21v-287h318c13 0 20 -7 20 -20v-82c0 -13 -7 -20 -20 -20h-318v-598
c0 -86 15 -144 44 -175s78 -47 145 -47c39 0 72 5 85 10c12 4 32 10 37 13c13 5 23 1 29 -14z" />
    <glyph glyph-name="Tcaron" unicode="&#x164;" horiz-adv-x="1390" 
d="M635 1593l-232 338c-8 13 1 27 17 27h53c17 0 29 -6 37 -19l182 -229l187 232c8 11 19 16 34 16h54c16 0 24 -12 16 -27l-233 -338c-5 -9 -14 -14 -25 -14h-63c-11 0 -20 5 -27 14zM102 1434h1184c13 0 20 -7 21 -21v-100c0 -13 -7 -20 -21 -21h-518v-1272
c0 -13 -7 -20 -20 -20h-107c-13 0 -20 7 -20 20v1272h-519c-13 0 -20 7 -20 21v100c0 13 7 20 20 21z" />
    <glyph glyph-name="tcaron" unicode="&#x165;" horiz-adv-x="770" 
d="M678 1497h110c16 0 31 -16 23 -33l-178 -323c-7 -9 -14 -14 -23 -15h-75c-16 0 -30 17 -25 33l143 322c4 11 12 16 25 16zM688 109l21 -68c4 -9 -1 -18 -15 -25c-57 -26 -123 -39 -198 -39c-195 0 -293 117 -293 351v592h-135c-13 0 -20 7 -21 20v82c0 13 7 20 21 20h135
v287c0 13 7 20 20 21h105c13 0 20 -7 20 -21v-287h318c13 0 20 -7 20 -20v-82c0 -13 -7 -20 -20 -20h-318v-598c0 -86 15 -144 44 -175s78 -47 145 -47c39 0 72 5 85 10c12 4 32 10 37 13c14 6 24 1 29 -14z" />
    <glyph glyph-name="Tbar" unicode="&#x166;" horiz-adv-x="1390" 
d="M102 1434h1184c13 0 20 -7 21 -21v-100c0 -13 -7 -20 -21 -21h-518v-520h223c13 0 20 -7 21 -20v-72c0 -13 -7 -20 -21 -21h-223v-639c0 -13 -7 -20 -20 -20h-107c-13 0 -20 7 -20 20v639h-224c-13 0 -20 7 -20 21v70c0 13 7 20 20 20h224v522h-519c-13 0 -20 7 -20 21
v100c0 13 7 20 20 21z" />
    <glyph glyph-name="tbar" unicode="&#x167;" horiz-adv-x="770" 
d="M688 109l21 -68c4 -9 -1 -18 -15 -25c-57 -26 -123 -39 -198 -39c-195 0 -293 117 -293 351v137h-119c-13 0 -20 7 -21 20v70c0 13 7 20 21 20h119v345h-135c-13 0 -20 7 -21 20v82c0 13 7 20 21 20h135v287c0 13 7 20 20 21h105c13 0 20 -7 20 -21v-287h318
c13 0 20 -7 20 -20v-82c0 -13 -7 -20 -20 -20h-318v-345l330 3c13 0 20 -7 20 -21v-72c0 -13 -7 -20 -20 -20h-330v-143c0 -86 15 -144 44 -175s78 -47 145 -47c39 0 72 5 85 10c12 4 32 10 37 13c13 5 23 1 29 -14z" />
    <glyph glyph-name="Utilde" unicode="&#x168;" horiz-adv-x="1478" 
d="M518 1595c-7 -13 -16 -17 -29 -10l-43 23c-8 4 -11 11 -8 22c34 91 88 137 162 137c38 0 86 -17 143 -50s98 -50 123 -50c38 0 70 23 97 68c7 15 15 19 26 12l43 -21c9 -4 13 -11 10 -20c-33 -100 -87 -150 -163 -150c-37 0 -84 18 -143 54c-59 35 -101 53 -124 53
c-35 0 -67 -23 -94 -68zM739 -23c-179 0 -319 60 -420 179c-102 119 -153 281 -153 487v770c0 13 7 20 20 21h107c13 0 20 -7 20 -21v-770c0 -165 37 -293 112 -383s180 -135 315 -135s239 45 313 135c73 90 110 218 110 383v770c0 13 7 20 21 21h108c13 0 20 -7 21 -21
v-770c0 -206 -51 -368 -154 -487s-243 -179 -420 -179z" />
    <glyph glyph-name="utilde" unicode="&#x169;" horiz-adv-x="1249" 
d="M365 1225l-43 22c-8 4 -11 12 -9 23c34 91 88 137 162 137c38 0 86 -17 144 -50c57 -33 98 -50 122 -50c38 0 70 22 97 67c7 15 15 19 26 12l43 -20c9 -4 13 -11 11 -20c-33 -100 -87 -150 -164 -150c-37 0 -84 18 -143 54c-59 35 -101 53 -124 53c-35 0 -67 -23 -94 -68
c-7 -13 -16 -17 -28 -10zM965 1042h108c13 0 20 -7 21 -20v-1002c0 -13 -7 -20 -21 -20h-86c-11 0 -17 7 -20 20l-13 160c-91 -137 -226 -205 -403 -205c-265 0 -418 171 -418 496v551c0 13 7 20 21 20h106c13 0 20 -7 21 -20v-551c0 -117 28 -208 84 -273s132 -98 229 -98
c191 0 323 132 350 377v545c0 13 7 20 21 20z" />
    <glyph glyph-name="Umacron" unicode="&#x16a;" horiz-adv-x="1478" 
d="M1059 1647l-639 -2c-13 0 -20 7 -21 20v72c0 13 7 20 21 20l639 2c12 0 18 -7 18 -20l2 -72c0 -13 -7 -20 -20 -20zM739 -23c-179 0 -319 60 -420 179c-102 119 -153 281 -153 487v770c0 13 7 20 20 21h107c13 0 20 -7 20 -21v-770c0 -165 37 -293 112 -383
s180 -135 315 -135s239 45 313 135c73 90 110 218 110 383v770c0 13 7 20 21 21h108c13 0 20 -7 21 -21v-770c0 -206 -51 -368 -154 -487s-243 -179 -420 -179z" />
    <glyph glyph-name="umacron" unicode="&#x16b;" horiz-adv-x="1249" 
d="M934 1286l-639 -2c-13 0 -20 7 -21 21v71c0 13 7 20 21 21l639 2c12 0 18 -7 18 -21l2 -71c0 -13 -7 -20 -20 -21zM965 1042h108c13 0 20 -7 21 -20v-1002c0 -13 -7 -20 -21 -20h-86c-11 0 -17 7 -20 20l-13 160c-91 -137 -226 -205 -403 -205c-265 0 -418 171 -418 496
v551c0 13 7 20 21 20h106c13 0 20 -7 21 -20v-551c0 -117 28 -208 84 -273s132 -98 229 -98c191 0 323 132 350 377v545c0 13 7 20 21 20z" />
    <glyph glyph-name="Uring" unicode="&#x16e;" horiz-adv-x="1478" 
d="M739 1528c-57 0 -105 19 -143 57s-57 86 -57 144c0 57 19 105 57 144s86 58 143 58s105 -19 144 -58c38 -39 57 -86 57 -142c0 -59 -19 -107 -58 -145c-39 -39 -87 -58 -143 -58zM650 1640c24 -24 54 -36 90 -36c35 0 65 12 89 35c23 23 35 53 35 90
c0 74 -53 126 -125 126c-73 0 -125 -53 -125 -124c0 -37 12 -67 36 -91zM739 -23c-179 0 -319 60 -420 179c-102 119 -153 281 -153 487v770c0 13 7 20 20 21h107c13 0 20 -7 20 -21v-770c0 -165 37 -293 112 -383s180 -135 315 -135s239 45 313 135c73 90 110 218 110 383
v770c0 13 7 20 21 21h108c13 0 20 -7 21 -21v-770c0 -206 -51 -368 -154 -487s-243 -179 -420 -179z" />
    <glyph glyph-name="uring" unicode="&#x16f;" horiz-adv-x="1249" 
d="M758 1225c-39 -39 -87 -58 -144 -58s-105 19 -143 58c-38 38 -57 86 -57 143s19 106 57 145s86 58 143 58s105 -19 144 -58c38 -39 57 -87 57 -143c0 -59 -19 -107 -57 -145zM614 1495c-73 0 -125 -54 -125 -125c0 -73 54 -127 126 -127c35 0 65 12 89 35
c23 23 35 53 35 90s-12 67 -36 91s-54 36 -89 36zM965 1042h108c13 0 20 -7 21 -20v-1002c0 -13 -7 -20 -21 -20h-86c-11 0 -17 7 -20 20l-13 160c-91 -137 -226 -205 -403 -205c-265 0 -418 171 -418 496v551c0 13 7 20 21 20h106c13 0 20 -7 21 -20v-551
c0 -117 28 -208 84 -273s132 -98 229 -98c191 0 323 132 350 377v545c0 13 7 20 21 20z" />
    <glyph glyph-name="Uhungarumlaut" unicode="&#x170;" horiz-adv-x="1478" 
d="M635 1559h-78c-16 0 -29 14 -22 30l143 324c5 11 13 16 22 16h111c19 0 31 -15 23 -35l-179 -321c-5 -9 -12 -14 -20 -14zM946 1559h-78c-16 0 -29 14 -24 30l143 324c5 11 14 16 25 16h110c19 0 31 -15 23 -35l-178 -321c-5 -9 -12 -14 -21 -14zM739 -23
c-179 0 -319 60 -420 179c-102 119 -153 281 -153 487v770c0 13 7 20 20 21h107c13 0 20 -7 20 -21v-770c0 -165 37 -293 112 -383s180 -135 315 -135s239 45 313 135c73 90 110 218 110 383v770c0 13 7 20 21 21h108c13 0 20 -7 21 -21v-770c0 -206 -51 -368 -154 -487
s-243 -179 -420 -179z" />
    <glyph glyph-name="uhungarumlaut" unicode="&#x171;" horiz-adv-x="1249" 
d="M510 1198h-78c-16 0 -27 15 -22 31l143 323c5 11 13 16 22 17h111c19 0 31 -16 23 -35l-179 -322c-4 -9 -11 -14 -20 -14zM821 1198h-78c-16 0 -29 15 -24 31l143 323c5 11 14 16 25 17h110c19 0 31 -16 23 -35l-178 -322c-4 -9 -11 -14 -21 -14zM965 1042h108
c13 0 20 -7 21 -20v-1002c0 -13 -7 -20 -21 -20h-86c-11 0 -17 7 -20 20l-13 160c-91 -137 -226 -205 -403 -205c-265 0 -418 171 -418 496v551c0 13 7 20 21 20h106c13 0 20 -7 21 -20v-551c0 -117 28 -208 84 -273s132 -98 229 -98c191 0 323 132 350 377v545
c0 13 7 20 21 20z" />
    <glyph glyph-name="Uogonek" unicode="&#x172;" horiz-adv-x="1478" 
d="M1184 1434h108c13 0 20 -7 21 -21v-770c0 -198 -47 -356 -142 -474s-226 -181 -393 -189c-8 -108 -149 -176 -143 -250c0 -37 19 -64 58 -82c38 -18 93 -15 165 8c9 5 17 3 23 -8l16 -47c3 -9 0 -16 -8 -21c-91 -39 -172 -44 -241 -13c-70 31 -105 82 -105 154
c0 47 25 95 74 146s76 88 81 113c-167 9 -297 73 -391 190s-141 275 -141 473v770c0 13 7 20 20 21h107c13 0 20 -7 20 -21v-770c0 -165 37 -293 112 -383s180 -135 315 -135s239 45 313 135c73 90 110 218 110 383v770c0 13 7 20 21 21z" />
    <glyph glyph-name="uogonek" unicode="&#x173;" horiz-adv-x="1249" 
d="M1194 -332l16 -47c3 -9 0 -16 -8 -20c-91 -39 -172 -44 -241 -14c-70 31 -105 82 -105 155c-6 109 144 186 156 258h-25c-11 0 -17 7 -20 20l-13 160c-91 -137 -226 -205 -403 -205c-265 0 -418 171 -418 496v551c0 13 7 20 21 20h106c13 0 20 -7 21 -20v-551
c0 -117 28 -208 84 -273s132 -98 229 -98c191 0 323 132 350 377v545c0 13 7 20 21 20h108c13 0 20 -7 21 -20v-1002c5 -120 -153 -192 -146 -270c0 -37 19 -64 58 -82c38 -17 93 -15 165 8c9 5 17 3 23 -8z" />
    <glyph glyph-name="Wcircumflex" unicode="&#x174;" horiz-adv-x="2152" 
d="M854 1579h-53c-16 0 -25 12 -17 29l232 336c7 9 15 14 24 14h64c13 0 22 -4 26 -12l234 -338c8 -13 0 -29 -16 -29h-54c-15 0 -28 6 -37 18l-184 230l-182 -230c-9 -12 -22 -18 -37 -18zM1939 1434h107c18 0 24 -9 18 -27l-460 -1391c-3 -11 -10 -16 -23 -16h-88
c-12 0 -20 5 -25 16l-393 1084l-393 -1084c-4 -11 -12 -16 -25 -16h-88c-12 0 -19 5 -22 16l-461 1391c-5 13 5 27 18 27h109c13 0 21 -6 23 -17l382 -1173l392 1102c7 12 15 18 24 18h82c9 0 17 -6 23 -18l391 -1110l385 1181c4 11 12 16 24 17z" />
    <glyph glyph-name="wcircumflex" unicode="&#x175;" horiz-adv-x="1624" 
d="M592 1204h-53c-16 0 -25 13 -17 29l232 336c7 9 15 14 24 14h64c13 0 22 -4 26 -12l234 -338c8 -13 0 -29 -17 -29h-53c-15 0 -28 6 -37 19l-184 229l-182 -229c-9 -12 -22 -18 -37 -19zM1454 1042h98c15 0 22 -8 19 -24l-357 -1002c-3 -11 -9 -16 -20 -16h-86
c-11 0 -18 5 -23 16l-276 799l-272 -799c-4 -11 -12 -16 -23 -16h-86c-11 0 -18 5 -22 16l-351 1002c-4 17 2 25 17 24h98c13 0 22 -6 27 -18l274 -834l272 822c4 12 13 18 27 18h80c13 0 22 -6 27 -18l276 -826l274 838c5 12 14 18 27 18z" />
    <glyph glyph-name="Ycircumflex" unicode="&#x176;" horiz-adv-x="1411" 
d="M487 1579h-53c-16 0 -24 12 -16 29l231 336c7 9 15 14 25 14h63c13 0 22 -4 27 -12l233 -338c8 -13 0 -29 -16 -29h-53c-15 0 -28 6 -37 18l-184 230l-183 -230c-9 -12 -22 -18 -37 -18zM1194 1434h123c19 0 25 -18 14 -31l-551 -729v-654c0 -13 -7 -20 -20 -20h-107
c-13 0 -20 7 -20 20v658l-553 725c-13 13 -3 31 16 31h121c13 0 22 -5 27 -15l465 -614l458 614c5 9 14 14 27 15z" />
    <glyph glyph-name="ycircumflex" unicode="&#x177;" horiz-adv-x="1075" 
d="M319 1204h-53c-16 0 -24 13 -16 29l231 336c7 9 15 14 25 14h63c13 0 22 -4 27 -12l233 -338c8 -13 0 -29 -16 -29h-53c-15 0 -28 6 -37 19l-184 229l-183 -229c-9 -12 -22 -18 -37 -19zM899 1042h111c13 0 19 -11 14 -24l-455 -1170c-65 -167 -164 -250 -297 -249
c-65 0 -121 16 -166 49c-9 8 -11 17 -6 26l31 68c7 11 16 13 29 8c29 -18 62 -27 100 -26c84 0 136 54 191 190l32 84l-434 1020c-5 11 3 24 14 24h111c12 0 21 -6 27 -18l352 -842l319 842c5 12 14 18 27 18z" />
    <glyph glyph-name="Ydieresis" unicode="&#x178;" horiz-adv-x="1411" 
d="M590 1616c-38 -39 -97 -39 -136 1c-20 20 -30 43 -30 69c0 51 43 96 98 96c52 0 96 -45 96 -96c0 -27 -9 -51 -28 -70zM893 1587c-52 0 -96 44 -96 99c0 52 41 96 96 96c27 0 51 -10 70 -29c62 -54 15 -168 -70 -166zM1194 1434h123c19 0 25 -18 14 -31l-551 -729v-654
c0 -13 -7 -20 -20 -20h-107c-13 0 -20 7 -20 20v658l-553 725c-13 13 -3 31 16 31h121c13 0 22 -5 27 -15l465 -614l458 614c5 9 14 14 27 15z" />
    <glyph glyph-name="Zacute" unicode="&#x179;" horiz-adv-x="1492" 
d="M807 1573h-66c-16 0 -27 11 -22 31l143 323c5 11 13 16 23 17h98c19 0 31 -16 23 -35l-179 -322c-3 -9 -9 -14 -20 -14zM299 125h1079c13 0 20 -7 21 -21v-84c0 -13 -7 -20 -21 -20h-1263c-13 0 -20 7 -21 20v66c0 8 3 15 8 20l1076 1203h-1053c-13 0 -20 7 -21 20v84
c0 13 7 20 21 21h1233c13 0 20 -7 20 -21v-67c0 -7 -3 -14 -8 -23z" />
    <glyph glyph-name="zacute" unicode="&#x17a;" horiz-adv-x="1044" 
d="M582 1198h-66c-16 0 -29 15 -22 31l143 323c5 11 13 16 22 17h99c19 0 30 -16 22 -35l-178 -322c-3 -9 -9 -14 -20 -14zM975 1022v-72c0 -7 -3 -13 -10 -20l-703 -799h688c13 0 20 -7 21 -20v-91c0 -13 -7 -20 -21 -20h-866c-13 0 -20 7 -21 20v68c0 9 4 16 11 21
l700 802h-659c-13 0 -20 7 -21 21v90c0 13 7 20 21 20h839c13 0 20 -7 21 -20z" />
    <glyph glyph-name="Zdotaccent" unicode="&#x17b;" horiz-adv-x="1492" 
d="M815 1616c-39 -39 -96 -39 -136 1c-20 20 -30 43 -30 69c0 51 44 96 99 96c52 0 96 -45 96 -96c0 -27 -10 -51 -29 -70zM299 125h1079c13 0 20 -7 21 -21v-84c0 -13 -7 -20 -21 -20h-1263c-13 0 -20 7 -21 20v66c0 8 3 15 8 20l1076 1203h-1053c-13 0 -20 7 -21 20v84
c0 13 7 20 21 21h1233c13 0 20 -7 20 -21v-67c0 -7 -3 -14 -8 -23z" />
    <glyph glyph-name="zdotaccent" unicode="&#x17c;" horiz-adv-x="1044" 
d="M590 1241c-54 -64 -169 -15 -166 70c0 52 43 96 98 96c81 6 131 -108 68 -166zM975 1022v-72c0 -7 -3 -13 -10 -20l-703 -799h688c13 0 20 -7 21 -20v-91c0 -13 -7 -20 -21 -20h-866c-13 0 -20 7 -21 20v68c0 9 4 16 11 21l700 802h-659c-13 0 -20 7 -21 21v90
c0 13 7 20 21 20h839c13 0 20 -7 21 -20z" />
    <glyph glyph-name="Zcaron" unicode="&#x17d;" horiz-adv-x="1492" 
d="M688 1593l-231 338c-8 13 0 27 16 27h53c17 0 29 -6 37 -19l182 -229l187 232c8 11 20 16 35 16h53c16 0 24 -12 16 -27l-233 -338c-5 -9 -14 -14 -25 -14h-63c-11 0 -20 5 -27 14zM299 125h1079c13 0 20 -7 21 -21v-84c0 -13 -7 -20 -21 -20h-1263c-13 0 -20 7 -21 20
v66c0 8 3 15 8 20l1076 1203h-1053c-13 0 -20 7 -21 20v84c0 13 7 20 21 21h1233c13 0 20 -7 20 -21v-67c0 -7 -3 -14 -8 -23z" />
    <glyph glyph-name="zcaron" unicode="&#x17e;" horiz-adv-x="1044" 
d="M463 1219l-232 337c-8 13 1 27 17 27h53c17 0 29 -6 37 -18l182 -230l187 232c8 11 19 16 34 16h54c16 0 24 -12 16 -27l-233 -337c-5 -9 -14 -14 -25 -15h-64c-11 1 -19 6 -26 15zM975 1022v-72c0 -7 -3 -13 -10 -20l-703 -799h688c13 0 20 -7 21 -20v-91
c0 -13 -7 -20 -21 -20h-866c-13 0 -20 7 -21 20v68c0 9 4 16 11 21l700 802h-659c-13 0 -20 7 -21 21v90c0 13 7 20 21 20h839c13 0 20 -7 21 -20z" />
    <glyph glyph-name="Ohorn" unicode="&#x1a0;" horiz-adv-x="1701" 
d="M1606 1409v-72c0 -105 -50 -166 -150 -182c83 -124 125 -273 125 -448c0 -223 -66 -400 -197 -533c-132 -133 -309 -199 -532 -199s-400 66 -531 199c-132 133 -198 310 -198 533c0 224 66 404 199 539c132 135 309 202 530 202c225 0 405 -70 539 -211c52 0 77 1 106 30
c14 14 21 35 21 62v80c0 9 5 14 14 14h61c8 0 12 -5 13 -14zM428 275c105 -105 247 -158 424 -158s319 53 424 158s158 249 158 432s-53 328 -158 437s-247 163 -424 163c-176 0 -317 -54 -423 -163s-159 -254 -159 -437s53 -327 158 -432z" />
    <glyph glyph-name="ohorn" unicode="&#x1a1;" horiz-adv-x="1269" 
d="M1178 1090h61c8 0 12 -5 12 -15v-71c0 -115 -49 -170 -153 -183c56 -89 84 -188 84 -299c0 -155 -52 -285 -157 -390s-235 -157 -390 -157c-157 0 -288 52 -391 157c-104 105 -156 235 -156 390c0 154 52 283 157 388c104 105 234 157 390 157c163 0 295 -55 397 -164
c55 0 79 -1 109 29c15 15 22 36 22 63v80c0 9 5 14 15 15zM635 100c113 0 209 40 288 120c78 80 117 181 117 302c0 120 -39 220 -117 300c-79 80 -175 120 -288 120c-115 0 -211 -39 -289 -118s-117 -180 -117 -302c0 -123 39 -224 117 -303s174 -119 289 -119z" />
    <glyph glyph-name="Uhorn" unicode="&#x1af;" horiz-adv-x="1478" 
d="M1446 1620h61c8 0 12 -5 13 -14v-72c0 -133 -66 -181 -207 -186v-705c0 -206 -51 -368 -153 -487c-103 -119 -243 -179 -421 -179c-179 0 -319 60 -420 179c-102 119 -153 281 -153 487v770c0 13 7 20 20 21h107c13 0 20 -7 20 -21v-770c0 -165 37 -293 112 -383
s180 -135 315 -135s239 45 313 135c73 90 110 218 110 383v770c0 13 7 20 21 21h108c30 0 53 1 68 2s30 10 47 25s25 36 25 65v80c0 9 5 14 14 14z" />
    <glyph glyph-name="uhorn" unicode="&#x1b0;" horiz-adv-x="1249" 
d="M1227 1229h61c8 0 12 -5 12 -15v-71c0 -133 -65 -180 -206 -187v-936c0 -13 -7 -20 -21 -20h-86c-11 0 -17 7 -20 20l-13 160c-91 -137 -226 -205 -403 -205c-265 0 -418 171 -418 496v551c0 13 7 20 21 20h106c13 0 20 -7 21 -20v-551c0 -117 28 -208 84 -273
s132 -98 229 -98c191 0 323 132 350 377v545c0 13 7 20 21 20h108c30 0 53 1 68 3c15 1 30 10 47 25c16 15 24 36 24 65v79c0 9 5 14 15 15z" />
    <glyph glyph-name="uni01CD" unicode="&#x1cd;" horiz-adv-x="1458" 
d="M688 1593l-231 338c-8 13 0 27 16 27h53c17 0 29 -6 37 -19l182 -229l187 232c8 11 20 16 35 16h53c16 0 24 -12 16 -27l-233 -338c-5 -9 -14 -14 -25 -14h-63c-11 0 -20 5 -27 14zM807 1417l567 -1390c7 -18 1 -27 -18 -27h-111c-13 0 -21 5 -22 14l-160 389h-657
l-170 -389c-4 -9 -12 -14 -23 -14h-115c-13 0 -21 12 -16 27l612 1390c4 9 12 14 23 15h67c11 0 18 -5 23 -15zM1016 520l-268 692l-291 -692h559z" />
    <glyph glyph-name="uni01CE" unicode="&#x1ce;" horiz-adv-x="1353" 
d="M610 1219l-231 337c-8 13 0 27 16 27h54c17 0 29 -6 36 -18l183 -230l186 232c8 11 20 16 35 16h53c16 0 25 -12 16 -27l-233 -337c-5 -9 -14 -14 -25 -15h-63c-11 1 -20 6 -27 15zM1092 1042h86c13 0 20 -7 20 -20v-1002c0 -13 -7 -20 -20 -20h-86c-9 0 -16 7 -21 20
l-14 179c-96 -136 -251 -224 -434 -224c-151 0 -278 51 -380 154s-153 233 -153 392c0 158 51 289 153 392c101 103 224 154 369 154c91 0 176 -22 254 -65c78 -44 142 -103 193 -177l12 197c3 13 10 20 21 20zM649 100c113 0 210 37 289 110s119 170 119 292
c0 124 -40 228 -121 313s-180 127 -297 127c-112 0 -207 -40 -285 -120c-79 -80 -118 -181 -118 -302s40 -222 119 -301s177 -119 294 -119z" />
    <glyph glyph-name="uni01CF" unicode="&#x1cf;" horiz-adv-x="538" 
d="M487 1958h54c16 0 24 -12 16 -27l-233 -338c-5 -9 -14 -14 -25 -14h-63c-11 0 -20 5 -27 14l-232 338c-8 13 1 27 17 27h53c17 0 29 -6 37 -19l182 -229l187 232c8 11 19 16 34 16zM215 1434h109c13 0 20 -7 20 -21v-1393c0 -13 -7 -20 -20 -20h-109c-13 0 -20 7 -20 20
v1393c0 13 7 20 20 21z" />
    <glyph glyph-name="uni01D0" unicode="&#x1d0;" horiz-adv-x="460" 
d="M451 1583h53c16 0 24 -12 16 -27l-233 -337c-5 -9 -14 -14 -25 -15h-63c-11 0 -20 5 -27 15l-231 337c-8 13 0 27 16 27h53c17 0 29 -6 37 -18l182 -230l187 232c8 11 20 16 35 16zM176 1042h109c13 0 20 -7 20 -20v-1002c0 -13 -7 -20 -20 -20h-109c-13 0 -20 7 -20 20
v1002c0 13 7 20 20 20z" />
    <glyph glyph-name="uni01D1" unicode="&#x1d1;" horiz-adv-x="1701" 
d="M793 1593l-232 338c-8 13 0 27 17 27h53c17 0 29 -6 37 -19l182 -229l186 232c8 11 20 16 35 16h53c16 0 25 -12 17 -27l-234 -338c-4 -9 -12 -14 -24 -14h-64c-11 0 -19 5 -26 14zM852 1448c223 0 400 -68 532 -203c131 -135 197 -315 197 -538s-66 -400 -197 -533
c-132 -133 -309 -199 -532 -199s-400 66 -531 199c-132 133 -198 310 -198 533c0 224 66 404 199 539c132 135 309 202 530 202zM428 275c105 -105 247 -158 424 -158s319 53 424 158s158 249 158 432s-53 328 -158 437s-247 163 -424 163c-176 0 -317 -54 -423 -163
s-159 -254 -159 -437s53 -327 158 -432z" />
    <glyph glyph-name="uni01D2" unicode="&#x1d2;" horiz-adv-x="1269" 
d="M575 1219l-231 337c-8 13 0 27 16 27h54c17 0 29 -6 37 -18l182 -230l186 232c8 11 20 16 35 16h53c16 0 25 -12 17 -27l-234 -337c-4 -9 -12 -14 -24 -15h-64c-11 1 -20 6 -27 15zM245 910c104 105 234 157 390 157c155 0 285 -52 390 -156c105 -105 157 -234 157 -389
s-52 -285 -157 -390s-235 -157 -390 -157c-157 0 -288 52 -391 157c-104 105 -156 235 -156 390c0 154 52 283 157 388zM635 100c113 0 209 40 288 120c78 80 117 181 117 302c0 120 -39 220 -117 300c-79 80 -175 120 -288 120c-115 0 -211 -39 -289 -118
s-117 -180 -117 -302c0 -123 39 -224 117 -303s174 -119 289 -119z" />
    <glyph glyph-name="uni01D3" unicode="&#x1d3;" horiz-adv-x="1478" 
d="M680 1579l-231 338c-8 13 0 27 16 27h53c17 0 29 -6 37 -19l182 -229l187 231c8 11 19 16 34 17h54c16 0 24 -14 16 -27l-233 -338c-5 -9 -14 -14 -25 -14h-63c-11 0 -20 5 -27 14zM1184 1434h108c13 0 20 -7 21 -21v-770c0 -206 -51 -368 -153 -487
c-103 -119 -243 -179 -421 -179c-179 0 -319 60 -420 179c-102 119 -153 281 -153 487v770c0 13 7 20 20 21h107c13 0 20 -7 20 -21v-770c0 -165 37 -293 112 -383s180 -135 315 -135s239 45 313 135c73 90 110 218 110 383v770c0 13 7 20 21 21z" />
    <glyph glyph-name="uni01D4" unicode="&#x1d4;" horiz-adv-x="1249" 
d="M555 1219l-231 337c-8 13 0 27 16 27h53c17 0 29 -6 37 -18l182 -230l187 232c8 11 20 16 35 16h53c16 0 24 -12 16 -27l-233 -337c-4 -9 -12 -14 -25 -15h-63c-11 1 -20 6 -27 15zM965 1042h108c13 0 20 -7 21 -20v-1002c0 -13 -7 -20 -21 -20h-86c-11 0 -17 7 -20 20
l-13 160c-91 -137 -226 -205 -403 -205c-265 0 -418 171 -418 496v551c0 13 7 20 21 20h106c13 0 20 -7 21 -20v-551c0 -117 28 -208 84 -273s132 -98 229 -98c191 0 323 132 350 377v545c0 13 7 20 21 20z" />
    <glyph glyph-name="uni01D5" unicode="&#x1d5;" horiz-adv-x="1478" 
d="M1059 1989l-639 -2c-13 0 -20 7 -21 20v72c0 13 7 20 21 20l639 2c12 0 18 -7 18 -20l2 -72c0 -13 -7 -20 -20 -20zM553 1573c-55 0 -98 43 -98 98c-6 81 112 130 167 69c61 -55 12 -173 -69 -167zM993 1602c-56 -63 -169 -16 -166 69c0 55 45 96 97 96
c55 0 98 -44 98 -96c0 -27 -10 -50 -29 -69zM739 -23c-179 0 -319 60 -420 179c-102 119 -153 281 -153 487v770c0 13 7 20 20 21h107c13 0 20 -7 20 -21v-770c0 -165 37 -293 112 -383s180 -135 315 -135s239 45 313 135c73 90 110 218 110 383v770c0 13 7 20 21 21h108
c13 0 20 -7 21 -21v-770c0 -206 -51 -368 -154 -487s-243 -179 -420 -179z" />
    <glyph glyph-name="uni01D6" unicode="&#x1d6;" horiz-adv-x="1249" 
d="M934 1628l-639 -2c-13 0 -20 7 -21 21v71c0 13 7 20 21 21l639 2c12 0 18 -7 18 -21l2 -71c0 -13 -7 -20 -20 -21zM330 1311c0 52 43 96 98 96c81 6 131 -108 68 -166c-54 -64 -169 -15 -166 70zM731 1241c-63 58 -16 172 68 166c55 0 98 -44 98 -96
c0 -55 -43 -99 -98 -99c-26 0 -49 10 -68 29zM965 1042h108c13 0 20 -7 21 -20v-1002c0 -13 -7 -20 -21 -20h-86c-11 0 -17 7 -20 20l-13 160c-91 -137 -226 -205 -403 -205c-265 0 -418 171 -418 496v551c0 13 7 20 21 20h106c13 0 20 -7 21 -20v-551
c0 -117 28 -208 84 -273s132 -98 229 -98c191 0 323 132 350 377v545c0 13 7 20 21 20z" />
    <glyph glyph-name="uni01D7" unicode="&#x1d7;" horiz-adv-x="1478" 
d="M799 1901h-66c-16 0 -27 11 -22 30l143 324c5 11 13 16 23 16h98c19 0 31 -15 22 -35l-178 -321c-3 -9 -9 -14 -20 -14zM553 1573c-55 0 -98 43 -98 98c-6 81 112 130 167 69c61 -55 12 -173 -69 -167zM993 1602c-56 -63 -169 -16 -166 69c0 55 45 96 97 96
c55 0 98 -44 98 -96c0 -27 -10 -50 -29 -69zM739 -23c-179 0 -319 60 -420 179c-102 119 -153 281 -153 487v770c0 13 7 20 20 21h107c13 0 20 -7 20 -21v-770c0 -165 37 -293 112 -383s180 -135 315 -135s239 45 313 135c73 90 110 218 110 383v770c0 13 7 20 21 21h108
c13 0 20 -7 21 -21v-770c0 -206 -51 -368 -154 -487s-243 -179 -420 -179z" />
    <glyph glyph-name="uni01D8" unicode="&#x1d8;" horiz-adv-x="1249" 
d="M674 1540h-66c-16 0 -27 11 -22 31l143 323c5 11 13 16 23 17h98c19 0 31 -16 22 -35l-178 -322c-3 -9 -9 -14 -20 -14zM496 1241c-54 -64 -169 -15 -166 70c0 52 43 96 98 96c81 6 131 -108 68 -166zM730 1380c55 61 173 12 167 -69c0 -55 -43 -99 -98 -99
c-82 -6 -132 114 -69 168zM965 1042h108c13 0 20 -7 21 -20v-1002c0 -13 -7 -20 -21 -20h-86c-11 0 -17 7 -20 20l-13 160c-91 -137 -226 -205 -403 -205c-265 0 -418 171 -418 496v551c0 13 7 20 21 20h106c13 0 20 -7 21 -20v-551c0 -117 28 -208 84 -273s132 -98 229 -98
c191 0 323 132 350 377v545c0 13 7 20 21 20z" />
    <glyph glyph-name="uni01D9" unicode="&#x1d9;" horiz-adv-x="1478" 
d="M680 1921l-231 338c-8 13 0 27 16 27h53c17 0 29 -6 37 -19l182 -229l187 231c8 11 19 16 34 17h54c16 0 24 -14 16 -27l-233 -338c-5 -9 -14 -14 -25 -14h-63c-11 0 -20 5 -27 14zM455 1671c-6 81 112 130 167 69c61 -55 12 -173 -69 -167c-55 0 -98 43 -98 98z
M856 1602c-39 38 -39 101 0 138c19 18 42 27 68 27c55 0 98 -44 98 -96c3 -85 -111 -132 -166 -69zM1184 1434h108c13 0 20 -7 21 -21v-770c0 -206 -51 -368 -153 -487c-103 -119 -243 -179 -421 -179c-179 0 -319 60 -420 179c-102 119 -153 281 -153 487v770
c0 13 7 20 20 21h107c13 0 20 -7 20 -21v-770c0 -165 37 -293 112 -383s180 -135 315 -135s239 45 313 135c73 90 110 218 110 383v770c0 13 7 20 21 21z" />
    <glyph glyph-name="uni01DA" unicode="&#x1da;" horiz-adv-x="1249" 
d="M555 1561l-231 337c-8 13 0 27 16 27h53c17 0 29 -6 37 -18l182 -230l187 232c8 11 20 16 35 16h53c16 0 24 -12 16 -27l-233 -337c-4 -9 -12 -14 -25 -15h-63c-11 1 -20 6 -27 15zM330 1311c0 52 43 96 98 96c81 6 131 -108 68 -166c-54 -64 -169 -15 -166 70zM731 1241
c-63 58 -16 172 68 166c55 0 98 -44 98 -96c0 -55 -43 -99 -98 -99c-26 0 -49 10 -68 29zM965 1042h108c13 0 20 -7 21 -20v-1002c0 -13 -7 -20 -21 -20h-86c-11 0 -17 7 -20 20l-13 160c-91 -137 -226 -205 -403 -205c-265 0 -418 171 -418 496v551c0 13 7 20 21 20h106
c13 0 20 -7 21 -20v-551c0 -117 28 -208 84 -273s132 -98 229 -98c191 0 323 132 350 377v545c0 13 7 20 21 20z" />
    <glyph glyph-name="uni01DB" unicode="&#x1db;" horiz-adv-x="1478" 
d="M752 1901h-64c-11 0 -18 5 -22 14l-179 321c-8 16 7 35 23 35h98c12 0 20 -5 23 -16l143 -324c8 -19 -3 -30 -22 -30zM553 1573c-55 0 -98 43 -98 98c-6 81 112 130 167 69c61 -55 12 -173 -69 -167zM993 1602c-56 -63 -169 -16 -166 69c0 55 45 96 97 96
c55 0 98 -44 98 -96c0 -27 -10 -50 -29 -69zM739 -23c-179 0 -319 60 -420 179c-102 119 -153 281 -153 487v770c0 13 7 20 20 21h107c13 0 20 -7 20 -21v-770c0 -165 37 -293 112 -383s180 -135 315 -135s239 45 313 135c73 90 110 218 110 383v770c0 13 7 20 21 21h108
c13 0 20 -7 21 -21v-770c0 -206 -51 -368 -154 -487s-243 -179 -420 -179z" />
    <glyph glyph-name="uni01DC" unicode="&#x1dc;" horiz-adv-x="1249" 
d="M541 1554l-179 322c-8 16 7 35 23 35h98c12 0 20 -6 23 -17l143 -323c8 -19 -3 -31 -22 -31h-64c-9 0 -17 5 -22 14zM496 1241c-54 -64 -169 -15 -166 70c0 52 43 96 98 96c81 6 131 -108 68 -166zM799 1212c-82 -6 -132 114 -69 168c55 61 173 12 167 -69
c0 -55 -43 -99 -98 -99zM965 1042h108c13 0 20 -7 21 -20v-1002c0 -13 -7 -20 -21 -20h-86c-11 0 -17 7 -20 20l-13 160c-91 -137 -226 -205 -403 -205c-265 0 -418 171 -418 496v551c0 13 7 20 21 20h106c13 0 20 -7 21 -20v-551c0 -117 28 -208 84 -273s132 -98 229 -98
c191 0 323 132 350 377v545c0 13 7 20 21 20z" />
    <glyph glyph-name="uni0218" unicode="&#x218;" horiz-adv-x="1226" 
d="M629 -25c-203 0 -376 76 -518 228c-7 8 -7 17 -2 28l53 78c7 13 16 14 28 2c128 -131 253 -196 422 -196c107 0 192 24 256 73c63 48 95 116 95 205c0 79 -28 137 -83 174c-55 36 -149 70 -282 101c-37 8 -61 14 -74 17s-38 10 -75 21c-37 10 -64 20 -81 29
s-41 20 -70 35c-59 28 -80 63 -114 108c-34 44 -49 106 -49 175c0 119 44 214 133 287c89 72 205 108 350 108c173 0 329 -62 467 -186c9 -7 12 -16 7 -29l-45 -78c-7 -11 -16 -13 -29 -6c-127 109 -258 164 -395 164c-101 0 -183 -23 -246 -69c-63 -47 -94 -110 -94 -189
c0 -68 33 -121 67 -151c17 -15 42 -30 77 -43c35 -14 63 -24 86 -30c23 -7 56 -15 99 -24c61 -13 111 -25 148 -35c37 -11 80 -27 130 -49s89 -46 117 -73c56 -53 103 -146 103 -261c0 -129 -43 -230 -130 -303c-87 -74 -204 -111 -351 -111zM522 -664c-8 0 -13 3 -16 9
l-14 34c-1 9 2 16 10 21c39 15 75 38 106 68s46 61 45 92c-1 33 -19 49 -53 49c-55 0 -90 45 -90 108c0 33 12 61 37 85s53 36 86 36c83 0 125 -62 125 -186c0 -143 -79 -248 -236 -316z" />
    <glyph glyph-name="uni0219" unicode="&#x219;" horiz-adv-x="983" 
d="M494 -25c-93 0 -175 15 -247 46c-72 30 -126 70 -161 120c-9 11 -9 21 0 31l41 59c8 12 19 13 33 2c61 -89 171 -133 329 -133c175 0 271 68 271 191c0 59 -21 100 -64 124s-118 47 -223 68c-45 9 -81 18 -108 25s-60 18 -97 33c-38 15 -67 31 -87 50
c-41 36 -79 98 -79 177c0 91 36 164 108 218c71 54 166 81 284 81c142 0 267 -46 374 -139c12 -8 13 -18 4 -31l-41 -55c-8 -11 -19 -13 -32 -6c-82 71 -181 106 -297 106c-161 0 -260 -63 -260 -170c0 -41 8 -70 41 -93c16 -11 30 -21 41 -28c11 -8 31 -16 60 -23
c29 -8 49 -13 60 -15c10 -2 33 -7 70 -15c60 -12 110 -24 150 -37c39 -13 79 -31 119 -54c79 -45 116 -115 116 -216c0 -97 -35 -173 -106 -230s-170 -86 -299 -86zM391 -664c-8 0 -13 3 -16 9l-15 34c-1 9 2 16 11 21c39 15 75 38 106 68s46 61 45 92c-1 33 -19 49 -53 49
c-55 0 -90 45 -90 108c0 33 12 61 37 85s53 36 86 36c83 0 125 -62 125 -186c0 -143 -79 -248 -236 -316z" />
    <glyph glyph-name="uni021A" unicode="&#x21a;" horiz-adv-x="1390" 
d="M102 1434h1184c13 0 20 -7 21 -21v-100c0 -13 -7 -20 -21 -21h-518v-1272c0 -13 -7 -20 -20 -20h-107c-13 0 -20 7 -20 20v1272h-519c-13 0 -20 7 -20 21v100c0 13 7 20 20 21zM711 -154c83 0 125 -62 125 -186c0 -142 -79 -247 -236 -315c-8 0 -13 3 -16 8l-15 35
c-1 9 2 16 11 20c39 15 75 38 106 68s46 61 45 92c-1 33 -19 49 -53 49c-55 0 -90 45 -90 109c0 33 12 61 37 84c25 24 53 36 86 36z" />
    <glyph glyph-name="uni021B" unicode="&#x21b;" horiz-adv-x="770" 
d="M688 109l21 -68c4 -9 -1 -18 -15 -25c-57 -26 -123 -39 -198 -39c-195 0 -293 117 -293 351v592h-135c-13 0 -20 7 -21 20v82c0 13 7 20 21 20h135v287c0 13 7 20 20 21h105c13 0 20 -7 20 -21v-287h318c13 0 20 -7 20 -20v-82c0 -13 -7 -20 -20 -20h-318v-598
c0 -86 15 -144 44 -175s78 -47 145 -47c39 0 72 5 85 10c12 4 32 10 37 13c13 5 23 1 29 -14zM510 -160c83 0 125 -62 125 -186c0 -142 -79 -247 -236 -316c-8 0 -13 3 -16 9l-14 35c-1 9 2 16 10 20c39 15 75 38 106 68s46 61 45 92c-1 33 -19 49 -53 49
c-55 0 -90 45 -90 108c0 33 12 61 37 85s53 36 86 36z" />
    <glyph glyph-name="gravecomb" unicode="&#x300;" 
d="M-115 1141h-63c-9 0 -17 5 -23 14l-178 322c-8 16 6 34 23 34h98c12 0 19 -5 22 -16l144 -324c8 -19 -3 -30 -23 -30z" />
    <glyph glyph-name="acutecomb" unicode="&#x301;" 
d="M-281 1141h-65c-16 0 -28 14 -23 30l144 324c5 11 13 16 22 16h99c19 0 30 -15 22 -34l-178 -322c-3 -9 -10 -14 -21 -14z" />
    <glyph glyph-name="uni0302" unicode="&#x302;" 
d="M-303 1513l233 -337c8 -13 0 -29 -16 -29h-53c-15 0 -28 6 -37 18l-184 230l-183 -230c-9 -12 -22 -18 -37 -18h-53c-16 0 -24 12 -16 29l231 335c7 9 15 14 25 15h63c13 0 22 -4 27 -13z" />
    <glyph glyph-name="tildecomb" unicode="&#x303;" 
d="M-647 1178c-7 -13 -16 -17 -29 -11l-43 23c-8 4 -11 11 -8 22c34 91 88 137 162 138c38 0 86 -17 143 -50c57 -34 98 -51 123 -51c38 0 70 23 96 68c7 15 16 19 27 12l43 -20c9 -4 13 -11 10 -21c-33 -100 -87 -150 -164 -149c-37 0 -84 18 -143 53s-100 53 -123 53
c-35 1 -67 -22 -94 -67z" />
    <glyph glyph-name="uni0304" unicode="&#x304;" 
d="M-176 1229l-639 -2c-13 0 -20 7 -21 20v72c0 13 7 20 21 20l639 2c12 0 18 -7 18 -20l2 -72c0 -13 -7 -20 -20 -20z" />
    <glyph glyph-name="uni0306" unicode="&#x306;" 
d="M-401 1151c-79 0 -147 26 -204 79s-88 116 -95 189c0 19 8 29 24 29h66c13 0 20 -6 20 -18c3 -48 21 -90 56 -125c35 -36 79 -54 132 -54s97 18 132 54c35 35 54 77 55 125c3 12 10 18 22 18h64c19 0 28 -10 25 -31c-5 -74 -37 -137 -94 -188c-57 -52 -125 -78 -203 -78z
" />
    <glyph glyph-name="uni0307" unicode="&#x307;" 
d="M-233 1155c-55 0 -99 43 -99 98c-5 81 113 131 167 69c62 -55 13 -173 -68 -167z" />
    <glyph glyph-name="uni0308" unicode="&#x308;" 
d="M-606 1155c-55 0 -99 43 -99 98c-6 81 114 131 167 69c62 -55 13 -173 -68 -167zM-167 1184c-56 -63 -168 -16 -165 69c0 55 45 97 96 97c55 0 99 -45 99 -97c0 -27 -10 -50 -30 -69z" />
    <glyph glyph-name="hookabovecomb" unicode="&#x309;" 
d="M-381 1462v45c0 13 9 24 21 21c164 -29 246 -102 245 -219c0 -74 -42 -139 -125 -195c-11 -7 -19 -5 -24 6l-23 47c-4 8 -2 15 6 21c49 33 74 73 74 121c0 67 -52 112 -155 137c-12 0 -18 5 -19 16z" />
    <glyph glyph-name="uni030A" unicode="&#x30a;" 
d="M-176 1168c-38 -39 -86 -58 -144 -58c-57 0 -105 19 -143 58c-38 38 -57 86 -57 143s19 105 57 144s86 58 143 58c58 0 106 -19 144 -58s57 -86 57 -142c0 -59 -19 -107 -57 -145zM-409 1222c24 -24 54 -36 89 -36c36 0 66 12 89 35c24 23 36 53 36 90
c0 74 -53 127 -124 127c-73 0 -125 -54 -125 -125c0 -37 12 -67 35 -91z" />
    <glyph glyph-name="uni030B" unicode="&#x30b;" 
d="M-592 1141h-78c-16 0 -27 14 -22 30l143 324c5 11 13 16 23 16h110c19 0 31 -15 23 -34l-178 -322c-4 -9 -11 -14 -21 -14zM-281 1141h-77c-16 0 -30 14 -25 30l143 324c5 11 14 16 25 16h111c19 0 30 -15 22 -34l-178 -322c-4 -9 -11 -14 -21 -14z" />
    <glyph glyph-name="uni030C" unicode="&#x30c;" 
d="M-139 1526h53c16 0 25 -14 16 -27l-233 -338c-5 -9 -14 -14 -25 -14h-63c-11 0 -20 5 -27 14l-231 338c-8 13 0 27 16 27h53c17 0 29 -6 37 -19l183 -229l186 231c8 11 20 16 35 17z" />
    <glyph glyph-name="uni0312" unicode="&#x312;" 
d="M-246 1124c-84 0 -125 76 -125 185c0 149 79 256 238 323c11 3 16 1 16 -6l17 -37c1 -9 -3 -16 -13 -20c-42 -18 -78 -42 -109 -71s-45 -61 -44 -95c1 -30 20 -45 55 -45c55 0 90 -50 90 -107c0 -35 -12 -65 -36 -90s-54 -37 -89 -37z" />
    <glyph glyph-name="uni031B" unicode="&#x31b;" 
d="M-362 1059v86c30 0 52 1 67 2s31 10 47 25c17 15 25 36 25 65v80c0 9 5 14 14 14h62c8 0 12 -5 12 -14v-72c0 -139 -72 -186 -227 -186z" />
    <glyph glyph-name="dotbelowcomb" unicode="&#x323;" 
d="M-167 -319c-49 -55 -149 -13 -146 63c0 47 39 86 85 86s87 -39 87 -86c0 -25 -9 -46 -26 -63z" />
    <glyph glyph-name="uni0326" unicode="&#x326;" 
d="M-348 -657c-8 0 -14 3 -17 8l-14 35c-1 9 2 16 10 20c39 15 75 38 106 68c32 30 47 61 46 92c-1 33 -19 49 -53 49c-55 0 -90 45 -90 109c0 33 12 61 36 84c25 24 53 36 86 36c83 0 125 -62 125 -186c1 -142 -78 -247 -235 -315z" />
    <glyph glyph-name="uni0327" unicode="&#x327;" 
d="M-236 0l-28 -88c108 -25 162 -79 162 -164c0 -115 -98 -186 -297 -186c-13 0 -20 7 -21 20v41c0 12 7 19 21 21h18c24 3 25 1 49 4c13 1 22 3 28 4c12 3 41 8 52 15s33 19 40 32s15 34 15 55c0 36 -14 60 -47 76c-16 8 -30 13 -42 16c-11 3 -29 7 -52 13
c-13 4 -18 11 -14 20l35 121h81z" />
    <glyph glyph-name="uni0328" unicode="&#x328;" 
d="M-86 -352l16 -47c3 -9 0 -16 -8 -21c-91 -39 -172 -44 -242 -13c-69 31 -104 82 -104 154c0 48 26 98 79 151s79 95 79 128h80c0 -63 -36 -122 -73 -152s-73 -75 -73 -118c0 -37 19 -64 57 -82c39 -18 94 -15 166 8c9 5 17 3 23 -8z" />
    <glyph glyph-name="uni0335" unicode="&#x335;" 
d="M-176 494h-594c-13 0 -20 7 -21 20v70c0 13 7 20 21 20l594 2c13 0 20 -7 20 -20v-72c0 -13 -7 -20 -20 -20z" />
    <glyph glyph-name="uni0336" unicode="&#x336;" 
d="M-174 465l-932 -2c-13 0 -20 7 -20 20v72c0 13 7 20 20 20h932c12 0 18 -7 18 -20l2 -70c0 -11 -12 -20 -20 -20z" />
    <glyph glyph-name="uni0337" unicode="&#x337;" 
d="M-68 821l-571 -418v117l571 416v-115z" />
    <glyph glyph-name="uni0338" unicode="&#x338;" 
d="M-866 -35h-111l830 1565h112z" />
    <glyph glyph-name="Wgrave" unicode="&#x1e80;" horiz-adv-x="2152" 
d="M1001 1587l-178 322c-8 16 7 35 23 35h98c12 0 20 -6 23 -17l143 -323c8 -19 -3 -31 -23 -31h-63c-11 0 -19 5 -23 14zM1939 1434h107c18 0 24 -9 18 -27l-460 -1391c-3 -11 -10 -16 -23 -16h-88c-12 0 -20 5 -25 16l-393 1084l-393 -1084c-4 -11 -12 -16 -25 -16h-88
c-12 0 -19 5 -22 16l-461 1391c-5 13 5 27 18 27h109c13 0 21 -6 23 -17l382 -1173l392 1102c7 12 15 18 24 18h82c9 0 17 -6 23 -18l391 -1110l385 1181c4 11 12 16 24 17z" />
    <glyph glyph-name="wgrave" unicode="&#x1e81;" horiz-adv-x="1624" 
d="M739 1212l-178 322c-8 16 6 35 23 35h98c12 0 20 -6 23 -17l143 -323c8 -19 -3 -31 -23 -31h-63c-11 0 -19 5 -23 14zM1454 1042h98c15 0 22 -8 19 -24l-357 -1002c-3 -11 -9 -16 -20 -16h-86c-11 0 -18 5 -23 16l-276 799l-272 -799c-4 -11 -12 -16 -23 -16h-86
c-11 0 -18 5 -22 16l-351 1002c-4 17 2 25 17 24h98c13 0 22 -6 27 -18l274 -834l272 822c4 12 13 18 27 18h80c13 0 22 -6 27 -18l276 -826l274 838c5 12 14 18 27 18z" />
    <glyph glyph-name="Wacute" unicode="&#x1e82;" horiz-adv-x="2152" 
d="M1135 1573h-66c-16 0 -29 11 -22 31l143 323c5 11 13 16 22 17h99c19 0 30 -16 22 -35l-178 -322c-3 -9 -9 -14 -20 -14zM1939 1434h107c18 0 24 -9 18 -27l-460 -1391c-3 -11 -10 -16 -23 -16h-88c-12 0 -20 5 -25 16l-393 1084l-393 -1084c-4 -11 -12 -16 -25 -16h-88
c-12 0 -19 5 -22 16l-461 1391c-5 13 5 27 18 27h109c13 0 21 -6 23 -17l382 -1173l392 1102c7 12 15 18 24 18h82c9 0 17 -6 23 -18l391 -1110l385 1181c4 11 12 16 24 17z" />
    <glyph glyph-name="wacute" unicode="&#x1e83;" horiz-adv-x="1624" 
d="M872 1198h-65c-16 0 -28 15 -23 31l144 323c5 11 13 16 22 17h99c19 0 30 -16 22 -35l-178 -322c-3 -9 -10 -14 -21 -14zM1454 1042h98c15 0 22 -8 19 -24l-357 -1002c-3 -11 -9 -16 -20 -16h-86c-11 0 -18 5 -23 16l-276 799l-272 -799c-4 -11 -12 -16 -23 -16h-86
c-11 0 -18 5 -22 16l-351 1002c-4 17 2 25 17 24h98c13 0 22 -6 27 -18l274 -834l272 822c4 12 13 18 27 18h80c13 0 22 -6 27 -18l276 -826l274 838c5 12 14 18 27 18z" />
    <glyph glyph-name="Wdieresis" unicode="&#x1e84;" horiz-adv-x="2152" 
d="M889 1587c-85 -2 -132 112 -69 166c38 39 101 39 138 0c18 -19 27 -42 27 -67c0 -55 -44 -99 -96 -99zM1328 1617c-57 -66 -168 -16 -165 69c0 52 45 96 97 96c84 3 133 -108 68 -165zM1939 1434h107c18 0 24 -9 18 -27l-460 -1391c-3 -11 -10 -16 -23 -16h-88
c-12 0 -20 5 -25 16l-393 1084l-393 -1084c-4 -11 -12 -16 -25 -16h-88c-12 0 -19 5 -22 16l-461 1391c-5 13 5 27 18 27h109c13 0 21 -6 23 -17l382 -1173l392 1102c7 12 15 18 24 18h82c9 0 17 -6 23 -18l391 -1110l385 1181c4 11 12 16 24 17z" />
    <glyph glyph-name="wdieresis" unicode="&#x1e85;" horiz-adv-x="1624" 
d="M627 1212c-55 0 -99 44 -99 99c-6 81 114 130 168 69c61 -54 12 -174 -69 -168zM1066 1241c-57 -64 -169 -15 -165 70c0 55 44 96 96 96c55 0 99 -44 99 -96c0 -27 -10 -51 -30 -70zM1454 1042h98c15 0 22 -8 19 -24l-357 -1002c-3 -11 -9 -16 -20 -16h-86
c-11 0 -18 5 -23 16l-276 799l-272 -799c-4 -11 -12 -16 -23 -16h-86c-11 0 -18 5 -22 16l-351 1002c-4 17 2 25 17 24h98c13 0 22 -6 27 -18l274 -834l272 822c4 12 13 18 27 18h80c13 0 22 -6 27 -18l276 -826l274 838c5 12 14 18 27 18z" />
    <glyph glyph-name="uni1EA0" unicode="&#x1ea0;" horiz-adv-x="1458" 
d="M807 1417l567 -1390c7 -18 1 -27 -18 -27h-111c-13 0 -21 5 -22 14l-160 389h-657l-170 -389c-4 -9 -12 -14 -23 -14h-115c-13 0 -21 12 -16 27l612 1390c4 9 12 14 23 15h67c11 0 18 -5 23 -15zM1016 520l-268 692l-291 -692h559zM679 -196c49 57 149 13 146 -60
c0 -49 -39 -88 -85 -88s-87 39 -87 88c0 23 9 43 26 60z" />
    <glyph glyph-name="uni1EA1" unicode="&#x1ea1;" horiz-adv-x="1353" 
d="M1092 1042h86c13 0 20 -7 20 -20v-1002c0 -13 -7 -20 -20 -20h-86c-9 0 -16 7 -21 20l-14 179c-96 -136 -251 -224 -434 -224c-151 0 -278 51 -380 154s-153 233 -153 392c0 158 51 289 153 392c101 103 224 154 369 154c91 0 176 -22 254 -65c78 -44 142 -103 193 -177
l12 197c3 13 10 20 21 20zM649 100c113 0 210 37 289 110s119 170 119 292c0 124 -40 228 -121 313s-180 127 -297 127c-112 0 -207 -40 -285 -120c-79 -80 -118 -181 -118 -302s40 -222 119 -301s177 -119 294 -119zM610 -196c48 57 150 13 146 -60c0 -49 -39 -88 -86 -88
s-86 39 -86 88c0 23 9 43 26 60z" />
    <glyph glyph-name="uni1EA2" unicode="&#x1ea2;" horiz-adv-x="1458" 
d="M631 1878c-12 0 -18 5 -19 16v45c0 13 10 24 21 21c164 -29 246 -102 246 -219c0 -74 -42 -139 -125 -195c-11 -7 -19 -5 -25 6l-22 47c-4 8 -2 15 6 21c49 33 74 73 73 121c1 67 -51 112 -155 137zM807 1417l567 -1390c7 -18 1 -27 -18 -27h-111c-13 0 -21 5 -22 14
l-160 389h-657l-170 -389c-4 -9 -12 -14 -23 -14h-115c-13 0 -21 12 -16 27l612 1390c4 9 12 14 23 15h67c11 0 18 -5 23 -15zM1016 520l-268 692l-291 -692h559z" />
    <glyph glyph-name="uni1EA3" unicode="&#x1ea3;" horiz-adv-x="1353" 
d="M553 1503c-12 0 -18 6 -18 17v45c0 13 9 23 20 20c164 -29 246 -102 246 -219c0 -74 -42 -139 -125 -195c-11 -7 -19 -4 -25 7l-22 47c-4 8 -2 15 6 20c49 33 74 73 74 121c0 67 -52 112 -156 137zM1092 1042h86c13 0 20 -7 20 -20v-1002c0 -13 -7 -20 -20 -20h-86
c-9 0 -16 7 -21 20l-14 179c-96 -136 -251 -224 -434 -224c-151 0 -278 51 -380 154s-153 233 -153 392c0 158 51 289 153 392c101 103 224 154 369 154c91 0 176 -22 254 -65c78 -44 142 -103 193 -177l12 197c3 13 10 20 21 20zM649 100c113 0 210 37 289 110
s119 170 119 292c0 124 -40 228 -121 313s-180 127 -297 127c-112 0 -207 -40 -285 -120c-79 -80 -118 -181 -118 -302s40 -222 119 -301s177 -119 294 -119z" />
    <glyph glyph-name="uni1EA4" unicode="&#x1ea4;" horiz-adv-x="1458" 
d="M807 2056h-66c-16 0 -27 12 -22 31l143 323c5 11 13 16 23 17h98c19 0 31 -16 23 -35l-179 -321c-3 -9 -9 -14 -20 -15zM526 1579h-53c-16 0 -24 12 -16 29l231 336c7 9 15 14 25 14h63c13 0 22 -4 27 -12l233 -338c8 -13 0 -29 -16 -29h-53c-15 0 -28 6 -37 18l-185 230
l-182 -230c-9 -12 -22 -18 -37 -18zM807 1417l567 -1390c7 -18 1 -27 -18 -27h-111c-13 0 -21 5 -22 14l-160 389h-657l-170 -389c-4 -9 -12 -14 -23 -14h-115c-13 0 -21 12 -16 27l612 1390c4 9 12 14 23 15h67c11 0 18 -5 23 -15zM1016 520l-268 692l-291 -692h559z" />
    <glyph glyph-name="uni1EA5" unicode="&#x1ea5;" horiz-adv-x="1353" 
d="M729 1681h-65c-16 0 -28 12 -23 31l143 324c5 11 13 16 23 16h98c19 0 31 -15 23 -35l-178 -321c-3 -9 -10 -14 -21 -15zM449 1204h-54c-16 0 -24 13 -16 29l231 336c7 9 15 14 25 14h63c13 0 22 -4 27 -12l233 -338c8 -13 0 -29 -16 -29h-53c-15 0 -28 6 -37 19
l-184 229l-183 -229c-9 -12 -21 -18 -36 -19zM1092 1042h86c13 0 20 -7 20 -20v-1002c0 -13 -7 -20 -20 -20h-86c-9 0 -16 7 -21 20l-14 179c-96 -136 -251 -224 -434 -224c-151 0 -278 51 -380 154s-153 233 -153 392c0 158 51 289 153 392c101 103 224 154 369 154
c91 0 176 -22 254 -65c78 -44 142 -103 193 -177l12 197c3 13 10 20 21 20zM649 100c113 0 210 37 289 110s119 170 119 292c0 124 -40 228 -121 313s-180 127 -297 127c-112 0 -207 -40 -285 -120c-79 -80 -118 -181 -118 -302s40 -222 119 -301s177 -119 294 -119z" />
    <glyph glyph-name="uni1EA6" unicode="&#x1ea6;" horiz-adv-x="1458" 
d="M674 2071l-178 321c-8 16 6 35 22 35h98c12 0 20 -6 23 -17l143 -323c8 -19 -3 -31 -22 -31h-64c-11 1 -18 6 -22 15zM526 1579h-53c-16 0 -24 12 -16 29l231 336c7 9 15 14 25 14h63c13 0 22 -4 27 -12l233 -338c8 -13 0 -29 -16 -29h-53c-15 0 -28 6 -37 18l-185 230
l-182 -230c-9 -12 -22 -18 -37 -18zM807 1417l567 -1390c7 -18 1 -27 -18 -27h-111c-13 0 -21 5 -22 14l-160 389h-657l-170 -389c-4 -9 -12 -14 -23 -14h-115c-13 0 -21 12 -16 27l612 1390c4 9 12 14 23 15h67c11 0 18 -5 23 -15zM1016 520l-268 692l-291 -692h559z" />
    <glyph glyph-name="uni1EA7" unicode="&#x1ea7;" horiz-adv-x="1353" 
d="M596 1696l-178 321c-8 16 6 35 22 35h99c12 0 19 -5 22 -16l144 -324c8 -19 -4 -31 -23 -31h-64c-11 1 -18 6 -22 15zM449 1204h-54c-16 0 -24 13 -16 29l231 336c7 9 15 14 25 14h63c13 0 22 -4 27 -12l233 -338c8 -13 0 -29 -16 -29h-53c-15 0 -28 6 -37 19l-184 229
l-183 -229c-9 -12 -21 -18 -36 -19zM1092 1042h86c13 0 20 -7 20 -20v-1002c0 -13 -7 -20 -20 -20h-86c-9 0 -16 7 -21 20l-14 179c-96 -136 -251 -224 -434 -224c-151 0 -278 51 -380 154s-153 233 -153 392c0 158 51 289 153 392c101 103 224 154 369 154
c91 0 176 -22 254 -65c78 -44 142 -103 193 -177l12 197c3 13 10 20 21 20zM649 100c113 0 210 37 289 110s119 170 119 292c0 124 -40 228 -121 313s-180 127 -297 127c-112 0 -207 -40 -285 -120c-79 -80 -118 -181 -118 -302s40 -222 119 -301s177 -119 294 -119z" />
    <glyph glyph-name="uni1EA8" unicode="&#x1ea8;" horiz-adv-x="1458" 
d="M631 2361c-12 0 -18 6 -19 17v45c0 13 10 23 21 20c164 -29 246 -102 246 -219c0 -74 -42 -139 -125 -194c-11 -7 -19 -5 -25 6l-22 47c-4 8 -2 15 6 20c49 33 74 73 73 121c1 67 -51 112 -155 137zM526 1579h-53c-16 0 -24 12 -16 29l231 336c7 9 15 14 25 14h63
c13 0 22 -4 27 -12l233 -338c8 -13 0 -29 -16 -29h-53c-15 0 -28 6 -37 18l-185 230l-182 -230c-9 -12 -22 -18 -37 -18zM807 1417l567 -1390c7 -18 1 -27 -18 -27h-111c-13 0 -21 5 -22 14l-160 389h-657l-170 -389c-4 -9 -12 -14 -23 -14h-115c-13 0 -21 12 -16 27
l612 1390c4 9 12 14 23 15h67c11 0 18 -5 23 -15zM1016 520l-268 692l-291 -692h559z" />
    <glyph glyph-name="uni1EA9" unicode="&#x1ea9;" horiz-adv-x="1353" 
d="M553 1987c-12 0 -18 5 -18 16v45c0 13 9 24 20 20c164 -29 246 -102 246 -219c0 -74 -42 -139 -125 -194c-11 -7 -19 -5 -25 6l-22 47c-4 8 -2 15 6 21c49 33 74 73 74 120c0 67 -52 113 -156 138zM449 1204h-54c-16 0 -24 13 -16 29l231 336c7 9 15 14 25 14h63
c13 0 22 -4 27 -12l233 -338c8 -13 0 -29 -16 -29h-53c-15 0 -28 6 -37 19l-184 229l-183 -229c-9 -12 -21 -18 -36 -19zM1092 1042h86c13 0 20 -7 20 -20v-1002c0 -13 -7 -20 -20 -20h-86c-9 0 -16 7 -21 20l-14 179c-96 -136 -251 -224 -434 -224c-151 0 -278 51 -380 154
s-153 233 -153 392c0 158 51 289 153 392c101 103 224 154 369 154c91 0 176 -22 254 -65c78 -44 142 -103 193 -177l12 197c3 13 10 20 21 20zM649 100c113 0 210 37 289 110s119 170 119 292c0 124 -40 228 -121 313s-180 127 -297 127c-112 0 -207 -40 -285 -120
c-79 -80 -118 -181 -118 -302s40 -222 119 -301s177 -119 294 -119z" />
    <glyph glyph-name="uni1EAA" unicode="&#x1eaa;" horiz-adv-x="1458" 
d="M498 2083l-43 22c-8 4 -11 12 -9 23c34 91 88 137 162 137c38 0 86 -17 144 -50c57 -33 98 -50 122 -50c38 0 70 22 97 67c7 15 15 20 26 13l43 -21c9 -4 13 -11 11 -20c-33 -100 -87 -150 -164 -150c-37 0 -84 18 -143 54c-59 35 -100 53 -123 53c-35 0 -67 -23 -95 -68
c-7 -13 -16 -17 -28 -10zM713 1958h63c13 0 22 -4 27 -12l233 -338c8 -13 0 -29 -16 -29h-53c-15 0 -28 6 -37 18l-185 230l-182 -230c-9 -12 -22 -18 -37 -18h-53c-16 0 -24 12 -16 29l231 336c7 9 15 14 25 14zM807 1417l567 -1390c7 -18 1 -27 -18 -27h-111
c-13 0 -21 5 -22 14l-160 389h-657l-170 -389c-4 -9 -12 -14 -23 -14h-115c-13 0 -21 12 -16 27l612 1390c4 9 12 14 23 15h67c11 0 18 -5 23 -15zM1016 520l-268 692l-291 -692h559z" />
    <glyph glyph-name="uni1EAB" unicode="&#x1eab;" horiz-adv-x="1353" 
d="M420 1708l-43 23c-8 4 -11 11 -8 22c34 91 88 137 161 137c38 0 86 -17 144 -50c57 -33 98 -50 123 -50c38 0 70 23 96 68c7 15 16 19 27 12l43 -21c9 -4 13 -11 10 -20c-33 -100 -87 -150 -164 -150c-37 0 -84 18 -143 54c-59 35 -100 53 -123 53c-35 0 -67 -23 -94 -68
c-7 -13 -16 -17 -29 -10zM635 1583h63c13 0 22 -4 27 -12l233 -338c8 -13 0 -29 -16 -29h-53c-15 0 -28 6 -37 19l-184 229l-183 -229c-9 -12 -21 -18 -36 -19h-54c-16 0 -24 13 -16 29l231 336c7 9 15 14 25 14zM1092 1042h86c13 0 20 -7 20 -20v-1002
c0 -13 -7 -20 -20 -20h-86c-9 0 -16 7 -21 20l-14 179c-96 -136 -251 -224 -434 -224c-151 0 -278 51 -380 154s-153 233 -153 392c0 158 51 289 153 392c101 103 224 154 369 154c91 0 176 -22 254 -65c78 -44 142 -103 193 -177l12 197c3 13 10 20 21 20zM649 100
c113 0 210 37 289 110s119 170 119 292c0 124 -40 228 -121 313s-180 127 -297 127c-112 0 -207 -40 -285 -120c-79 -80 -118 -181 -118 -302s40 -222 119 -301s177 -119 294 -119z" />
    <glyph glyph-name="uni1EAC" unicode="&#x1eac;" horiz-adv-x="1458" 
d="M526 1579h-53c-16 0 -24 12 -16 29l231 336c7 9 15 14 25 14h63c13 0 22 -4 27 -12l233 -338c8 -13 0 -29 -16 -29h-53c-15 0 -28 6 -37 18l-185 230l-182 -230c-9 -12 -22 -18 -37 -18zM807 1417l567 -1390c7 -18 1 -27 -18 -27h-111c-13 0 -21 5 -22 14l-160 389h-657
l-170 -389c-4 -9 -12 -14 -23 -14h-115c-13 0 -21 12 -16 27l612 1390c4 9 12 14 23 15h67c11 0 18 -5 23 -15zM1016 520l-268 692l-291 -692h559zM679 -196c49 57 149 13 146 -60c0 -49 -39 -88 -85 -88s-87 39 -87 88c0 23 9 43 26 60z" />
    <glyph glyph-name="uni1EAD" unicode="&#x1ead;" horiz-adv-x="1353" 
d="M449 1204h-54c-16 0 -24 13 -16 29l231 336c7 9 15 14 25 14h63c13 0 22 -4 27 -12l233 -338c8 -13 0 -29 -16 -29h-53c-15 0 -28 6 -37 19l-184 229l-183 -229c-9 -12 -21 -18 -36 -19zM1092 1042h86c13 0 20 -7 20 -20v-1002c0 -13 -7 -20 -20 -20h-86
c-9 0 -16 7 -21 20l-14 179c-96 -136 -251 -224 -434 -224c-151 0 -278 51 -380 154s-153 233 -153 392c0 158 51 289 153 392c101 103 224 154 369 154c91 0 176 -22 254 -65c78 -44 142 -103 193 -177l12 197c3 13 10 20 21 20zM649 100c113 0 210 37 289 110
s119 170 119 292c0 124 -40 228 -121 313s-180 127 -297 127c-112 0 -207 -40 -285 -120c-79 -80 -118 -181 -118 -302s40 -222 119 -301s177 -119 294 -119zM610 -196c48 57 150 13 146 -60c0 -49 -39 -88 -86 -88s-86 39 -86 88c0 23 9 43 26 60z" />
    <glyph glyph-name="uni1EAE" unicode="&#x1eae;" horiz-adv-x="1458" 
d="M807 1978h-66c-16 0 -27 12 -22 31l143 324c5 11 13 16 23 16h98c19 0 31 -15 23 -35l-179 -321c-3 -9 -9 -14 -20 -15zM748 1583c-79 0 -147 26 -204 79s-88 116 -95 189c0 19 8 29 24 29h66c13 0 20 -6 20 -18c3 -48 22 -90 57 -125c35 -36 79 -54 132 -54
s97 18 132 54c35 35 53 77 54 125c3 12 10 18 22 18h64c19 0 27 -10 24 -31c-5 -74 -36 -137 -93 -188c-57 -52 -125 -78 -203 -78zM807 1417l567 -1390c7 -18 1 -27 -18 -27h-111c-13 0 -21 5 -22 14l-160 389h-657l-170 -389c-4 -9 -12 -14 -23 -14h-115
c-13 0 -21 12 -16 27l612 1390c4 9 12 14 23 15h67c11 0 18 -5 23 -15zM1016 520l-268 692l-291 -692h559z" />
    <glyph glyph-name="uni1EAF" unicode="&#x1eaf;" horiz-adv-x="1353" 
d="M729 1604h-65c-16 0 -28 11 -23 30l143 324c5 11 13 16 23 16h98c19 0 31 -15 23 -35l-178 -321c-3 -9 -10 -14 -21 -14zM670 1208c-79 0 -147 26 -204 79s-88 116 -95 190c0 19 8 29 24 28h66c13 0 20 -6 20 -18c3 -48 22 -90 57 -125s79 -53 132 -53s97 18 132 53
s53 77 54 125c3 12 10 18 23 18h63c19 0 28 -10 25 -30c-5 -74 -37 -137 -94 -189s-125 -78 -203 -78zM1092 1042h86c13 0 20 -7 20 -20v-1002c0 -13 -7 -20 -20 -20h-86c-9 0 -16 7 -21 20l-14 179c-96 -136 -251 -224 -434 -224c-151 0 -278 51 -380 154
s-153 233 -153 392c0 158 51 289 153 392c101 103 224 154 369 154c91 0 176 -22 254 -65c78 -44 142 -103 193 -177l12 197c3 13 10 20 21 20zM649 100c113 0 210 37 289 110s119 170 119 292c0 124 -40 228 -121 313s-180 127 -297 127c-112 0 -207 -40 -285 -120
c-79 -80 -118 -181 -118 -302s40 -222 119 -301s177 -119 294 -119z" />
    <glyph glyph-name="uni1EB0" unicode="&#x1eb0;" horiz-adv-x="1458" 
d="M674 1993l-178 321c-8 16 6 35 22 35h98c12 0 20 -5 23 -16l143 -324c8 -19 -3 -31 -22 -31h-64c-11 1 -18 6 -22 15zM748 1583c-79 0 -147 26 -204 79s-88 116 -95 189c0 19 8 29 24 29h66c13 0 20 -6 20 -18c3 -48 22 -90 57 -125c35 -36 79 -54 132 -54s97 18 132 54
c35 35 53 77 54 125c3 12 10 18 22 18h64c19 0 27 -10 24 -31c-5 -74 -36 -137 -93 -188c-57 -52 -125 -78 -203 -78zM807 1417l567 -1390c7 -18 1 -27 -18 -27h-111c-13 0 -21 5 -22 14l-160 389h-657l-170 -389c-4 -9 -12 -14 -23 -14h-115c-13 0 -21 12 -16 27l612 1390
c4 9 12 14 23 15h67c11 0 18 -5 23 -15zM1016 520l-268 692l-291 -692h559z" />
    <glyph glyph-name="uni1EB1" unicode="&#x1eb1;" horiz-adv-x="1353" 
d="M596 1618l-178 321c-8 16 6 35 22 35h99c12 0 19 -5 22 -16l144 -324c8 -19 -4 -30 -23 -30h-64c-11 0 -18 5 -22 14zM670 1208c-79 0 -147 26 -204 79s-88 116 -95 190c0 19 8 29 24 28h66c13 0 20 -6 20 -18c3 -48 22 -90 57 -125s79 -53 132 -53s97 18 132 53
s53 77 54 125c3 12 10 18 23 18h63c19 0 28 -10 25 -30c-5 -74 -37 -137 -94 -189s-125 -78 -203 -78zM1092 1042h86c13 0 20 -7 20 -20v-1002c0 -13 -7 -20 -20 -20h-86c-9 0 -16 7 -21 20l-14 179c-96 -136 -251 -224 -434 -224c-151 0 -278 51 -380 154
s-153 233 -153 392c0 158 51 289 153 392c101 103 224 154 369 154c91 0 176 -22 254 -65c78 -44 142 -103 193 -177l12 197c3 13 10 20 21 20zM649 100c113 0 210 37 289 110s119 170 119 292c0 124 -40 228 -121 313s-180 127 -297 127c-112 0 -207 -40 -285 -120
c-79 -80 -118 -181 -118 -302s40 -222 119 -301s177 -119 294 -119z" />
    <glyph glyph-name="uni1EB2" unicode="&#x1eb2;" horiz-adv-x="1458" 
d="M631 2284c-12 0 -18 5 -19 16v45c0 13 10 23 21 20c164 -29 246 -102 246 -219c0 -74 -42 -139 -125 -194c-11 -7 -19 -5 -25 6l-22 47c-4 8 -2 15 6 20c49 33 74 73 73 121c1 67 -51 113 -155 138zM748 1583c-79 0 -147 26 -204 79s-88 116 -95 189c0 19 8 29 24 29h66
c13 0 20 -6 20 -18c3 -48 22 -90 57 -125c35 -36 79 -54 132 -54s97 18 132 54c35 35 53 77 54 125c3 12 10 18 22 18h64c19 0 27 -10 24 -31c-5 -74 -36 -137 -93 -188c-57 -52 -125 -78 -203 -78zM807 1417l567 -1390c7 -18 1 -27 -18 -27h-111c-13 0 -21 5 -22 14
l-160 389h-657l-170 -389c-4 -9 -12 -14 -23 -14h-115c-13 0 -21 12 -16 27l612 1390c4 9 12 14 23 15h67c11 0 18 -5 23 -15zM1016 520l-268 692l-291 -692h559z" />
    <glyph glyph-name="uni1EB3" unicode="&#x1eb3;" horiz-adv-x="1353" 
d="M553 1909c-12 0 -18 5 -18 16v45c0 13 9 24 20 21c164 -29 246 -102 246 -219c0 -74 -42 -139 -125 -195c-11 -7 -19 -5 -25 6l-22 47c-4 8 -2 15 6 21c49 33 74 73 74 121c0 67 -52 112 -156 137zM670 1208c-79 0 -147 26 -204 79s-88 116 -95 190c0 19 8 29 24 28h66
c13 0 20 -6 20 -18c3 -48 22 -90 57 -125s79 -53 132 -53s97 18 132 53s53 77 54 125c3 12 10 18 23 18h63c19 0 28 -10 25 -30c-5 -74 -37 -137 -94 -189s-125 -78 -203 -78zM1092 1042h86c13 0 20 -7 20 -20v-1002c0 -13 -7 -20 -20 -20h-86c-9 0 -16 7 -21 20l-14 179
c-96 -136 -251 -224 -434 -224c-151 0 -278 51 -380 154s-153 233 -153 392c0 158 51 289 153 392c101 103 224 154 369 154c91 0 176 -22 254 -65c78 -44 142 -103 193 -177l12 197c3 13 10 20 21 20zM649 100c113 0 210 37 289 110s119 170 119 292
c0 124 -40 228 -121 313s-180 127 -297 127c-112 0 -207 -40 -285 -120c-79 -80 -118 -181 -118 -302s40 -222 119 -301s177 -119 294 -119z" />
    <glyph glyph-name="uni1EB4" unicode="&#x1eb4;" horiz-adv-x="1458" 
d="M498 2005l-43 23c-8 4 -11 11 -9 22c34 91 88 137 162 137c38 0 86 -17 144 -50c57 -33 98 -50 122 -50c38 0 70 22 97 67c7 15 15 20 26 13l43 -21c9 -4 13 -11 11 -20c-33 -100 -87 -150 -164 -150c-37 0 -84 18 -143 54c-59 35 -100 53 -123 53c-35 0 -67 -23 -95 -68
c-7 -13 -16 -17 -28 -10zM956 1880h64c19 0 27 -10 24 -31c-5 -74 -37 -137 -94 -188c-57 -52 -125 -78 -202 -78c-79 0 -147 26 -204 79s-88 116 -95 189c0 19 8 29 24 29h66c13 0 20 -6 20 -18c3 -48 22 -90 57 -125c35 -36 79 -54 132 -54s97 18 132 54
c35 35 53 77 54 125c3 12 10 18 22 18zM807 1417l567 -1390c7 -18 1 -27 -18 -27h-111c-13 0 -21 5 -22 14l-160 389h-657l-170 -389c-4 -9 -12 -14 -23 -14h-115c-13 0 -21 12 -16 27l612 1390c4 9 12 14 23 15h67c11 0 18 -5 23 -15zM1016 520l-268 692l-291 -692h559z
" />
    <glyph glyph-name="uni1EB5" unicode="&#x1eb5;" horiz-adv-x="1353" 
d="M420 1630l-43 23c-8 4 -11 11 -8 22c34 91 88 137 161 137c38 0 86 -17 144 -50c57 -33 98 -50 123 -50c38 0 70 23 96 68c7 15 16 19 27 12l43 -20c9 -4 13 -11 10 -21c-33 -100 -87 -150 -164 -149c-37 0 -84 18 -143 53s-100 53 -123 53c-35 0 -67 -23 -94 -68
c-7 -13 -16 -17 -29 -10zM879 1505h63c19 0 28 -10 25 -30c-5 -74 -37 -137 -94 -189c-58 -52 -126 -78 -203 -78c-79 0 -147 26 -204 79s-88 116 -95 190c0 19 8 29 24 28h66c13 0 20 -6 20 -18c3 -48 22 -90 57 -125s79 -53 132 -53s97 18 132 53s53 77 54 125
c3 12 11 18 23 18zM1092 1042h86c13 0 20 -7 20 -20v-1002c0 -13 -7 -20 -20 -20h-86c-9 0 -16 7 -21 20l-14 179c-96 -136 -251 -224 -434 -224c-151 0 -278 51 -380 154s-153 233 -153 392c0 158 51 289 153 392c101 103 224 154 369 154c91 0 176 -22 254 -65
c78 -44 142 -103 193 -177l12 197c3 13 10 20 21 20zM649 100c113 0 210 37 289 110s119 170 119 292c0 124 -40 228 -121 313s-180 127 -297 127c-112 0 -207 -40 -285 -120c-79 -80 -118 -181 -118 -302s40 -222 119 -301s177 -119 294 -119z" />
    <glyph glyph-name="uni1EB6" unicode="&#x1eb6;" horiz-adv-x="1458" 
d="M748 1583c-79 0 -147 26 -204 79s-88 116 -95 189c0 19 8 29 24 29h66c13 0 20 -6 20 -18c3 -48 22 -90 57 -125c35 -36 79 -54 132 -54s97 18 132 54c35 35 53 77 54 125c3 12 10 18 22 18h64c19 0 27 -10 24 -31c-5 -74 -36 -137 -93 -188c-57 -52 -125 -78 -203 -78z
M807 1417l567 -1390c7 -18 1 -27 -18 -27h-111c-13 0 -21 5 -22 14l-160 389h-657l-170 -389c-4 -9 -12 -14 -23 -14h-115c-13 0 -21 12 -16 27l612 1390c4 9 12 14 23 15h67c11 0 18 -5 23 -15zM1016 520l-268 692l-291 -692h559zM679 -196c49 57 149 13 146 -60
c0 -49 -39 -88 -85 -88s-87 39 -87 88c0 23 9 43 26 60z" />
    <glyph glyph-name="uni1EB7" unicode="&#x1eb7;" horiz-adv-x="1353" 
d="M670 1208c-79 0 -147 26 -204 79s-88 116 -95 190c0 19 8 29 24 28h66c13 0 20 -6 20 -18c3 -48 22 -90 57 -125s79 -53 132 -53s97 18 132 53s53 77 54 125c3 12 10 18 23 18h63c19 0 28 -10 25 -30c-5 -74 -37 -137 -94 -189s-125 -78 -203 -78zM1092 1042h86
c13 0 20 -7 20 -20v-1002c0 -13 -7 -20 -20 -20h-86c-9 0 -16 7 -21 20l-14 179c-96 -136 -251 -224 -434 -224c-151 0 -278 51 -380 154s-153 233 -153 392c0 158 51 289 153 392c101 103 224 154 369 154c91 0 176 -22 254 -65c78 -44 142 -103 193 -177l12 197
c3 13 10 20 21 20zM649 100c113 0 210 37 289 110s119 170 119 292c0 124 -40 228 -121 313s-180 127 -297 127c-112 0 -207 -40 -285 -120c-79 -80 -118 -181 -118 -302s40 -222 119 -301s177 -119 294 -119zM610 -196c48 57 150 13 146 -60c0 -49 -39 -88 -86 -88
s-86 39 -86 88c0 23 9 43 26 60z" />
    <glyph glyph-name="uni1EB8" unicode="&#x1eb8;" horiz-adv-x="1335" 
d="M344 139h873c13 0 20 -7 20 -20v-99c0 -13 -7 -20 -20 -20h-1002c-13 0 -20 7 -20 20v1393c0 13 7 20 20 21h993c13 0 20 -7 21 -21v-98c0 -13 -7 -20 -21 -21h-864v-512h733c13 0 20 -7 21 -20v-78c0 -13 -7 -20 -21 -20h-733v-525zM655 -196c48 57 150 13 146 -60
c0 -49 -39 -88 -86 -88s-86 39 -86 88c0 23 9 43 26 60z" />
    <glyph glyph-name="uni1EB9" unicode="&#x1eb9;" horiz-adv-x="1208" 
d="M608 1067c146 0 268 -51 366 -153c97 -103 146 -233 146 -390v-37c-1 -12 -9 -18 -22 -18h-871c8 -112 50 -201 126 -268s172 -101 288 -101c153 0 276 67 371 201c9 11 19 11 28 2l58 -57c9 -9 9 -20 0 -33c-49 -74 -115 -132 -198 -174c-83 -43 -172 -64 -269 -64
c-155 0 -284 52 -387 155s-154 233 -154 388c0 154 49 284 147 390c97 106 221 159 371 159zM873 844c-70 65 -157 98 -260 98c-104 0 -192 -33 -263 -98c-72 -66 -114 -153 -125 -260h764c-8 108 -47 195 -116 260zM569 -200c48 57 150 13 146 -60c0 -49 -39 -88 -86 -88
s-86 39 -86 88c0 23 9 43 26 60z" />
    <glyph glyph-name="uni1EBA" unicode="&#x1eba;" horiz-adv-x="1335" 
d="M598 1878c-12 0 -18 5 -18 16v45c0 13 9 24 20 21c164 -29 246 -102 246 -219c0 -74 -42 -139 -125 -195c-11 -7 -19 -5 -25 6l-22 47c-4 8 -2 15 6 21c49 33 74 73 74 121c0 67 -52 112 -156 137zM344 139h873c13 0 20 -7 20 -20v-99c0 -13 -7 -20 -20 -20h-1002
c-13 0 -20 7 -20 20v1393c0 13 7 20 20 21h993c13 0 20 -7 21 -21v-98c0 -13 -7 -20 -21 -21h-864v-512h733c13 0 20 -7 21 -20v-78c0 -13 -7 -20 -21 -20h-733v-525z" />
    <glyph glyph-name="uni1EBB" unicode="&#x1ebb;" horiz-adv-x="1208" 
d="M496 1503c-12 0 -18 6 -19 17v45c0 13 9 23 21 20c164 -29 246 -102 245 -219c0 -74 -42 -139 -125 -195c-11 -7 -19 -4 -24 7l-23 47c-4 8 -2 15 7 20c49 33 74 73 73 121c1 67 -51 112 -155 137zM608 1067c146 0 268 -51 366 -153c97 -103 146 -233 146 -390v-37
c-1 -12 -9 -18 -22 -18h-871c8 -112 50 -201 126 -268s172 -101 288 -101c153 0 276 67 371 201c9 11 19 11 28 2l58 -57c9 -9 9 -20 0 -33c-49 -74 -115 -132 -198 -174c-83 -43 -172 -64 -269 -64c-155 0 -284 52 -387 155s-154 233 -154 388c0 154 49 284 147 390
c97 106 221 159 371 159zM873 844c-70 65 -157 98 -260 98c-104 0 -192 -33 -263 -98c-72 -66 -114 -153 -125 -260h764c-8 108 -47 195 -116 260z" />
    <glyph glyph-name="uni1EBC" unicode="&#x1ebc;" horiz-adv-x="1335" 
d="M465 1599l-43 23c-8 4 -11 12 -8 23c34 91 88 137 161 137c38 0 86 -17 144 -50c57 -34 98 -51 123 -51c38 0 70 23 96 68c7 15 16 19 27 12l43 -20c9 -4 13 -11 10 -21c-33 -100 -87 -150 -164 -149c-37 0 -84 18 -143 53s-100 53 -123 53c-35 0 -67 -22 -94 -67
c-7 -13 -16 -17 -29 -11zM344 139h873c13 0 20 -7 20 -20v-99c0 -13 -7 -20 -20 -20h-1002c-13 0 -20 7 -20 20v1393c0 13 7 20 20 21h993c13 0 20 -7 21 -21v-98c0 -13 -7 -20 -21 -21h-864v-512h733c13 0 20 -7 21 -20v-78c0 -13 -7 -20 -21 -20h-733v-525z" />
    <glyph glyph-name="uni1EBD" unicode="&#x1ebd;" horiz-adv-x="1208" 
d="M362 1225l-43 22c-8 4 -11 12 -8 23c34 91 88 137 162 137c38 0 86 -17 143 -50s98 -50 123 -50c38 0 70 22 97 67c7 15 15 19 26 12l43 -20c9 -4 13 -11 10 -20c-33 -100 -87 -150 -163 -150c-37 0 -84 18 -143 54c-59 35 -101 53 -124 53c-35 0 -67 -23 -94 -68
c-7 -13 -16 -17 -29 -10zM608 1067c146 0 268 -51 366 -153c97 -103 146 -233 146 -390v-37c-1 -12 -9 -18 -22 -18h-871c8 -112 50 -201 126 -268s172 -101 288 -101c153 0 276 67 371 201c9 11 19 11 28 2l58 -57c9 -9 9 -20 0 -33c-49 -74 -115 -132 -198 -174
c-83 -43 -172 -64 -269 -64c-155 0 -284 52 -387 155s-154 233 -154 388c0 154 49 284 147 390c97 106 221 159 371 159zM873 844c-70 65 -157 98 -260 98c-104 0 -192 -33 -263 -98c-72 -66 -114 -153 -125 -260h764c-8 108 -47 195 -116 260z" />
    <glyph glyph-name="uni1EBE" unicode="&#x1ebe;" horiz-adv-x="1335" 
d="M774 2056h-65c-16 0 -28 12 -23 31l143 323c5 11 13 16 23 17h98c19 0 31 -16 23 -35l-178 -321c-3 -9 -10 -14 -21 -15zM494 1579h-54c-16 0 -24 12 -16 29l231 336c7 9 15 14 25 14h63c13 0 22 -4 27 -12l234 -338c8 -13 -1 -29 -17 -29h-53c-15 0 -28 6 -37 18
l-184 230l-183 -230c-9 -12 -21 -18 -36 -18zM344 139h873c13 0 20 -7 20 -20v-99c0 -13 -7 -20 -20 -20h-1002c-13 0 -20 7 -20 20v1393c0 13 7 20 20 21h993c13 0 20 -7 21 -21v-98c0 -13 -7 -20 -21 -21h-864v-512h733c13 0 20 -7 21 -20v-78c0 -13 -7 -20 -21 -20h-733
v-525z" />
    <glyph glyph-name="uni1EBF" unicode="&#x1ebf;" horiz-adv-x="1208" 
d="M672 1681h-66c-16 0 -27 12 -22 31l143 324c5 11 13 16 23 16h98c19 0 31 -15 22 -35l-178 -321c-3 -9 -9 -14 -20 -15zM391 1204h-53c-16 0 -25 13 -16 29l231 336c7 9 15 14 25 14h63c13 0 22 -4 27 -12l233 -338c8 -13 0 -29 -16 -29h-54c-15 0 -27 6 -36 19l-185 229
l-182 -229c-9 -12 -22 -18 -37 -19zM608 1067c146 0 268 -51 366 -153c97 -103 146 -233 146 -390v-37c-1 -12 -9 -18 -22 -18h-871c8 -112 50 -201 126 -268s172 -101 288 -101c153 0 276 67 371 201c9 11 19 11 28 2l58 -57c9 -9 9 -20 0 -33c-49 -74 -115 -132 -198 -174
c-83 -43 -172 -64 -269 -64c-155 0 -284 52 -387 155s-154 233 -154 388c0 154 49 284 147 390c97 106 221 159 371 159zM873 844c-70 65 -157 98 -260 98c-104 0 -192 -33 -263 -98c-72 -66 -114 -153 -125 -260h764c-8 108 -47 195 -116 260z" />
    <glyph glyph-name="uni1EC0" unicode="&#x1ec0;" horiz-adv-x="1335" 
d="M641 2071l-178 321c-8 16 6 35 22 35h99c12 0 19 -6 22 -17l144 -323c8 -19 -4 -31 -23 -31h-63c-11 1 -19 6 -23 15zM494 1579h-54c-16 0 -24 12 -16 29l231 336c7 9 15 14 25 14h63c13 0 22 -4 27 -12l234 -338c8 -13 -1 -29 -17 -29h-53c-15 0 -28 6 -37 18l-184 230
l-183 -230c-9 -12 -21 -18 -36 -18zM344 139h873c13 0 20 -7 20 -20v-99c0 -13 -7 -20 -20 -20h-1002c-13 0 -20 7 -20 20v1393c0 13 7 20 20 21h993c13 0 20 -7 21 -21v-98c0 -13 -7 -20 -21 -21h-864v-512h733c13 0 20 -7 21 -20v-78c0 -13 -7 -20 -21 -20h-733v-525z" />
    <glyph glyph-name="uni1EC1" unicode="&#x1ec1;" horiz-adv-x="1208" 
d="M539 1696l-179 321c-8 16 7 35 23 35h98c12 0 20 -5 23 -16l143 -324c8 -19 -3 -31 -22 -31h-64c-11 1 -18 6 -22 15zM391 1204h-53c-16 0 -25 13 -16 29l231 336c7 9 15 14 25 14h63c13 0 22 -4 27 -12l233 -338c8 -13 0 -29 -16 -29h-54c-15 0 -27 6 -36 19l-185 229
l-182 -229c-9 -12 -22 -18 -37 -19zM608 1067c146 0 268 -51 366 -153c97 -103 146 -233 146 -390v-37c-1 -12 -9 -18 -22 -18h-871c8 -112 50 -201 126 -268s172 -101 288 -101c153 0 276 67 371 201c9 11 19 11 28 2l58 -57c9 -9 9 -20 0 -33c-49 -74 -115 -132 -198 -174
c-83 -43 -172 -64 -269 -64c-155 0 -284 52 -387 155s-154 233 -154 388c0 154 49 284 147 390c97 106 221 159 371 159zM873 844c-70 65 -157 98 -260 98c-104 0 -192 -33 -263 -98c-72 -66 -114 -153 -125 -260h764c-8 108 -47 195 -116 260z" />
    <glyph glyph-name="uni1EC2" unicode="&#x1ec2;" horiz-adv-x="1335" 
d="M598 2361c-12 0 -18 6 -18 17v45c0 13 9 23 20 20c164 -29 246 -102 246 -219c0 -74 -42 -139 -125 -194c-11 -7 -19 -5 -25 6l-22 47c-4 8 -2 15 6 20c49 33 74 73 74 121c0 67 -52 112 -156 137zM494 1579h-54c-16 0 -24 12 -16 29l231 336c7 9 15 14 25 14h63
c13 0 22 -4 27 -12l234 -338c8 -13 -1 -29 -17 -29h-53c-15 0 -28 6 -37 18l-184 230l-183 -230c-9 -12 -21 -18 -36 -18zM344 139h873c13 0 20 -7 20 -20v-99c0 -13 -7 -20 -20 -20h-1002c-13 0 -20 7 -20 20v1393c0 13 7 20 20 21h993c13 0 20 -7 21 -21v-98
c0 -13 -7 -20 -21 -21h-864v-512h733c13 0 20 -7 21 -20v-78c0 -13 -7 -20 -21 -20h-733v-525z" />
    <glyph glyph-name="uni1EC3" unicode="&#x1ec3;" horiz-adv-x="1208" 
d="M496 1987c-12 0 -18 5 -19 16v45c0 13 9 24 21 20c164 -29 246 -102 245 -219c0 -74 -42 -139 -125 -194c-11 -7 -19 -5 -24 6l-23 47c-4 8 -2 15 7 21c49 33 74 73 73 120c1 67 -51 113 -155 138zM391 1204h-53c-16 0 -25 13 -16 29l231 336c7 9 15 14 25 14h63
c13 0 22 -4 27 -12l233 -338c8 -13 0 -29 -16 -29h-54c-15 0 -27 6 -36 19l-185 229l-182 -229c-9 -12 -22 -18 -37 -19zM608 1067c146 0 268 -51 366 -153c97 -103 146 -233 146 -390v-37c-1 -12 -9 -18 -22 -18h-871c8 -112 50 -201 126 -268s172 -101 288 -101
c153 0 276 67 371 201c9 11 19 11 28 2l58 -57c9 -9 9 -20 0 -33c-49 -74 -115 -132 -198 -174c-83 -43 -172 -64 -269 -64c-155 0 -284 52 -387 155s-154 233 -154 388c0 154 49 284 147 390c97 106 221 159 371 159zM873 844c-70 65 -157 98 -260 98
c-104 0 -192 -33 -263 -98c-72 -66 -114 -153 -125 -260h764c-8 108 -47 195 -116 260z" />
    <glyph glyph-name="uni1EC4" unicode="&#x1ec4;" horiz-adv-x="1335" 
d="M465 2083l-43 22c-8 4 -11 12 -8 23c34 91 88 137 161 137c38 0 86 -17 144 -50c57 -33 98 -50 123 -50c38 0 70 22 96 67c7 15 16 20 27 13l43 -21c9 -4 13 -11 10 -20c-33 -100 -87 -150 -164 -150c-37 0 -84 18 -143 54c-59 35 -100 53 -123 53c-35 0 -67 -23 -94 -68
c-7 -13 -16 -17 -29 -10zM680 1958h63c13 0 22 -4 27 -12l234 -338c8 -13 -1 -29 -17 -29h-53c-15 0 -28 6 -37 18l-184 230l-183 -230c-9 -12 -21 -18 -36 -18h-54c-16 0 -24 12 -16 29l231 336c7 9 15 14 25 14zM344 139h873c13 0 20 -7 20 -20v-99c0 -13 -7 -20 -20 -20
h-1002c-13 0 -20 7 -20 20v1393c0 13 7 20 20 21h993c13 0 20 -7 21 -21v-98c0 -13 -7 -20 -21 -21h-864v-512h733c13 0 20 -7 21 -20v-78c0 -13 -7 -20 -21 -20h-733v-525z" />
    <glyph glyph-name="uni1EC5" unicode="&#x1ec5;" horiz-adv-x="1208" 
d="M362 1708l-43 23c-8 4 -11 11 -8 22c34 91 88 137 162 137c38 0 86 -17 143 -50s98 -50 123 -50c38 0 70 23 97 68c7 15 15 19 26 12l43 -21c9 -4 13 -11 10 -20c-33 -100 -87 -150 -163 -150c-37 0 -84 18 -143 54c-59 35 -101 53 -124 53c-35 0 -67 -23 -94 -68
c-7 -13 -16 -17 -29 -10zM578 1583h63c13 0 22 -4 27 -12l233 -338c8 -13 0 -29 -16 -29h-54c-15 0 -27 6 -36 19l-185 229l-182 -229c-9 -12 -22 -18 -37 -19h-53c-16 0 -25 13 -16 29l231 336c7 9 15 14 25 14zM608 1067c146 0 268 -51 366 -153
c97 -103 146 -233 146 -390v-37c-1 -12 -9 -18 -22 -18h-871c8 -112 50 -201 126 -268s172 -101 288 -101c153 0 276 67 371 201c9 11 19 11 28 2l58 -57c9 -9 9 -20 0 -33c-49 -74 -115 -132 -198 -174c-83 -43 -172 -64 -269 -64c-155 0 -284 52 -387 155
s-154 233 -154 388c0 154 49 284 147 390c97 106 221 159 371 159zM873 844c-70 65 -157 98 -260 98c-104 0 -192 -33 -263 -98c-72 -66 -114 -153 -125 -260h764c-8 108 -47 195 -116 260z" />
    <glyph glyph-name="uni1EC6" unicode="&#x1ec6;" horiz-adv-x="1335" 
d="M494 1579h-54c-16 0 -24 12 -16 29l231 336c7 9 15 14 25 14h63c13 0 22 -4 27 -12l234 -338c8 -13 -1 -29 -17 -29h-53c-15 0 -28 6 -37 18l-184 230l-183 -230c-9 -12 -21 -18 -36 -18zM344 139h873c13 0 20 -7 20 -20v-99c0 -13 -7 -20 -20 -20h-1002
c-13 0 -20 7 -20 20v1393c0 13 7 20 20 21h993c13 0 20 -7 21 -21v-98c0 -13 -7 -20 -21 -21h-864v-512h733c13 0 20 -7 21 -20v-78c0 -13 -7 -20 -21 -20h-733v-525zM655 -196c48 57 150 13 146 -60c0 -49 -39 -88 -86 -88s-86 39 -86 88c0 23 9 43 26 60z" />
    <glyph glyph-name="uni1EC7" unicode="&#x1ec7;" horiz-adv-x="1208" 
d="M391 1204h-53c-16 0 -25 13 -16 29l231 336c7 9 15 14 25 14h63c13 0 22 -4 27 -12l233 -338c8 -13 0 -29 -16 -29h-54c-15 0 -27 6 -36 19l-185 229l-182 -229c-9 -12 -22 -18 -37 -19zM608 1067c146 0 268 -51 366 -153c97 -103 146 -233 146 -390v-37
c-1 -12 -9 -18 -22 -18h-871c8 -112 50 -201 126 -268s172 -101 288 -101c153 0 276 67 371 201c9 11 19 11 28 2l58 -57c9 -9 9 -20 0 -33c-49 -74 -115 -132 -198 -174c-83 -43 -172 -64 -269 -64c-155 0 -284 52 -387 155s-154 233 -154 388c0 154 49 284 147 390
c97 106 221 159 371 159zM873 844c-70 65 -157 98 -260 98c-104 0 -192 -33 -263 -98c-72 -66 -114 -153 -125 -260h764c-8 108 -47 195 -116 260zM569 -200c48 57 150 13 146 -60c0 -49 -39 -88 -86 -88s-86 39 -86 88c0 23 9 43 26 60z" />
    <glyph glyph-name="uni1EC8" unicode="&#x1ec8;" horiz-adv-x="538" 
d="M133 1894v45c0 13 9 24 21 21c164 -29 246 -102 245 -219c0 -74 -42 -139 -125 -195c-11 -7 -19 -5 -24 6l-23 47c-4 8 -2 15 6 21c49 33 74 73 74 121c0 67 -52 112 -155 137c-12 0 -18 5 -19 16zM324 0h-109c-13 0 -20 7 -20 20v1393c0 13 7 20 20 21h109
c13 0 20 -7 20 -21v-1393c0 -13 -7 -20 -20 -20z" />
    <glyph glyph-name="uni1EC9" unicode="&#x1ec9;" horiz-adv-x="460" 
d="M96 1520v45c0 13 10 23 21 20c164 -29 246 -102 245 -219c0 -74 -41 -139 -124 -195c-11 -7 -19 -4 -25 7l-23 47c-4 8 -2 15 7 20c49 33 74 73 73 121c0 67 -52 112 -155 137c-12 0 -18 6 -19 17zM285 0h-109c-13 0 -20 7 -20 20v1002c0 13 7 20 20 20h109
c13 0 20 -7 20 -20v-1002c0 -13 -7 -20 -20 -20z" />
    <glyph glyph-name="uni1ECA" unicode="&#x1eca;" horiz-adv-x="538" 
d="M324 0h-109c-13 0 -20 7 -20 20v1393c0 13 7 20 20 21h109c13 0 20 -7 20 -21v-1393c0 -13 -7 -20 -20 -20zM329 -319c-49 -55 -151 -13 -147 63c0 47 39 86 86 86s86 -39 86 -86c0 -25 -8 -46 -25 -63z" />
    <glyph glyph-name="uni1ECB" unicode="&#x1ecb;" horiz-adv-x="458" 
d="M304 1325c-61 -68 -185 -17 -181 76c0 57 49 106 106 106c29 0 54 -10 75 -31s32 -46 32 -75c0 -30 -11 -55 -32 -76zM283 0h-107c-13 0 -20 7 -20 20v1002c0 13 7 20 20 20h107c13 0 20 -7 20 -20v-1002c0 -13 -7 -20 -20 -20zM290 -319c-49 -55 -150 -13 -147 63
c0 47 41 86 87 86s85 -39 85 -86c0 -25 -8 -46 -25 -63z" />
    <glyph glyph-name="uni1ECC" unicode="&#x1ecc;" horiz-adv-x="1701" 
d="M1384 174c-132 -133 -309 -199 -532 -199s-400 66 -531 199c-132 133 -198 310 -198 533c0 224 66 404 199 539c132 135 309 202 530 202c223 0 400 -68 532 -203c131 -135 197 -315 197 -538s-66 -400 -197 -533zM428 275c105 -105 247 -158 424 -158s319 53 424 158
s158 249 158 432s-53 328 -158 437s-247 163 -424 163c-176 0 -317 -54 -423 -163s-159 -254 -159 -437s53 -327 158 -432zM913 -319c-49 -55 -151 -13 -147 63c0 47 39 86 86 86s86 -39 86 -86c0 -25 -8 -46 -25 -63z" />
    <glyph glyph-name="uni1ECD" unicode="&#x1ecd;" horiz-adv-x="1269" 
d="M635 -25c-157 0 -288 52 -391 157c-104 105 -156 235 -156 390c0 154 52 283 157 388c104 105 234 157 390 157c155 0 285 -52 390 -156c105 -105 157 -234 157 -389s-52 -285 -157 -390s-235 -157 -390 -157zM635 100c113 0 209 40 288 120c78 80 117 181 117 302
c0 120 -39 220 -117 300c-79 80 -175 120 -288 120c-115 0 -211 -39 -289 -118s-117 -180 -117 -302c0 -123 39 -224 117 -303s174 -119 289 -119zM696 -319c-49 -55 -151 -13 -147 63c0 47 39 86 86 86s86 -39 86 -86c0 -25 -8 -46 -25 -63z" />
    <glyph glyph-name="uni1ECE" unicode="&#x1ece;" horiz-adv-x="1701" 
d="M717 1894v45c0 13 9 24 20 21c164 -29 246 -102 246 -219c0 -74 -42 -139 -125 -195c-11 -7 -19 -5 -24 6l-23 47c-4 8 -2 15 6 21c49 33 74 73 74 121c0 67 -52 112 -156 137c-12 0 -18 5 -18 16zM1384 174c-132 -133 -309 -199 -532 -199s-400 66 -531 199
c-132 133 -198 310 -198 533c0 224 66 404 199 539c132 135 309 202 530 202c223 0 400 -68 532 -203c131 -135 197 -315 197 -538s-66 -400 -197 -533zM428 275c105 -105 247 -158 424 -158s319 53 424 158s158 249 158 432s-53 328 -158 437s-247 163 -424 163
c-176 0 -317 -54 -423 -163s-159 -254 -159 -437s53 -327 158 -432z" />
    <glyph glyph-name="uni1ECF" unicode="&#x1ecf;" horiz-adv-x="1269" 
d="M500 1520v45c0 13 9 23 20 20c164 -29 246 -102 246 -219c0 -74 -42 -139 -125 -195c-11 -7 -19 -4 -25 7l-22 47c-4 8 -2 15 6 20c49 33 74 73 74 121c0 67 -52 112 -156 137c-12 0 -18 6 -18 17zM635 -25c-157 0 -288 52 -391 157c-104 105 -156 235 -156 390
c0 154 52 283 157 388c104 105 234 157 390 157c155 0 285 -52 390 -156c105 -105 157 -234 157 -389s-52 -285 -157 -390s-235 -157 -390 -157zM635 100c113 0 209 40 288 120c78 80 117 181 117 302c0 120 -39 220 -117 300c-79 80 -175 120 -288 120
c-115 0 -211 -39 -289 -118s-117 -180 -117 -302c0 -123 39 -224 117 -303s174 -119 289 -119z" />
    </font>
</defs>
</svg>
